<?xml version="1.0" encoding="utf-8"?>
<!-- Generator: Adobe Illustrator 24.0.1, SVG Export Plug-In . SVG Version: 6.00 Build 0)  -->
<svg version="1.1" id="Camada_1" xmlns="http://www.w3.org/2000/svg" xmlns:xlink="http://www.w3.org/1999/xlink" x="0px" y="0px"
	 viewBox="0 0 50 50" style="enable-background:new 0 0 50 50;" xml:space="preserve">
<style type="text/css">
	.st0{fill:#FFFFFF;}
</style>
<g>
	<path class="st0" d="M50,14c0-1.5-0.2-2.9-0.6-4.3c-0.9-3-2.6-5.4-5.2-7.2c-2.4-1.6-5.1-2.3-7.9-2.4c-0.9,0-1.7,0-2.6-0.1h-0.5
		c0,0,0,0,0,0c-0.4,0-0.8,0-1.3,0c0,0,0,0,0,0h-14c0,0,0,0,0,0c-0.5,0-1,0-1.5,0c0,0,0,0,0,0.1h0c-0.9,0-1.8,0-2.7,0
		c-2.2,0.1-4.3,0.6-6.3,1.7c-3.8,2-5.9,5.1-6.8,9.3C0.1,13,0,15.1,0,17.1c0,5.3,0,10.5,0,15.8c0,1.7,0.1,3.5,0.4,5.2
		C0.9,41,2,43.6,4.1,45.8c2.7,2.7,6,3.9,9.7,4.1c2.2,0.1,4.3,0.1,6.5,0.1c4.1,0,8.1,0,12.2,0c1.7,0,3.3,0,5-0.2
		c3.5-0.4,6.6-1.7,9-4.4c2-2.2,3-4.8,3.4-7.7c0.1-0.7,0-1.5,0.1-2.2V14.2C49.9,14.2,49.9,14,50,14z M45.5,33.5
		c0,1.8-0.1,3.6-0.7,5.4c-1.1,3.4-3.4,5.3-6.8,6c-2.5,0.5-5,0.4-7.5,0.5c-1.8,0-3.6,0-5.5,0c-3.6,0-7.2,0-10.7-0.2
		c-2-0.1-3.9-0.5-5.6-1.6c-2.1-1.4-3.2-3.4-3.7-5.9c-0.3-1.6-0.3-3.2-0.4-4.8c-0.1-5.3-0.1-10.7,0-16c0-1.9,0.1-3.8,0.6-5.7
		c1-3.6,3.5-5.7,7.1-6.3c2.6-0.5,5.2-0.4,7.9-0.4c4.2,0,8.4,0,12.6,0c1.9,0,3.9,0.1,5.8,0.6c3.6,1,5.7,3.4,6.5,7
		c0.3,1.4,0.3,2.9,0.4,4.3C45.6,22.2,45.6,27.9,45.5,33.5z"/>
	<path class="st0" d="M25.1,12.1c-7.1,0-12.9,5.8-12.9,12.9c0,7.1,5.8,12.9,12.9,12.9c7.1,0,12.9-5.8,12.9-12.8
		C38,17.9,32.2,12.1,25.1,12.1z M25.1,33.3c-4.6,0-8.3-3.7-8.3-8.3c0-4.6,3.7-8.3,8.3-8.3c4.6,0,8.3,3.7,8.3,8.3
		C33.4,29.6,29.7,33.3,25.1,33.3z"/>
	<path class="st0" d="M38.4,8.6c-1.7,0-3,1.3-3,3c0,1.7,1.3,3,3,3c1.7,0,3.1-1.3,3-3C41.5,10,40.1,8.6,38.4,8.6z"/>
</g>
</svg>
