<?xml version="1.0" encoding="utf-8"?>
<!-- Generator: Adobe Illustrator 24.0.1, SVG Export Plug-In . SVG Version: 6.00 Build 0)  -->
<svg version="1.1" id="Camada_1" xmlns="http://www.w3.org/2000/svg" xmlns:xlink="http://www.w3.org/1999/xlink" x="0px" y="0px"
	 viewBox="0 0 50 50" style="enable-background:new 0 0 50 50;" xml:space="preserve">
<style type="text/css">
	.st0{fill:#FFFFFF;}
</style>
<g>
	<path class="st0" d="M17.7,50c0-10.9,0-21.9,0-32.8c0-0.5,0.1-0.6,0.6-0.6c3,0,6,0,8.9,0c0.4,0,0.5,0.1,0.5,0.5c0,1.3,0,2.7,0,4
		c0.2,0.1,0.2-0.1,0.2-0.1c1.8-2.9,4.5-4.5,7.8-5c2.3-0.4,4.6-0.2,6.9,0.5c3.4,1,5.4,3.4,6.4,6.7c0.5,1.7,0.8,3.4,0.9,5.2
		c0,0.1-0.1,0.3,0.1,0.3c0,7,0,13.9,0,20.9c0,0.3-0.1,0.4-0.4,0.4c-3.3,0-6.6,0-10,0c-0.2-0.3-0.1-0.6-0.1-0.8c0-5.4,0-10.9,0-16.3
		c0-1.4-0.1-2.8-0.5-4.2c-0.7-2.6-2.6-3.7-5.4-3.5c-0.2,0-0.5,0-0.7,0.1c-2.3,0.4-3.7,1.8-4.3,4.4c-0.3,1.3-0.4,2.5-0.4,3.8
		c0,5.3,0,10.5,0,15.8c0,0.3,0.1,0.6-0.1,0.8C24.6,50,21.1,50,17.7,50z"/>
	<path class="st0" d="M0.8,50c0-0.2,0-0.4,0-0.6c0-10.8,0-21.5,0-32.3c0-0.5,0.1-0.6,0.6-0.6c3.1,0,6.2,0,9.3,0
		c0.4,0,0.6,0.1,0.6,0.6c0,10.8,0,21.5,0,32.3c0,0.2,0,0.4,0,0.6C7.7,50,4.3,50,0.8,50z"/>
	<path class="st0" d="M0,6c0-3.3,2.8-6,6.1-6C9.4,0.1,12,2.7,12,6.1c0,3.3-2.7,6-6,6C2.7,12.1,0,9.3,0,6z"/>
</g>
</svg>
