<?xml version="1.0" encoding="utf-8"?>
<!-- Generator: Adobe Illustrator 24.0.1, SVG Export Plug-In . SVG Version: 6.00 Build 0)  -->
<svg version="1.1" id="Camada_1" xmlns="http://www.w3.org/2000/svg" xmlns:xlink="http://www.w3.org/1999/xlink" x="0px" y="0px"
	 viewBox="0 0 500 500" style="enable-background:new 0 0 500 500;" xml:space="preserve">
<g>
	<path d="M62.92,144.99c62.39-21.41,124.93-42.42,187.39-63.63c3.34-1.13,6.23-1.34,9.68-0.08c16.93,6.16,33.97,11.99,50.97,17.95
		c45.46,15.94,90.91,31.91,136.41,47.73c1.79,0.62,4.18,3.36,5.94,0.51c2.35-3.81,4.02-8.03,6.25-12.6
		c-0.96-2.71-4.09-2.65-6.28-3.45c-63.01-23.06-126.07-45.95-189.06-69.06c-4.14-1.52-7.6-1.36-11.59,0.02
		c-65.75,22.7-131.49,45.42-197.37,67.74c-6.68,2.26-6.55,4.23-4.07,10C53.93,146.47,56.57,147.16,62.92,144.99z"/>
	<path d="M53.24,380.19c66.34,0.08,132.68,0.07,199.02,0.07c48.96,0.01,97.93,0,146.89,0.01c17.6,0,35.2,0.04,52.8-0.05
		c1.79-0.01,4.1,1.16,5.27-1.54c2.86-6.58-0.58-12.13-7.61-12.13c-132-0.01-264-0.01-396-0.01c-1.13,0-2.27-0.1-3.38,0.02
		c-0.84,0.09-2.34,0.4-2.36,0.7c-0.29,3.77-0.89,7.64-0.33,11.32C48.02,381.73,51.28,380.19,53.24,380.19z"/>
	<path d="M149.77,145.18c33.44-10.81,66.9-21.53,100.27-32.56c4.6-1.52,8.51-1.31,12.96,0.19c32.84,11.06,65.74,21.93,98.63,32.86
		c14.82,2.07,29.66,0.01,44.62-0.32c-4-1.17-8-2.34-12.01-3.5c-4.88-1.81-9.72-3.73-14.63-5.43
		c-40.03-13.82-80.1-27.56-120.09-41.49c-3.3-1.15-6.01-0.7-9.03,0.35c-38.71,13.46-77.45,26.86-116.17,40.29
		c-8.79,3.05-17.56,6.15-26.34,9.22c13.03,1.22,25.79,1.24,38.54,1.18C147.6,145.98,148.7,145.52,149.77,145.18z"/>
	<path d="M365.79,237.7c3.1,0.03,7.49,1.92,7.19-4.58c-0.43-9.45-0.07-18.93-0.07-28.4c0-10.72-1.88-13.35-12.45-15.74
		c-6.68-1.51-13.47-0.77-19.99,1.18c-6.21,1.85-8.75,6.44-8.75,12.83c0.02,46.21,0.05,92.42-0.16,138.63
		c-0.02,5.51,2.41,8.99,6.59,11.63c7.89,4.99,24.48,2.69,31.27-4.16c1.9-1.64,2.13-3.84,2.13-6.16
		c-0.02-10.82-0.21-21.64,0.04-32.46c0.16-7.19-5.01-3.88-8.05-4.33c-3.24-0.48-6.67-1.08-6.44,4.61
		c0.44,11.25,0.16,22.54,0.18,33.81c-1.63,2.47-3.37,5.28-6.8,4.33c-3.54-0.99-3.15-4.48-3.41-7.34c-0.1-1.12-0.03-2.25-0.03-3.38
		c-0.08-44.41-0.16-88.81-0.24-133.22c0-1.35-0.08-2.72,0.08-4.05c0.49-4.02,3.21-6.09,6.88-6c3.88,0.1,4.92,2.91,4.85,6.64
		c-0.2,10.59,0.15,21.19-0.18,31.78C358.21,239.84,362.75,237.67,365.79,237.7z"/>
	<path d="M291.25,227.68c-0.08,10.02-0.07,9.87,9.89,9.59c3.42-0.1,4.75-0.94,4.67-4.59c-0.23-10.59-0.06-21.19-0.11-31.78
		c-0.03-5.37-2.8-8.67-7.76-10.62c-7.32-2.89-14.42-2-21.8-0.05c-6.58,1.74-9.34,5.63-9.33,12.1c0.01,8.79,0.29,17.6-0.19,26.37
		c-0.6,11.04,1.42,21.3,6.02,31.4c5.41,11.86,9.83,24.16,14.89,36.18c2.24,5.32,3.06,10.82,3.12,16.47
		c0.1,9.47-0.32,18.95,0.13,28.39c0.25,5.19-2.5,7.35-6.53,7.46c-4.19,0.11-4.29-3.73-4.28-7c0.02-10.14-0.4-20.31,0.18-30.42
		c0.35-6.19-3.04-5.63-7.02-5.6c-4.13,0.03-7.92-0.85-7.48,5.88c0.66,10.1,0.14,20.28,0.2,30.42c0.04,7.41,4.4,12.16,11.86,12.67
		c4.26,0.29,8.56,0.12,12.84,0.08c9.7-0.09,13.75-4.21,13.81-14.09c0.05-8.79-0.29-17.59,0.08-26.37
		c0.39-8.99-1.59-17.18-5.16-25.43c-6.69-15.45-12.56-31.26-18.77-46.92c0-4.24,0-8.48-0.01-12.72c0.77-7.02,0.49-14.07,0.43-21.1
		c0.07-3.51,0.14-7.02,0.21-10.53c0-0.01,0-0.02,0-0.03c1.07-0.95,2.13-1.9,3.2-2.85c0,0,0,0,0,0c0,0,0,0,0,0
		c5.16-0.71,7.45,1.32,7.24,6.72C291.25,210.09,291.32,218.89,291.25,227.68z"/>
	<path d="M172.83,188.72c-5.08,0.14-3.8,3.32-3.8,5.95c0,25.71,0.07,51.41,0.09,77.12c0,2.41,0.62,4.99-1.28,7.08h0l0,0
		c-1.02-5-2.04-10-3.06-14.99v0c-0.18-0.52-0.37-1.04-0.55-1.56c-0.22-0.15-0.41-0.31-0.58-0.49c0.19,0.17,0.38,0.33,0.58,0.49
		c-1.48-7.27-2.87-14.56-4.44-21.81c-3.43-15.84-7.15-31.62-10.32-47.51c-1.34-6.72-6.14-3.54-9.55-4.03
		c-4.25-0.61-3.05,2.9-3.05,5.06c-0.05,51.85,0,103.71-0.12,155.56c-0.01,3.85,1.03,5.01,4.9,4.97c3.68-0.04,5.07-0.8,5.03-4.82
		c-0.28-28.17-0.32-56.35-0.44-84.53c1.68-0.68,1.39,1.51,2.47,1.7c-0.18,3.16,0.56,6.14,1.71,9.04l0,0v0
		c5.5,24.83,11.12,49.63,16.41,74.5c0.98,4.6,3.83,3.89,6.92,4.04c4.75,0.23,3.4-3.19,3.4-5.58c0.11-51.41,0.17-102.83,0.26-154.24
		C177.41,191.44,177.93,188.58,172.83,188.72z"/>
	<path d="M408.73,353.45c5.77,1.34,11.66,1.34,17.44,0.58c9.48-1.23,11.64-3.6,12.45-11.84c0,0,0,0,0,0c0.22-2,0.63-3.99,0.63-5.99
		c0.04-43.81,0.05-87.62,0-131.43c0-2.43-0.55-4.86-0.84-7.29c0-0.01,0-0.02,0-0.03c-2.8-8.49-9.98-9.62-17.29-9.7
		c-8.1-0.08-16.5-0.01-20.12,9.63c0,0,0,0,0,0c-1.81,2.12-1.29,4.68-1.29,7.12c0.06,43.46,0.12,86.93,0.25,130.39
		c0.01,2.88,0.6,5.76,0.93,8.65c0,0.01,0,0.01,0,0.02v0.01C400.3,349.4,403.47,352.23,408.73,353.45z M419.69,193.74
		c5.55-0.11,8.1,3.62,8.17,8.68c0.22,14.62,0.14,29.25,0.18,43.87c-0.18,29.48-0.39,58.95-0.5,88.43c0,3.4-0.28,6.71-1.12,9.98
		c-2.83,3.18-6.12,4.27-10.22,2.48c-4.77-2.1-4.36-6.44-4.38-10.38c-0.07-32.42-0.03-64.85-0.03-97.27
		c0.01-12.38,0.18-24.78-0.03-37.16C411.65,196.64,414.38,193.83,419.69,193.74z"/>
	<path d="M240.18,197.61c0.22-0.02,0.46-0.04,0.68,0c3.62,0.58,4.48-1.08,4.56-4.53c0.08-3.57-1.44-4.02-4.39-4
		c-9.92,0.06-19.84,0.03-29.76-0.2c-3.05-0.07-4.39,0.5-4.38,3.98c0.02,52.52-0.06,105.05-0.27,157.57
		c-0.02,3.91,1.62,4.33,4.82,4.27c8.57-0.16,17.19-0.65,25.69,0.14c6.4,0.59,5.61-3.44,5.97-6.96c0.54-5.16-3.61-2.61-5.67-2.98
		c-2.85-0.52-5.86-0.59-8.76-0.32c-4.55,0.42-5.66-1.46-5.6-5.79c0.23-18.03,0.1-36.07,0.1-54.1c0-12.53,0-12.52,12.69-13.21
		c0.38-0.02,0.74-0.43,1.12-0.65c1.47-2.81,1.02-5.67,0.18-8.53c0,0,0,0,0,0c0,0,0,0,0,0c-2.01-2.2-4.71-1.34-6.96-1.12
		c-5.68,0.57-7.16-1.61-6.98-7.17c0.41-13.06,0.04-26.14,0.05-39.22c0.01-5.4-1.87-12.5,0.82-15.75
		C227.24,195.2,234.64,198.15,240.18,197.61z M229,269.86c-0.65,0.09-1.33,0.15-2.03,0.18c-0.14-0.01-0.29-0.02-0.43-0.03
		C227.45,269.96,228.25,269.91,229,269.86z"/>
	<path d="M493.48,421.88c-160.72,0.15-321.44,0.13-482.17,0.14c-10.63,0-10.31,0.01-10.79,10.38c-0.23,5.05,0.92,6.33,6.15,6.33
		c158.24-0.17,316.48-0.14,474.72-0.16c4.28,0,8.56-0.16,12.85-0.24c0,0,0,0,0,0c0.48,0.01,0.95,0.02,1.43,0.04l0,0
		c2.65,0.69,3.8-0.34,3.69-3.06c-0.1-2.48-0.28-5,0.03-7.44C499.98,423.16,498.32,421.87,493.48,421.88z"/>
	<path d="M26.15,409.57c148.21,0.14,296.42,0.13,444.63,0.13c2.71,0,5.41,0,8.12-0.06c1.28-0.03,3.44,0.33,3.33-1.31
		c-0.34-5.21,2.55-10.78-1.52-15.61c0,0,0,0,0,0c0,0,0,0,0,0c-2.25-0.08-4.5-0.22-6.75-0.22c-147.1-0.01-294.2-0.02-441.3-0.02
		c-14.51,0-14.51,0.01-13.51,14.82C20.13,412.05,23.89,409.57,26.15,409.57z"/>
	<path d="M445.73,158.52c-127.26-0.01-254.51-0.03-381.77,0.02c-2.84,0-5.86-0.9-8.55,0.88h0l-0.07,0.04
		c-0.21,0.43-0.35,0.88-0.44,1.34c-1.9,5.95-1.99,9.17,0.46,10.79c0.41,0.69,1.12,0.91,2.32,0.94c1.61,0.39,3.71,0.54,6.38,0.54
		c128.21,0,256.42,0.01,384.63-0.09c2.41,0,5.41,1.54,7.33-1.45h0c0.22-0.34,0.26-0.7,0.11-1.07
		C457.09,158.52,457.09,158.52,445.73,158.52z M453.7,160.49c0.07,0.03,0.15,0.05,0.22,0.08c1.5,0.67,1.57,2.2,1.46,3.94
		C455.02,162.59,454.55,161.32,453.7,160.49z"/>
	<path d="M94.41,188.66c-0.42,0.03-0.82,0.32-1.22,0.49c0,0,0,0,0,0c0,0,0,0,0,0c-2.1,2.08-0.97,4.7-0.97,7.03
		c-0.08,47.8-0.08,95.6,0,143.41c0.01,4.22-0.19,7.97-5.7,7.81c-5.44-0.16-4.05-4.45-4.05-7.54c-0.06-46.9-0.04-93.8-0.04-140.7
		c0-10.62,0-10.43-10.3-10.19c-3.85,0.09-4.86,1.33-4.85,5.07c0.11,48.25,0.02,96.51,0.09,144.76c0.01,8.99,3.56,13.49,12.16,15.01
		c6.93,1.23,13.94,0.68,20.63-1.85c4.44-1.68,6.9-4.91,6.88-9.76c-0.05-13.52-0.14-27.04-0.21-40.56
		c0.21-33.66,0.45-67.33,0.63-100.99C107.5,187.82,107.44,187.82,94.41,188.66z"/>
</g>
</svg>
