<?xml version="1.0" encoding="utf-8"?>
<!-- Generator: Adobe Illustrator 24.0.1, SVG Export Plug-In . SVG Version: 6.00 Build 0)  -->
<svg version="1.1" id="Camada_1" xmlns="http://www.w3.org/2000/svg" xmlns:xlink="http://www.w3.org/1999/xlink" x="0px" y="0px"
	 viewBox="0 0 500 500" style="enable-background:new 0 0 500 500;" xml:space="preserve">
<style type="text/css">
	.st0{fill:#030303;}
	.st1{fill:#FEFEFE;}
	.st2{fill:#060505;}
	.st3{fill:#050404;}
</style>
<g>
	<path d="M414.13,167.89c-0.75-9.79-2.31-19.44-5.09-28.87c-0.3-1.01-0.59-2.01-1.15-2.9c-0.31-0.49-0.7-0.95-1.37-0.82
		c-0.67,0.13-0.88,0.71-0.9,1.28c-0.06,1.71-0.04,3.42-0.06,5.13c-0.23,14.57-3.24,28.5-9.72,41.58
		c-7.53,15.21-18.58,27.02-33.99,34.51c-10.36,5.03-21.37,7.37-32.82,7.44c-4.86,0.03-8.37,1.94-11.23,5.62
		c-1.34,1.72-2.74,3.42-4.26,4.98c-2.37,2.42-5.29,3.59-8.73,3.54c-4.59-0.07-8.85-1.34-12.76-3.6c-4.55-2.63-9.29-3.82-14.49-2.86
		c-2.43,0.45-4.86,0.9-7.26,1.46c-6.26,1.48-11.23-0.35-14.97-5.59c-1.66-2.32-3.21-4.72-4.26-7.39
		c-2.38-6.03-6.69-9.61-13.01-11.23c-16.86-4.32-29.65-14.23-38.64-29.04c-7.7-12.68-11.03-26.63-11.26-41.34
		c-0.27-17.84,4.12-34.64,11.95-50.58c4.2-8.56,9.31-16.55,15.39-24.15c1.74,0.92,3.26,1.71,4.76,2.52
		c4.41,2.37,8.61,1.94,12.57-1.01c1.68-1.25,3.32-2.56,4.88-3.94c6.05-5.32,12.67-9.69,20.21-12.62c1.24-0.48,2.46-1.03,3.64-1.64
		c6.25-3.24,8.64-7.58,7.36-14.5c-1.59-8.62-4.84-16.64-10.4-23.49c-6.57-8.09-15.23-11.17-25.44-9.39
		c-13.56,2.36-23.32,10.19-30.02,21.95c-2.94,5.16-3.97,10.84-3.18,16.81c0.74,5.6,3.02,10.55,6.17,15.17
		c0.85,1.23,1.74,2.43,2.64,3.69c-3.23,2.41-6.41,4.67-9.47,7.07c-13.94,10.95-25.53,23.89-33.54,39.84
		c-8.97,17.85-12.09,36.92-11.57,56.69c0.27,10.19,0.02,20.35-1.44,30.46c-1.12,7.76-1.5,15.52-0.07,23.29
		c1.14,6.18,2.8,12.22,4.61,18.23c0.22,0.73,0.48,1.46,0.53,2.2c0.07,1.22-0.62,1.75-1.8,1.46c-1.13-0.29-2.05-0.99-2.99-1.63
		c-12.23-8.38-21.79-19.23-29.24-31.95c-13.07-22.33-18.88-46.38-16.16-72.22c2.18-20.7,10.2-39.03,23.57-55.01
		c6.7-8,14.42-14.89,22.89-20.95c0.96-0.68,2.3-1.11,2.17-2.74c-1.52-0.68-2.81,0.07-4.03,0.73c-3.26,1.75-6.54,3.49-9.7,5.42
		c-26.9,16.44-45.09,39.63-53.67,70.04c-6.97,24.7-6.75,49.61-1.09,74.52c1.74,7.66,2.69,15.33,2.18,23.19
		c-0.58,8.87-0.27,17.69,1.94,26.35c4.28,16.74,10.42,32.76,18.7,47.93c2.51,4.6,5.49,8.9,8.97,12.84
		c5.21,5.91,11.41,10.32,19.06,12.5c7.38,2.11,14.92,2.96,22.58,2.43c3.79-0.26,7.58-0.7,11.15-2.17c4.77-1.96,6.79-5.03,6.64-10.16
		c-0.04-1.33-0.17-2.64-0.44-3.96c-1.09-5.32-2.99-10.41-4.51-15.6c-1.73-5.95-3.18-11.95-3.36-18.17
		c-0.04-1.52-0.06-3.06,0.15-4.55c0.17-1.22,1.17-1.41,2.08-0.56c0.73,0.68,0.98,1.62,1.36,2.48c5.98,13.46,11.69,27.04,18.29,40.22
		c5.67,11.33,11.95,22.29,20.22,31.99c9.02,10.58,19.86,18.48,33.27,22.62c10.8,3.34,21.86,4.04,33.03,3.02
		c5.11-0.47,10.16-1.59,14.78-4.01c5.67-2.97,7.39-7.18,5.57-13.3c-0.9-3.02-2.4-5.78-3.82-8.58c-1.24-2.46-2.4-4.93-3.2-7.6
		c-2.79-9.41-4.89-18.96-5.9-28.72c-0.96-9.32-0.93-18.62,0.96-27.84c1-4.86,2.5-9.56,5.06-13.86c1.57-2.64,3.44-5.03,6.11-6.66
		c3.68-2.24,7.33-1.8,10.4,1.19c1.59,1.56,2.68,3.44,3.54,5.47c1.66,3.89,2.43,7.99,2.83,12.17c0.85,8.97-0.06,17.85-1.4,26.71
		c-0.93,6.11-2.72,12.06-3.45,18.2c-0.69,5.79-0.91,11.59,0.91,17.24c2.08,6.5,6.45,10.59,13.18,12.11
		c3.96,0.89,7.95,0.81,11.92,0.21c8.56-1.31,16.35-4.73,23.97-8.75c6.94-3.66,12.28-8.86,16.58-15.31
		c4.76-7.15,8.63-14.77,12.03-22.63c7.99-18.47,13.69-37.67,17.93-57.31C413.07,225.05,416.32,196.69,414.13,167.89z M299.52,248.07
		c-2.94,3.3-6.85,4.78-11.09,5.25c-6.75,0.75-13.07-0.62-18.7-4.54c-3.82-2.66-5.63-5.82-5.95-10.4
		c12.74,2.75,25.26,4.96,38.18,4.95C301.86,245.37,300.7,246.74,299.52,248.07z"/>
	<path d="M272.11,447.13c-0.95,1.04-0.99,2.33-1.43,3.44c-5.82,14.65-11.61,29.32-17.45,43.96c-1.31,3.28-3.89,5.06-6.93,4.96
		c-3.13-0.1-5.5-1.96-6.63-5.33c-8.31-24.66-16.61-49.32-24.91-73.99c-0.33-0.99-0.66-1.99-0.89-3c-0.92-4.15,2.05-8.27,6.31-8.39
		c5.9-0.17,11.8-0.15,17.7,0c3.21,0.08,5.2,2.08,6.16,5.08c1.56,4.89,3.09,9.78,4.61,14.68c2.1,6.8,4.18,13.62,6.28,20.42
		c0.08,0.25,0.28,0.46,0.59,0.96c1.17-2.97,2.25-5.73,3.35-8.48c1.76-4.41,3.48-8.84,5.3-13.23c0.54-1.29,0.7-2.47,0.2-3.81
		c-0.74-1.95-1.37-3.95-1.95-5.96c-1.6-5.61,1.47-9.69,7.28-9.72c4.95-0.02,9.9-0.02,14.84,0c4.52,0.01,6.58,1.57,7.92,5.83
		c3.67,11.69,7.37,23.36,11.12,35.22c0.56-0.54,0.68-1.22,0.93-1.85c4.53-11.59,9.04-23.18,13.63-34.75
		c1.44-3.62,4.78-5.45,8.14-4.7c4.44,0.99,6.81,5.31,5.17,9.69c-2.04,5.42-4.22,10.79-6.34,16.18
		c-7.84,19.98-15.67,39.97-23.52,59.95c-1.83,4.67-6.26,6.49-10.32,4.26c-1.86-1.02-2.88-2.64-3.54-4.62
		c-2.95-8.93-5.96-17.83-8.95-26.74C276.57,460.56,274.37,453.93,272.11,447.13z"/>
	<path d="M130.46,450c2.99-7.52,5.83-14.77,8.76-21.98c0.5-1.23,0.52-2.32,0.11-3.54c-0.73-2.16-1.47-4.32-2.05-6.52
		c-1.35-5.15,1.72-9.17,7.04-9.22c5.14-0.05,10.28-0.03,15.42-0.01c4.28,0.02,6.38,1.56,7.7,5.76c3.62,11.51,7.2,23.03,10.79,34.54
		c0.07,0.24,0.18,0.46,0.33,0.83c0.97-1.17,1.05-2.55,1.53-3.76c4.32-10.86,8.61-21.73,12.93-32.58c1.59-3.99,4.87-5.88,8.45-4.97
		c4.32,1.1,6.56,5.27,4.95,9.57c-2.06,5.52-4.28,10.98-6.43,16.46c-7.78,19.81-15.57,39.61-23.3,59.43
		c-0.88,2.25-2.1,4.04-4.37,4.96c-3.86,1.56-7.93-0.37-9.38-4.49c-1.23-3.49-2.35-7.02-3.53-10.54c-4.1-12.22-8.2-24.45-12.33-36.76
		c-0.97,1.04-1.04,2.43-1.52,3.64c-5.8,14.56-11.57,29.14-17.36,43.7c-1.3,3.26-3.85,5.07-6.91,4.98c-3.11-0.09-5.55-1.97-6.67-5.3
		c-8.45-25.12-16.88-50.25-25.32-75.37c-0.76-2.26-0.97-4.46,0.34-6.59c1.4-2.27,3.4-3.52,6.12-3.52c5.23,0.01,10.47-0.01,15.7,0
		c4.26,0.01,6.46,1.59,7.79,5.7c1.58,4.88,3.08,9.78,4.59,14.69c2.01,6.54,4,13.08,6,19.62C129.95,449.08,130.16,449.4,130.46,450z"
		/>
	<path d="M341.39,453.38c0-12.37,0-24.74,0-37.11c0-0.86-0.03-1.72,0.08-2.56c0.32-2.48,2.02-4.39,4.47-4.96
		c0.92-0.21,1.88-0.27,2.83-0.27c18.66-0.02,37.32-0.02,55.98,0c0.95,0,1.91,0.05,2.83,0.24c3.14,0.64,5.33,3.3,5.43,6.46
		c0.09,3.21-1.91,5.94-4.98,6.84c-1.21,0.35-2.44,0.35-3.68,0.35c-10.19-0.01-20.37-0.01-30.56,0c-2.88,0-2.67-0.31-2.67,2.52
		c-0.01,5.42,0.04,10.85-0.03,16.27c-0.02,1.45,0.37,1.95,1.9,1.93c7.23-0.08,14.47-0.08,21.7-0.02c4.29,0.04,7.12,3.43,6.44,7.56
		c-0.41,2.53-2.25,4.55-4.78,5.06c-1.11,0.23-2.27,0.27-3.4,0.27c-6.19,0.02-12.38,0.01-18.56,0.02c-0.76,0-1.52,0.07-2.28,0.08
		c-0.71,0.01-1.01,0.36-1,1.06c0.01,0.67,0,1.33,0,2c0,10.37,0,20.74,0,31.12c0,0.86,0.03,1.72-0.08,2.56
		c-0.44,3.56-2.84,6-6.41,6.1c-5.61,0.15-11.23,0.12-16.85,0.01c-3.85-0.07-6.47-3.41-6.43-7.27
		C341.47,478.89,341.39,466.13,341.39,453.38z"/>
	<path d="M416.5,55.49c0.14,4.19-1.03,8.25-3.17,12.06c-2.91,5.18-6.53,9.8-11.08,13.65c-1.89,1.6-3.92,2.99-6.17,4.06
		c-7.06,3.35-13.24,2-17.95-4.2c-4.07-5.36-8.94-9.83-14.34-13.78c-2.69-1.97-5.51-3.69-8.56-5.07c-6.09-2.76-8.54-7.42-6.95-13.9
		c2.31-9.42,7.15-17.4,15.01-23.22c7.79-5.77,16.64-7.12,25.74-4.25c14.49,4.56,23.37,14.64,27.06,29.34
		C416.52,51.86,416.49,53.57,416.5,55.49z"/>
	<path d="M365.17,169.59c0.05,5.22-0.83,10.24-3.01,14.99c-3.62,7.86-10.13,11.53-18.41,12.48c-4.35,0.5-8-1.16-11.05-4.23
		c-2.23-2.25-3.87-4.92-5.33-7.71c-2.2-4.22-3.88-8.66-5.76-13.02c-1.7-3.93-3.38-7.87-6.18-11.18c-1.01-1.19-0.95-2.48-0.48-3.75
		c2.15-5.8,4.63-11.45,8.44-16.4c0.52-0.68,1.08-1.33,1.67-1.95c5.45-5.86,11.75-7.29,19.14-4.25c8.78,3.62,14.42,10.29,17.93,18.91
		C364.23,158.63,365.23,164.03,365.17,169.59z"/>
	<path d="M222.07,156.73c0.24-10.22,5.36-19.71,14.38-27.2c4.35-3.61,9.09-6.52,14.83-7.49c6.39-1.08,11.63,0.88,15.84,5.69
		c3.07,3.5,4.84,7.69,6.02,12.15c1,3.78,1.54,7.63,1.66,11.54c0.04,1.43-0.31,2.61-1.39,3.56c-3.53,3.11-6.23,6.91-8.99,10.67
		c-2.87,3.91-5.69,7.87-9.26,11.2c-3.72,3.47-7.9,5.94-13.2,5.87c-5.53-0.08-10.19-2.1-13.79-6.35
		C223.79,171.19,222.09,165.08,222.07,156.73z"/>
	<path d="M277.03,202.23c7.98,0.32,15.89,1.2,23.62,3.32c2.44,0.67,4.59,1.79,6.2,3.79c3.3,4.07,1.97,8.5-3.07,9.93
		c-1.81,0.51-3.72,0.7-5.58,1.03c-4.12,0.73-7.75,2.46-10.83,5.3c-0.35,0.32-0.7,0.65-1.07,0.93c-1.53,1.16-2.06,1.07-3.21-0.57
		c-0.65-0.93-1.18-1.95-1.89-2.83c-2.38-2.94-5.3-5.14-8.92-6.35c-1.71-0.57-3.43-1.1-5.11-1.73c-2.3-0.86-3.88-2.47-4.17-4.96
		c-0.3-2.53,1.03-4.35,3.05-5.7c2.29-1.53,4.91-1.95,7.58-2.15C274.74,202.16,275.89,202.23,277.03,202.23z"/>
	<path class="st0" d="M155.95,354.58c-1.05,3.22-2.51,4.48-5.19,4.64c-2.96,0.17-5.25-1.17-6.42-3.77
		c-2.14-4.74,0.47-9.86,5.29-10.39c2.65-0.29,5.08,1.07,5.99,3.39c0.2,0.49,0.62,1.11-0.13,1.44c-0.51,0.22-1.16,0.19-1.59-0.29
		c-0.31-0.35-0.46-0.84-0.79-1.17c-1.34-1.38-3.3-1.63-4.95-0.63c-1.87,1.13-2.29,2.96-2.11,4.94c0.19,2.02,1.06,3.63,3.17,4.28
		c1.67,0.51,3.01,0.07,4.26-1.42C154.3,354.64,154.3,354.64,155.95,354.58z"/>
	<path class="st0" d="M150.19,338.12c-7.82-0.09-14.24,6.22-14.25,14.02c-0.01,7.86,6.32,14.22,14.11,14.17
		c7.74-0.05,13.9-6.26,13.92-14.03C164,344.49,157.89,338.22,150.19,338.12z M150.05,363.8c-6.45,0.01-11.67-5.09-11.73-11.47
		c-0.06-6.47,5.34-11.87,11.77-11.79c6.38,0.08,11.6,5.35,11.58,11.69C161.66,358.64,156.48,363.79,150.05,363.8z"/>
	<path class="st0" d="M398.81,386.84c0.27-0.18,0.48-0.35,0.71-0.49c2.08-1.19,2.8-2.45,2.44-4.29c-0.37-1.89-1.55-2.81-3.96-2.94
		c-1.52-0.08-3.04-0.01-4.56-0.04c-0.81-0.02-1.22,0.25-1.21,1.13c0.02,3.71,0.01,7.42,0.01,11.13c0,0.73,0.35,0.99,1.05,1
		c0.69,0,1.05-0.26,1.04-0.99c-0.02-0.95-0.05-1.9,0.02-2.85c0.05-0.67-0.38-1.62,0.78-1.83c0.95-0.17,1.61,0.19,2.09,1.07
		c0.64,1.17,1.44,2.24,2.09,3.4c0.65,1.16,1.46,1.54,2.82,0.86C400.98,390.22,399.91,388.55,398.81,386.84z M397.11,384.83
		c-2.6,0.01-3.58-1.51-2.77-3.45c0.03-0.08,0.07-0.19,0.14-0.23c1.23-0.71,2.55-0.38,3.81-0.19c0.88,0.14,1.49,0.76,1.54,1.76
		c0.05,0.97-0.43,1.65-1.31,1.94C397.91,384.86,397.22,384.82,397.11,384.83z"/>
	<path class="st0" d="M396.75,371.65c-7.91-0.02-14.07,6.14-14.06,14.06c0.01,7.91,6.19,14.06,14.1,14.02
		c7.85-0.04,13.98-6.29,13.94-14.21C410.68,377.81,404.49,371.67,396.75,371.65z M396.75,397.37c-6.48,0.03-11.78-5.28-11.75-11.75
		c0.03-6.35,5.24-11.53,11.63-11.56c6.49-0.04,11.82,5.28,11.77,11.73C408.35,392.11,403.09,397.34,396.75,397.37z"/>
	<path class="st1" d="M155.95,354.58c-1.05,3.22-2.51,4.48-5.19,4.64c-2.96,0.17-5.25-1.17-6.42-3.77
		c-2.14-4.74,0.47-9.86,5.29-10.39c2.65-0.29,5.08,1.07,5.99,3.39c0.2,0.49,0.62,1.11-0.13,1.44c-0.51,0.22-1.16,0.19-1.59-0.29
		c-0.31-0.35-0.46-0.84-0.79-1.17c-1.34-1.38-3.3-1.63-4.95-0.63c-1.87,1.13-2.29,2.96-2.11,4.94c0.19,2.02,1.06,3.63,3.17,4.28
		c1.67,0.51,3.01,0.07,4.26-1.42C154.3,354.64,154.3,354.64,155.95,354.58z"/>
	<path class="st1" d="M398.81,386.84c0.27-0.18,0.48-0.35,0.71-0.49c2.08-1.19,2.8-2.45,2.44-4.29c-0.37-1.89-1.55-2.81-3.96-2.94
		c-1.52-0.08-3.04-0.01-4.56-0.04c-0.81-0.02-1.22,0.25-1.21,1.13c0.02,3.71,0.01,7.42,0.01,11.13c0,0.73,0.35,0.99,1.05,1
		c0.69,0,1.05-0.26,1.04-0.99c-0.02-0.95-0.05-1.9,0.02-2.85c0.05-0.67-0.38-1.62,0.78-1.83c0.95-0.17,1.61,0.19,2.09,1.07
		c0.64,1.17,1.44,2.24,2.09,3.4c0.65,1.16,1.46,1.54,2.82,0.86C400.98,390.22,399.91,388.55,398.81,386.84z M397.11,384.83
		c-2.6,0.01-3.58-1.51-2.77-3.45c0.03-0.08,0.07-0.19,0.14-0.23c1.23-0.71,2.55-0.38,3.81-0.19c0.88,0.14,1.49,0.76,1.54,1.76
		c0.05,0.97-0.43,1.65-1.31,1.94C397.91,384.86,397.22,384.82,397.11,384.83z"/>
	<path class="st2" d="M155.95,354.58c-1.05,3.22-2.51,4.48-5.19,4.64c-2.96,0.17-5.25-1.17-6.42-3.77
		c-2.14-4.74,0.47-9.86,5.29-10.39c2.65-0.29,5.08,1.07,5.99,3.39c0.2,0.49,0.62,1.11-0.13,1.44c-0.51,0.22-1.16,0.19-1.59-0.29
		c-0.31-0.35-0.46-0.84-0.79-1.17c-1.34-1.38-3.3-1.63-4.95-0.63c-1.87,1.13-2.29,2.96-2.11,4.94c0.19,2.02,1.06,3.63,3.17,4.28
		c1.67,0.51,3.01,0.07,4.26-1.42C154.3,354.64,154.3,354.64,155.95,354.58z"/>
	<path class="st3" d="M398.81,386.84c0.27-0.18,0.48-0.35,0.71-0.49c2.08-1.19,2.8-2.45,2.44-4.29c-0.37-1.89-1.55-2.81-3.96-2.94
		c-1.52-0.08-3.04-0.01-4.56-0.04c-0.81-0.02-1.22,0.25-1.21,1.13c0.02,3.71,0.01,7.42,0.01,11.13c0,0.73,0.35,0.99,1.05,1
		c0.69,0,1.05-0.26,1.04-0.99c-0.02-0.95-0.05-1.9,0.02-2.85c0.05-0.67-0.38-1.62,0.78-1.83c0.95-0.17,1.61,0.19,2.09,1.07
		c0.64,1.17,1.44,2.24,2.09,3.4c0.65,1.16,1.46,1.54,2.82,0.86C400.98,390.22,399.91,388.55,398.81,386.84z M397.11,384.83
		c-2.6,0.01-3.58-1.51-2.77-3.45c0.03-0.08,0.07-0.19,0.14-0.23c1.23-0.71,2.55-0.38,3.81-0.19c0.88,0.14,1.49,0.76,1.54,1.76
		c0.05,0.97-0.43,1.65-1.31,1.94C397.91,384.86,397.22,384.82,397.11,384.83z"/>
</g>
</svg>
