<?xml version="1.0" encoding="utf-8"?>
<!-- Generator: Adobe Illustrator 24.0.1, SVG Export Plug-In . SVG Version: 6.00 Build 0)  -->
<svg version="1.1" id="Camada_1" xmlns="http://www.w3.org/2000/svg" xmlns:xlink="http://www.w3.org/1999/xlink" x="0px" y="0px"
	 viewBox="0 0 500 500" style="enable-background:new 0 0 500 500;" xml:space="preserve">
<g>
	<path d="M473.25,20.38c-17.97-16.36-39.41-22.7-63.32-18.73c-25.06,4.16-43.41,18.13-55.36,40.54
		c-6.06,11.37-12.19,22.7-18.28,34.05c0,0,0,0,0,0c0,0,0,0,0,0c-4.88-9.06-9.88-18.05-14.61-27.18
		c-5.53-10.67-11.62-20.82-20.68-29.03C277.73-1.06,242.27-5.51,214.56,9.32c-15.18,8.12-26.09,20.16-33.83,35.41
		c-5.4,10.64-11.26,21.05-16.91,31.56c-0.33-0.53-0.69-1.05-0.99-1.6c-6-11.23-11.81-22.56-18.01-33.68
		C131.04,16.32,110.01,2.45,81.74,0.77C57.6-0.66,37.25,8.23,21.01,26.16C0.42,48.89-3.88,84.11,10.31,110.98
		c17.95,33.98,35.77,68.02,53.66,102.03c4.42,8.41,8.9,16.79,13.36,25.18c0,0,0,0,0,0c0,0,0,0,0,0c0.2,0.51,0.35,1.04,0.6,1.52
		c17.33,33.02,34.53,66.12,52.09,99.02c6.94,13.01,18.45,19.73,33.12,19.77c14.66,0.04,26.21-6.58,33.24-19.55
		c16.7-30.79,33.03-61.78,49.54-92.67c1.36-2.54,2.42-5.27,4.29-7.52c0.13,0.28,0.24,0.58,0.38,0.85
		c17.61,33.05,35.1,66.16,52.89,99.11c7.06,13.07,18.59,19.83,33.35,19.78c15.05-0.06,26.49-7.16,33.61-20.55
		c10.32-19.41,20.48-38.9,30.68-58.37c7.21-13.76,14.39-27.54,21.59-41.31c0,0,0,0,0,0c0,0,0,0,0,0c0.35-0.61,0.73-1.21,1.06-1.84
		c21.01-40,41.91-80.06,63.07-119.98c5.98-11.27,10.48-22.88,11.04-35.71C498.93,56.88,490.93,36.48,473.25,20.38z"/>
	<path d="M209.88,387.94c-2.36,0-5.28-0.77-6.92,0.33c-1.77,1.2-1.55,4.4-2.05,6.75c-5.4,25.27-13.74,49.92-16.15,75.55
		c-0.88-4.55-1.61-9.45-2.79-14.23c-5.53-22.41-12.02-44.56-17.98-66.86c-0.39-1.46-1.1-1.57-2.3-1.56
		c-6.38,0.04-12.76,0.08-19.14-0.02c-1.59-0.02-2.1,0.53-2.47,2c-1.53,6.09-3.26,12.13-4.85,18.2
		c-5.12,19.6-11.06,38.98-15.23,58.82c-0.13,0.64,0.06,1.5-1.03,1.72c-0.41-5.94-0.9-11.88-2.24-17.67
		c-4.74-20.51-9.62-40.98-14.4-61.48c-0.29-1.26-0.84-1.59-2.08-1.58c-6.61,0.06-13.23,0.06-19.85,0c-1.47-0.01-1.87,0.17-1.42,1.81
		c2.21,8.1,4.25,16.25,6.37,24.38c6.99,26.74,14.01,53.47,20.94,80.23c0.49,1.91,1.29,2.41,3.19,2.36
		c5.9-0.14,11.81-0.11,17.72-0.01c1.59,0.03,2.27-0.34,2.73-2.01c2.79-10.22,5.8-20.38,8.62-30.6c3.89-14.07,8.25-28.02,11.7-42.2
		c0.85-3.51,1.23-7.14,1.83-10.71c0.46,3.81,0.96,7.57,1.97,11.19c6.73,24.29,13.57,48.54,20.32,72.82c0.35,1.27,0.98,1.5,2.16,1.49
		c6.22-0.05,12.45-0.12,18.66,0.04c1.81,0.05,2.23-0.74,2.6-2.16c7.05-27.04,14.13-54.08,21.19-81.12
		c2.2-8.42,4.38-16.85,6.57-25.26c-0.28-0.1-0.43-0.19-0.58-0.19C219.96,387.95,214.92,387.93,209.88,387.94z"/>
	<path d="M322.89,391.65c-13.55-5.89-27.65-7.74-42.2-5.45c-15.1,2.39-27.84,9.15-37.13,21.57c-9.26,12.39-12.28,26.51-10.66,41.68
		c1.44,13.44,6.94,25.05,16.81,34.42c19.17,18.18,51.41,20.06,73.27,7.77c1.23-0.69,1.55-1.45,1.54-2.75
		c-0.04-4.96,0.03-9.92,0.05-14.88c0.01-2.29,0-4.58,0-7.19c-11.59,9.87-22.44,13.44-37.1,12.4c-13.73-0.97-24.58-9.36-28.82-22.47
		c-3.05-9.4-3.01-18.9-0.16-28.33c1.83-6.05,5-11.39,9.94-15.46c11.34-9.34,24.29-10.63,38.03-7.16c6.83,1.72,12.56,5.6,18.15,10.34
		c0.15-0.71,0.26-1,0.27-1.29c0.19-6.45,0.24-12.9,0.63-19.34C325.66,393.23,324.75,392.46,322.89,391.65z"/>
	<path d="M401.16,439.48c-6.23-4.18-13.18-6.91-20.01-9.9c-3.24-1.42-6.45-2.94-9.06-5.41c-5.35-5.07-4.71-13.59,1.31-17.85
		c7.93-5.6,20.12-3.35,25.53,4.71c0.53,0.79,0.76,2.23,2.25,0.73c3.73-3.73,7.54-7.37,11.42-10.95c1.1-1.01,0.91-1.62,0.09-2.64
		c-6.1-7.55-13.92-11.8-23.63-12.61c-11.03-0.92-21.51,0.63-30.84,7.01c-14.71,10.08-16.88,30.51-4.57,43.16
		c4.99,5.13,11.22,8.55,17.49,11.87c5.89,3.11,12.07,5.67,17.78,9.16c9.39,5.75,6.46,18.1-1.35,21.99
		c-10.57,5.27-23.9,1.26-29.57-9.18c-0.62-1.13-0.91-1.6-1.98-0.35c-3.59,4.18-7.26,8.29-10.96,12.36c-0.82,0.9-0.69,1.59-0.11,2.46
		c1.61,2.44,3.43,4.7,5.67,6.6c8.1,6.83,17.81,8.54,27.9,8.85c4.97-0.1,9.81-0.55,14.54-1.87c22.17-6.18,27.07-26.09,23.07-39.97
		C413.79,449.51,407.97,444.05,401.16,439.48z"/>
</g>
</svg>
