<?xml version="1.0" encoding="utf-8"?>
<!-- Generator: Adobe Illustrator 24.0.1, SVG Export Plug-In . SVG Version: 6.00 Build 0)  -->
<svg version="1.1" id="Camada_1" xmlns="http://www.w3.org/2000/svg" xmlns:xlink="http://www.w3.org/1999/xlink" x="0px" y="0px"
	 viewBox="0 0 500 500" style="enable-background:new 0 0 500 500;" xml:space="preserve">
<g>
	<path d="M493.6,215.95c-1.08-2.48-2.45-6.45-5.23-5.41c-3.07,1.15-0.14,4.48,0.51,6.62c3.18,10.4,2.82,20-5.36,29.06
		c-1.89-3.18-2.59-6.97-5.9-7.76c-5.7-1.36-5.86-5.21-5.54-9.8c0.26-3.58,0.94-8.18-3.09-9.63c-4.45-1.6-4.05,3.66-5.79,5.91
		c-1.63,2.12-3.71,3.78-6.38,3.82c-3.21,0.04-2.48-2.84-2.87-4.78c-0.41-1.98-1.46-3.69-3.1-4.7c-4.68-2.9-4.05-5.84-0.47-9.11
		c0.77-0.71,1.3-1.72,1.74-2.67c0.87-1.8,1.36-3.78-0.19-5.36c-1.85-1.89-2.99,0.27-4.26,1.14c-1.67,1.15-3.54,2.01-5.37,1.06
		c-2.32-1.21-1.71-3.68-1.62-5.73c0.67-15.46-8.89-23.06-24.03-19.05c-28.99,7.7-49.05,33.83-48.9,63.69
		c0.14,30,20.23,56.03,49.25,63.43c12.46,3.17,24.89,2.92,38.29-1.65c-4.25-1.37-10.03-1.42-9.67-3.43c0.96-5.43-3.46-5.8-5.58-8.21
		c-1.78-2.04-2.39-4.31-2.59-6.82c1.63,1.27,3.99,1.94,5.26,0.99c6.38-4.8,13.2-3.48,20.15-2.32c1.83,0.31,3.58-0.28,3.13-2.76
		c-0.78-4.39,1.86-5.17,5.26-5.09c2.24,0.05,4.23-0.62,6-1.87c2.75-1.98,5.61-2.35,8.24-0.13c3.39,2.85,4.99,1.39,6.61-1.94
		C501.38,254.48,501.99,235.33,493.6,215.95z M438.69,259.9c0,5.43-1.27,10.2-3.51,15.12c-1.65,3.63-0.55,7.8,1.99,11.22
		c-0.05-0.01-0.09-0.04-0.14-0.05c-0.76-0.32-1.53-0.63-2.3-0.92c-0.4-0.12-0.8-0.19-1.21-0.24c-0.31-0.05-0.62-0.08-0.92-0.1
		c-1-0.08-2.03-0.09-3.01-0.22c-0.19-0.03-0.38-0.06-0.58-0.1c-0.01,0.47-0.99,0.64-2.01,0.83c-5.14-1.4-10.34-2.66-15.43-4.22
		c-4.54-1.4-8.71-3.23-10.65-8.33c-1.21-3.17-4.7-4.09-7.47-5.7c-3.26-1.9-6.11-4.14-0.67-7.16c3.54-1.95,0.99-3.32-0.77-4.45
		c-3.62-2.3-7.25-4.49-9.83-8.08c-2.5-3.48-3.4-7.3-2.94-11.49c0.28-2.54,1.51-4.21,4.23-3.28c5.14,1.73,4.67-0.87,3.99-4.46
		c-1.74-9.18,2.41-16.11,8.89-22.08c1.92-1.77,3.28-2.39,4.86,0.47c1,1.82,2.46,4,4.23,4.67c7.75,2.94,6.21,7.58,3.25,13.12
		c-1.54,2.89-4.1,7.2-0.87,9.31c3.62,2.36,5.17-2.99,7.67-4.86c1.33-0.99,2.17-2.63,3.37-3.82c1.53-1.53,3.27-2.98,5.64-2.1
		c2.13,0.77,2.55,2.72,2.63,4.71c0.09,2.71,0.86,4.94,3.28,6.53c3.99,2.62,3.39,5.39,0.09,8.22c-3.09,2.67-6.09,5.46-6.09,10.04
		c0,1.55,0.21,3.16,1.77,3.82c1.4,0.6,2.39-0.58,3.23-1.49c2.21-2.4,4.86-4,7.91-2.33C440.5,254.2,438.69,257.2,438.69,259.9z"/>
	<path d="M107.52,196.82c-1.02-4.86-4.14-7.67-9.4-8.78c8.58-3.62,15.95-2.07,20.98,4.16c9.51,11.78,18.94,23.63,28.47,35.39
		c1.53,1.89,2.62,4.3,5.7,5.55c0-12.65,0.07-24.93-0.04-37.2c-0.04-4.43-2.31-7.44-6.73-9.07c5.92,0,11.85,0,17.77,0
		c-8.22,2.37-7.59,8.93-7.57,15.28c0.05,13.87,0.05,27.74-0.04,41.6c-0.01,1.54,1.05,3.81-1.02,4.54c-2,0.71-2.78-1.56-3.78-2.79
		c-12.27-15.03-24.45-30.13-36.78-45.11c-1.19-1.44-1.71-4.25-4.67-3.51C109.44,197.57,108.47,197.56,107.52,196.82z"/>
	<path d="M199.39,212.49c5.6-4.6,9.99-9.52,13.18-15.47c1,0.8,1.6,1.08,1.57,1.29c-1.03,8.57,1.16,13.94,11.33,11.7
		c1.09-0.24,2.19,0.5,2.15,1.75c-0.04,1.36-1.26,1.39-2.34,1.53c-3.49,0.46-8.49-1.78-10.14,1.18c-1.74,3.12-0.62,7.84-0.71,11.86
		c-0.05,2.56-0.02,5.11-0.01,7.67c0.01,11.83,3.55,14.08,14.16,9.03c-1.8,4.9-6.53,7.72-11.97,7.02c-5.87-0.75-9.43-4.18-9.83-10
		c-0.45-6.58-0.47-13.21-0.16-19.8C206.86,215.39,206.49,211.75,199.39,212.49z"/>
	<path d="M301.67,247.87c-6.85,1.3-13.19,1.32-19.9,0.18c6.09-1.33,6.45-5.5,6.27-10.21c-0.19-5.11-0.09-10.23-0.03-15.35
		c0.07-5.53,0.9-11.52-8.83-10.4c5.19-3.05,9.72-2.67,14.05-2.76c4.66-0.1,0.95,4.76,3.53,6.4c2.99-1.92,6.02-4.23,9.37-5.93
		c2.89-1.46,5.9-0.57,8.38,1.41c2.12,1.7,0.31,3.48-0.23,5.18c-0.8,2.49-2.15,2.28-4.4,1.46c-10.3-3.76-14.17-0.92-14.18,10.06
		c0,3.62,0.15,7.26-0.04,10.87C295.44,243.24,296.11,246.92,301.67,247.87z"/>
	<path d="M352.23,220.89c-1.46-5.62-6.98-10.43-13.37-11.47c-8.48-1.36-16.3,2.67-20.17,10.38c-4.16,8.31-2.86,18.23,3.22,24.4
		c6.03,6.13,16.09,7.67,24.16,3.68c-0.05-2.23-1.46-1.65-2.76-1.32c-11.02,0.49-18.14-6.04-18.88-17c-0.21-3.09,0.63-4.19,3.77-4.12
		c6.84,0.17,13.67-0.1,20.51,0.1C352.48,225.66,353.06,224.08,352.23,220.89z M344.68,221.73c-0.87,3.23-4.39,1.15-6.68,1.64
		c-1.01,0.21-2.12,0.03-3.18,0.04c-1.28,0-2.59,0.17-3.84-0.04c-2.14-0.35-5.32,1.4-6.22-1.45c-0.76-2.39,0.94-4.94,2.63-6.93
		c3.12-3.71,9.27-4.34,13.34-1.41C343.52,215.59,345.54,218.51,344.68,221.73z"/>
	<path d="M200.57,248.2c-4.71-0.94-9.98,4.36-13.53-2.28c-1-0.77-1.64-1.73-1.76-2.98c0-0.06-0.01-0.14,0-0.22
		c-0.01-0.05-0.01-0.1-0.01-0.15c0.01-0.13,0.03-0.24,0.03-0.37c0.13,0.17,0.27,0.32,0.42,0.47c1-2.6,0.42-5.36,0.81-8
		c0.4-2.84-0.1-4.4-1.39-4.96c-0.12-1.06-0.26-2.12-0.44-3.18c3.78-4.44,2.14-8.3-1.71-11.37c-4.54-3.62-9.29-1.67-15.65,5.89
		c-0.72-5.73,3.76-10.69,10.57-11.7c7.99-1.19,14.92,2.85,15.88,10.13c0.8,6.07,0.47,12.29,0.51,18.45
		C194.35,242.48,194.26,246.95,200.57,248.2z"/>
	<path d="M256.23,245.43c6.29-2.71,8.85-7.38,7.87-14.23c-0.42-2.93-0.29-5.98-0.02-8.94c0.5-5.59-0.17-10.21-8.44-10.51
		c5.16-2.78,9.49-2.05,13.61-2.48c3.26-0.34,2.43,2.25,2.45,3.96c0.07,7.89,0.14,15.78,0,23.66c-0.09,4.95-0.55,9.9,6.15,11.97
		c-3.89,0.22-7.79,0.46-11.68,0.64c-0.83,0.04-1.93-0.1-1.93-1.16c0.01-7.2-3.36-1.25-5.17-1.36
		C257.91,246.83,256.82,246.6,256.23,245.43z"/>
	<path d="M256.23,245.43c1.17,0.09,2.26,0.34,2.83,1.54c-4.29,3.95-9.26,4.02-14.22,1.94c-5.07-2.13-7.03-6.62-7.2-11.85
		c-0.17-5.32-0.12-10.64-0.03-15.96c0.08-4.74,0.42-9.54-8.44-8.67c5.64-3.62,9.96-2.76,14-3.12c2.76-0.25,2.03,2.19,2.05,3.69
		c0.08,6.81,0.01,13.62,0.05,20.44C245.33,242.66,247.2,244.68,256.23,245.43z"/>
	<path d="M20.5,251.97c-10.45,4.21-12.98,12.85-12.35,22.88c0.62,9.85,4.37,17.78,14.89,20.66c1.24,1.79,4.75-0.99,5.12,2.54
		c-13.9,2-24.59-4.71-27.03-16.98c-2.9-14.6,4.45-27.2,17.86-30.6C20.42,250.04,20.77,250.69,20.5,251.97z"/>
	<path d="M482.2,222.35c-2.79-13.33-6.77-21.58-13.77-27.96c-0.67,5.98-2.58,11.16-6.29,15.83c2.21-10.77,4.54-21.5-8.15-27.66
		c-0.09-2.37,1.18-1.84,2.52-1.18c16.72,6.08,24.67,18.81,27.13,35.72C483.63,218.98,485.56,221.38,482.2,222.35z"/>
	<path d="M91.18,272.02c1.62-0.99,3.19-2.07,4.87-2.95c7.27-3.81,14.71,0.14,15.38,8.29c0.31,3.82,0.16,7.68,0.06,11.52
		c-0.08,3.29-0.01,6.4,3.76,8.39c-4.49,0-8.98,0-13.24,0c2.82-3.23,4.8-19.02,2.7-23.09c-2.11-4.08-6.68-3.83-12.49,0.66
		C91.02,274.23,90.15,273.47,91.18,272.02z"/>
	<path d="M269.09,272.35c3.76-4.22,8.31-6.13,13.69-3.7c5.03,2.27,5.84,6.88,5.61,11.87c-0.14,2.98,0.06,5.97-0.04,8.96
		c-0.1,3.15,0.4,5.9,3.79,7.77c-4.47,0-8.94,0-13.19,0c6.4-6.57,4.16-15.06,2.5-22.44c-1.32-5.88-6.88-3.92-10.99-1.27
		C269.73,273.45,269.27,273.06,269.09,272.35z"/>
	<path d="M21.91,197.04c0.4,12.2-1.98,24.61,1.75,36.75c-2.8,0-6.7,0-9.69,0c4-12.05,2.65-24.41,1.21-36.77
		C17.67,194.02,19.47,194.02,21.91,197.04z"/>
	<path d="M183.54,275.48c-0.15,5.09-0.14,10.19-0.51,15.26c-0.23,3.18,1.68,4.74,3.76,6.73c-4.44,0-8.89,0-13.63,0
		c6.68-6.5,5.4-24.86-1.78-28.31c2.01-1.14,4.07-1.08,6.18-0.73C184.8,266.33,182.17,272.6,183.54,275.48z"/>
	<path d="M91.18,272.02c0.35,0.94,0.7,1.89,1.05,2.83c-0.89,7.57-3.71,15.44,2.8,22.51c-3.98,1.11-8.7,0.16-15.03,0.44
		c7.37-3.95,5.33-9.74,5.06-14.71c-0.26-4.8,3.25-11.03-4.17-14.23C84.18,271.06,90.42,262,91.18,272.02z"/>
	<path d="M269.09,272.35c0.46,0.4,0.91,0.8,1.37,1.19c-4.29,6.44-3.41,19.39,2.07,23.83c-5,0-9.55,0-15.18,0
		c7.18-3.3,5.09-9.19,4.86-14.18c-0.23-4.79,3.04-10.93-5.39-14.18C262.36,268.48,267.22,265.05,269.09,272.35z"/>
	<path d="M107.52,196.82c0.97,0.02,1.93,0.04,2.9,0.05c0.1,12.97,0.21,25.93,0.31,38.9c0.06,8.14,0.68,9.1,7.71,11.74
		c-3.88,2-12.55,2.2-19.38,0.11c8.11-1.36,8.24-6.98,8.28-12.55C107.44,222.32,107.46,209.57,107.52,196.82z"/>
	<path d="M187.04,245.91c-1.46,0.85-2.9,1.73-4.37,2.54c-6.21,3.43-13.51,1.4-16.37-4.53c-2.67-5.53-0.4-10.44,6.3-13.79
		c1.72-0.86,3.4-1.69,5.4-1.4c1.24-0.65,2.35-0.73,3.07,0.74c-0.03,0.18-0.06,0.35-0.12,0.51c-0.03,0.05-0.04,0.1-0.05,0.15
		c-0.05-0.03-0.1-0.06-0.15-0.09c-6.97,3.35-9.21,7.31-6.82,12.01c2.21,4.34,5.41,4.59,11.37,0.87c0-0.06-0.01-0.14,0-0.22
		c0.06,0.04,0.12,0.06,0.17,0.12c0.12,0.08,0.21,0.18,0.28,0.31c0,0.01,0.01,0.01,0.01,0.03c0.03,0.08,0.08,0.17,0.15,0.24
		C186.27,244.25,186.66,245.08,187.04,245.91z"/>
	<path d="M219.26,289.13c-1.07,2.93-2.14,5.85-3.54,9.7c-7.54-9.46-6.94-22.19-16.41-29.92c4.47,0,8.59,0,12.65,0
		c-1.91,5.01,1.35,15.28,6.15,19C219.2,287.65,219.87,287.78,219.26,289.13z"/>
	<path d="M43.23,191.52c2.77-1.33,4.51-1.03,4.4,2.61c-0.09,2.99-0.02,5.98-0.02,8.97c0,2.77,0,5.54,0,8.2
		c1.7,1.07,2.44-0.42,3.47-0.93c7.23-3.51,12.85-0.26,13.25,7.77c0.14,2.77,0.13,5.55,0.01,8.32c-0.12,2.84,0.16,5.45,4.01,7.49
		c-4.73,0-8.12,0-11.74,0c4.46-6.24,3.65-13.34,1.58-19.42c-1.7-4.99-6.31-2.12-9.54,0.18c-4.21-0.45-4.04-3.71-4.27-6.68
		C43.97,202.52,45.22,196.91,43.23,191.52z"/>
	<path d="M342.22,291.43c-0.9,3.03-1.79,6.05-2.69,9.08c-1.18,0.2-1.82-0.08-1.28-1.42c-4.73-10.17-6.83-21.67-15.07-30.29
		c4,0,8.11,0,12.47,0c-3.75,7.59,3.19,12.58,4.13,18.96C340.48,289.06,342.97,289.17,342.22,291.43z"/>
	<path d="M252.73,295.17c-3.23,3.51-3.95,3.34-7.75-1.99c-0.01-0.06-0.04-0.12-0.04-0.18c-0.05-0.17-0.09-0.33-0.13-0.49
		c0.33-0.04,0.68-0.06,1.05-0.1c0.04-3.16,0.08-6.3,0.12-9.45c-0.47,0.13-0.95,0.26-1.42,0.38c0.01-0.13,0.03-0.26,0.04-0.38
		c0.22-1.14,0.8-2.13,1.41-3.09c-0.73-9.02-2.16-9.52-15.05-5.14c3.25-5.63,7.7-8,13.82-6.27c6.14,1.74,6.98,6.61,6.99,12.15
		C251.78,285.45,250.83,290.43,252.73,295.17z"/>
	<path d="M133.06,295.1c2.09-6.91-2.76-8.89-7.68-10.91c-3.77-1.55-6.87-3.92-6.41-8.49c0.38-3.83,2.14-6.91,6.62-7.24
		c0.33,0.31,0.45,0.62,0.35,0.94c-0.1,0.32-0.21,0.48-0.31,0.48c-3.59,3.22-2.43,5.86,1.11,8.01c1.97,1.2,4.17,2.02,6.18,3.17
		c7.05,4.03,7.55,10.22,1.33,15.6C133.02,296.76,132.56,296.29,133.06,295.1z"/>
	<path d="M68.34,297.09c-1.17,0.45-1.85-0.09-2.28-1.12c-0.03-0.1-0.04-0.22-0.05-0.32c-0.01-0.14-0.01-0.28,0-0.42
		c0.19,0.05,0.4,0.13,0.59,0.19c1.05-1.32,2.32-2.54,3.1-4.02c5.57-10.45-0.05-21.67-10.76-21.59c-0.06,0.08-0.13,0.15-0.18,0.23
		c-0.03-0.03-0.04-0.04-0.04-0.05c-0.31-0.53-0.26-1.04,0.17-1.55c8.33-1.86,15.55,1.9,18.22,9.49
		C79.86,285.8,76.45,293.24,68.34,297.09z"/>
	<path d="M311.53,297.97c-9,0.85-14.02-1.59-16.64-8.09c-2.94-7.28-0.58-14.58,6.45-19.99c1.58-0.88,2.74-0.98,2.61,1.37
		c-6.85,8.56-5.48,17.41,3.76,24.27C308.47,297.15,311.82,294.71,311.53,297.97z"/>
	<path d="M88.2,232.75c-4.93,4.08-10.69,2.94-15.07-2.63c-4.77-6.03-3.26-13.93,3.67-19.28c1.13-0.59,1.54,0.09,1.83,0.95
		c0.01,0.04,0.03,0.08,0.04,0.12c-0.01,0.06-0.01,0.13-0.03,0.19c-0.17-0.04-0.35-0.06-0.51-0.09c-0.71,1.83-4.07,4.45-0.67,5.39
		c3.4,0.91,7.88,2.12,11.21-1.37c-0.32-0.15-0.49-0.35-0.5-0.59c0.08-0.01,0.14-0.01,0.22-0.01h0.08c1.92,0.35,3.19,1.51,4.02,3.23
		c-4.3,1.76-8.76,0.58-13.14,0.71c-3.35,0.09-4.03,1.42-3.3,4.32C77.59,229.84,81.33,233.18,88.2,232.75z"/>
	<path d="M160.22,298.01c-7.3,1.35-13.49-0.33-17.07-7.25c-3.41-6.63-2.62-13.01,2.64-18.57c1.69-0.44,2.24,0.59,2.71,1.74
		c-0.3,0.44-0.56,0.9-0.82,1.4c0.01,1.04,0.04,2.08,0.05,3.1c0.31-0.06,0.63-0.12,0.95-0.15c-0.03,0.09-0.05,0.19-0.08,0.28
		c-0.3,0.63-0.64,1.23-1.03,1.81c-0.26,6.94,2.08,12.39,8.81,15.3c0.18,0.28,0.44,0.41,0.76,0.46
		C158.41,296.37,160.45,295.33,160.22,298.01z"/>
	<path d="M58.94,269.81c-0.06,0.08-0.13,0.15-0.18,0.23c-0.03-0.03-0.04-0.04-0.04-0.05c-8.36,6.89-8.81,16.96-1.13,25.81
		c0.1-0.06,0.22-0.14,0.32-0.19c0.05,0.09,0.1,0.19,0.15,0.28v0.01c-0.55,1.49-1.5,1.68-2.67,1.19c-0.17-0.06-0.32-0.14-0.47-0.22
		c-7.23-4.03-10.15-9.77-8.68-17.11c1.24-6.3,5.66-10.24,12.65-11.33C58.92,268.9,58.93,269.35,58.94,269.81z"/>
	<path d="M43.23,191.52c4.12,0.79,2.49,4.1,2.9,6.54c0.93,5.53-2.37,11.71,2.53,16.64c-1.96,5.59-1.04,11.3-0.64,16.97
		c0.06,0.88,1.28,2.23-0.57,2.29c-2.45,0.08-5.12,1.06-7.27-0.63c-0.47-0.37,0.93-1.54,1.84-2.01c1.95-5.32,0.84-10.83,0.81-16.23
		c-0.04-6.94,1.02-13.94-0.63-20.83c-0.98-0.68-1.97-1.35-2.95-2.03C40.42,191.13,41.82,191.26,43.23,191.52z"/>
	<path d="M256.35,296.37c-1.31,2.32-3.21,1.3-4.71,1.39c-4.07,0.27-7.94-1.37-12.33,0.3c-3.86,1.46-7.65-1.09-8.74-5.41
		c-1.05-4.22,0.46-7.56,5.09-8.79c1.22-0.63,2.32-0.69,3.13,0.63c0.03,0.13,0.06,0.26,0.06,0.38c0.03,0.08,0.03,0.17,0.01,0.24
		c0,0.03-0.01,0.05-0.01,0.08c-0.14-0.05-0.3-0.13-0.45-0.21c-2.44,2.58-3.57,5.53-0.92,8.43c2.63,2.87,5.08,1.17,7.45-0.4
		c-0.05-0.17-0.09-0.33-0.13-0.49c0.33-0.04,0.68-0.06,1.05-0.1c1.51,2.85,2.73,6.44,6.86,2.76
		C253.9,295.56,255.07,295.94,256.35,296.37z"/>
	<path d="M451.85,294.45c6.03-1.01,12.11,0.85,17.57-2.1c0.46-2.11-2.56-1.22-2.59-3.35c6.62,1.62,11.42-3.04,17.44-5.38
		C478.34,295.07,463.93,299.77,451.85,294.45z"/>
	<path d="M183.54,275.48c-1.84-2.48-0.5-7.65-5.98-7.05c4.12-2.14,5.91-0.48,5.82,4.18c2.74-1.67,5.01-3.24,7.43-4.47
		c2.38-1.21,4.69-0.36,6.43,1.37c1.32,1.31,0.13,2.84-0.55,4.1c-1.53,2.83-3.44,0.64-4.87,0
		C188.44,272.09,186.1,274.05,183.54,275.48z"/>
	<path d="M342.22,291.43c-0.7-1.3-2.91-1.59-2.43-3.67c4.88-4.06,7.15-13.91,4.29-18.7c1.46-1.24,3.21-0.58,4.82-0.67
		c1.47-0.08,2.96,0.11,5.63,0.25C345.8,274.43,347.07,284.43,342.22,291.43z"/>
	<path d="M37.77,251.68c2.15-1.21,4.5-2.69,4.28,1.72c-0.17,3.39,0.73,6.92-0.98,11.01c-2.73-4.24-4.08-8.57-7.9-11.01
		C33.54,249.73,36.05,251.76,37.77,251.68z"/>
	<path d="M133.06,295.1c0.39,0.51,0.79,1.03,1.18,1.54c-4.78,4.72-10.22-0.76-15.39,0.63c-0.64,0.17-0.21-5.53,0.11-8.77
		C122.76,293.22,125.76,298.89,133.06,295.1z"/>
	<path d="M28.16,298.05c-1.06-2.16-4.05-0.42-5.12-2.54c8.19,0.31,14.57-2.92,19.12-10.7C42.44,292.03,37.03,296.76,28.16,298.05z"
		/>
	<path d="M334.82,313.68c-1.45,3.71-3.57,6.83-7.76,7.65c-1.58,0.31-3.81,0.46-3.88-1.97c-0.04-1.75,0.22-4.18,2.98-3.86
		c3.2,0.38,5.23-1.19,7.04-3.44C334.54,311.81,335.21,312.22,334.82,313.68z"/>
	<path d="M21.91,197.04c-2.24-2.06-4.48-2.2-6.73-0.02c-1.67-0.11-3.33-0.22-5-0.33c-1.27-1.71-4.7,1.22-5.09-2.37
		c9.4,0,18.8,0.01,28.2,0.01c0.19,3.14-2.96,0.95-3.82,2.4C26.95,196.84,24.43,196.94,21.91,197.04z"/>
	<path d="M168.16,277.28c-1.41,2.95-2.16,2.99-5.8,0.35c-0.13-0.21-0.26-0.41-0.4-0.6c0.31-0.22,0.6-0.47,0.9-0.77
		c-0.81-2.87-2.57-4.96-5.2-6.34c-0.06,0.04-0.14,0.08-0.21,0.12c-0.03-0.04-0.05-0.09-0.05-0.14c-0.05-0.13-0.1-0.26-0.14-0.38
		c0.24-0.95,0.69-1.53,1.59-1.31h0.01c0.14,0.05,0.3,0.1,0.44,0.15C164.16,269.45,167.38,272.16,168.16,277.28z"/>
	<path d="M42.2,194.26c2.17,1.55,1.35,3.86,1.37,5.87c0.08,8.49,0.09,16.98-0.01,25.46c-0.02,1.98,0.88,4.35-1.55,5.73
		C42.08,218.97,42.14,206.61,42.2,194.26z"/>
	<path d="M313.17,268.37c0.21,0.01,0.43,0.06,0.64,0.03c8.2-1.45,7.66,3.47,6.34,9.48c-3.49-2.72-4.82-7.84-9.8-8.17
		C310.34,267.23,311.9,268.11,313.17,268.37z"/>
	<path d="M125.62,269.87c-0.01-0.47-0.02-0.94-0.04-1.42c3.37-2.4,6.85,0.22,10.2,0.29c2.23,0.05,0.86,4.53,1.01,8.44
		C133.3,272.99,131.11,268.42,125.62,269.87z"/>
	<path d="M37.77,251.68c-1.57,0.47-3.59-0.24-4.6,1.73c-4.09-1.72-8.39-1.52-12.68-1.44c-0.5-0.5-1-1-1.51-1.5
		C25.45,247.84,31.59,250.02,37.77,251.68z"/>
	<path d="M219.26,289.13c-0.38-0.41-0.77-0.81-1.15-1.22c0.67-5.79,5.25-10.48,4.69-16.62c2.57-1.12,2.06,1.32,2.75,2.37
		C223.9,279.01,222.11,284.28,219.26,289.13z"/>
	<path d="M185.9,243.41c-0.08-0.08-0.13-0.17-0.15-0.24c0-0.01-0.01-0.01-0.01-0.03c-0.05-0.14-0.06-0.31-0.01-0.47
		c1-2.6,0.42-5.36,0.81-8c0.4-2.84-0.1-4.4-1.39-4.96c-0.96-0.44-2.39-0.31-4.19,0.3c-0.03,0.05-0.04,0.1-0.05,0.15
		c-0.05-0.03-0.1-0.06-0.15-0.09c-0.91-0.45-1.83-0.89-2.75-1.32c2-1.45,4.32-1.92,6.71-2.22
		C189.5,231.84,187.73,237.63,185.9,243.41z"/>
	<path d="M5.1,194.33c1.7,0.79,3.39,1.58,5.09,2.37c-3.42,0.46-6.29,1.83-8.02,5.85C0.57,193.87,0.67,193.63,5.1,194.33z"/>
	<path d="M159.31,268.35c-0.54,0.53-1.09,1.04-1.64,1.57c-0.06,0.04-0.14,0.08-0.21,0.12c-0.03-0.04-0.05-0.09-0.05-0.14
		c-3.96-0.47-6.88,0.99-8.92,4.04c-0.3,0.44-0.56,0.9-0.82,1.4c-0.31-1.24-0.49-2.55-1.89-3.14c3.57-4.13,7.84-5.76,13.07-3.99h0.01
		C159.01,268.25,159.17,268.3,159.31,268.35z"/>
	<path d="M164.69,280.19c-5.71,0.17-11.42,0.14-17.13,0.18c0.05-0.64,0.1-1.28,0.15-1.94c0.31-0.06,0.63-0.12,0.95-0.15
		c4.41-0.5,9.24,1.78,13.29-1.26c0.31-0.22,0.6-0.47,0.9-0.77c1.54,1.5,2.81,4.48,5.3,1.03
		C169.58,281.28,166.41,280.14,164.69,280.19z"/>
	<path d="M334.82,313.68c-0.54-0.54-1.08-1.08-1.62-1.62c1.62-4.35,2.51-8.98,5.06-12.97c0.43,0.47,0.85,0.95,1.28,1.42
		C338.61,305.14,337.17,309.57,334.82,313.68z"/>
	<path d="M346.08,247.88c-0.92-0.44-1.84-0.89-2.76-1.33c3.17-2.33,6.34-4.66,10.88-7.99C352.71,244.1,350.16,246.62,346.08,247.88z
		"/>
	<path d="M29.47,196.74c1.27-0.8,2.55-1.6,3.82-2.4c3.73-0.24,3.73-0.24,3.36,7.27C34.27,199.64,32.54,197.07,29.47,196.74z"/>
	<path d="M482.2,222.35c1.93-1.35,0.72-3.56,1.43-5.25c2.13,5.05,0.84,10.26,0.93,16.64C481.93,229.48,482.14,225.9,482.2,222.35z"
		/>
	<path d="M90.11,211.91c-0.28,1.15-0.45,2.37-1.58,3.1c-0.05-0.03-0.12-0.04-0.17-0.06c-0.03-0.01-0.06-0.01-0.09-0.03
		c0.03-0.05,0.06-0.08,0.1-0.08c-2.49-3.8-5.73-4.8-9.75-3.05c0.01,0.04,0.03,0.08,0.04,0.12c-0.01,0.06-0.01,0.13-0.03,0.19
		c-0.17-0.04-0.35-0.06-0.51-0.09c-0.45-0.4-0.89-0.78-1.33-1.17C81.51,207.82,85.96,207.96,90.11,211.91z"/>
	<path d="M225.54,273.67c-0.92-0.79-1.83-1.58-2.75-2.37c-0.94-0.76-4.28-1.38-0.74-2.69c2.37-0.88,5.33-0.17,9.12-0.17
		C228.73,270.71,227.14,272.19,225.54,273.67z"/>
	<path d="M456.51,181.38c-0.84,0.39-1.68,0.79-2.52,1.18c-3.79-1.36-7.59-2.71-11.38-4.07
		C447.46,178.53,452.28,178.57,456.51,181.38z"/>
	<path d="M160.22,298.01c-1.28-0.78-2.55-1.55-3.83-2.33c5.06,0.79,8.68-2.04,13.22-6.26C167.75,295.41,164.73,297.58,160.22,298.01
		z"/>
	<path d="M313.17,268.37c-0.94,0.44-1.88,0.89-2.82,1.33c-2.13,0.52-4.27,1.04-6.4,1.57c-0.39-1.38-1.6-1.18-2.61-1.37
		C305,267.18,308.91,266.43,313.17,268.37z"/>
	<path d="M92.49,218.65c-2,0.18-2.68-1.57-3.81-2.63c-0.32-0.15-0.49-0.35-0.5-0.59c-0.01-0.04-0.01-0.08-0.01-0.12
		c0.03-0.19,0.06-0.33,0.12-0.4c0.03-0.05,0.06-0.08,0.1-0.08c0.19-1.19,0.38-2.4,1.73-2.94C92.08,213.74,94.37,215.46,92.49,218.65
		z"/>
	<path d="M246.01,279.87c0,1.03-0.01,2.07-0.03,3.09c-0.47,0.13-0.95,0.26-1.42,0.38c-1.9,0.5-3.81,1-5.7,1.51
		c0.03,0.08,0.03,0.17,0.01,0.24c0,0.03-0.01,0.05-0.01,0.08c-0.14-0.05-0.3-0.13-0.45-0.21c-0.92-0.38-1.83-0.76-2.75-1.13
		C238.71,281.46,242.74,281.63,246.01,279.87z"/>
	<path d="M68.34,297.09c-4.35,2.09-8.66,2.04-12.94,0.01c-0.17-0.06-0.32-0.14-0.47-0.22c0.9-0.36,1.78-0.72,2.67-1.08
		c0.1-0.06,0.22-0.14,0.32-0.19c0.05,0.09,0.1,0.19,0.15,0.28v0.01c2.67,0.58,5.32,0.69,7.94-0.26c-0.01-0.14-0.01-0.28,0-0.42
		c0.19,0.05,0.4,0.13,0.59,0.19C67.18,295.98,67.75,296.53,68.34,297.09z"/>
	<path d="M311.53,297.97c-1.27-0.81-2.54-1.62-3.82-2.43c3.31,0.4,6.44-0.9,11.47-1.7C316.31,297.11,314.24,298.09,311.53,297.97z"
		/>
	<path d="M437.16,286.25c-0.05-0.01-0.09-0.04-0.14-0.05c-0.76-0.32-1.53-0.63-2.3-0.92c-0.4-0.12-0.8-0.19-1.21-0.24
		c-1.08-0.92-2.16-1.85-3.27-2.75c-14.48-11.65-26.3-25.34-32.98-42.97c-0.44-2.9-1-5.73-4.08-9.38c1.08,5.44,0.87,9.47,2.86,13.11
		c2.09,8.17,5.93,15.42,11.12,22.06c5.72,7.3,12.67,13.17,20.45,18.13c1,0.63,1.39,1.06,1.39,1.36v0.01
		c-0.01,0.47-0.99,0.64-2.01,0.83c1.44,0.51,2.69,0.55,2.59-0.73c-0.01-0.3-0.1-0.65-0.27-1.09c-0.21-0.54-0.54-1.01-0.94-1.42
		c1.36,0.96,2.77,1.87,4.22,2.73c0.81,0.49,1.64,0.96,2.48,1.42c0.71,0.01,1.41,0.01,2.13,0.01h0.04
		C437.21,286.32,437.19,286.28,437.16,286.25z M397.2,242.91c-0.38-0.78-0.65-1.6-0.86-2.42c-0.08-0.3-0.15-0.59-0.21-0.89
		c-0.23-1.03-0.37-2.05-0.56-3.01c0.37,0.87,0.73,1.83,0.65,2.87c0.01,0.03,0.01,0.06,0.03,0.09c0.05,0.23,0.12,0.46,0.18,0.68
		c1.08,4.08,2.96,7.84,5.02,11.46c6.11,10.75,13.57,20.2,23.08,27.68C411.25,270.36,402.49,257.97,397.2,242.91z"/>
	<path d="M437.43,286.36l-0.12,0.1c-0.03-0.04-0.05-0.06-0.08-0.1H437.43z"/>
	<path d="M435.07,286.35c-2.72-0.08-5.59,1.19-8.08-0.91c1.03-0.19,2-0.36,2.01-0.83v-0.01c0-0.3-0.38-0.73-1.39-1.36
		c-7.77-4.95-14.73-10.83-20.45-18.13c-5.2-6.64-9.03-13.89-11.12-22.06c-0.08-1.18-1.37-2.76,0.09-3.44
		c0.04-0.03,0.08-0.05,0.12-0.05c0.26-0.12,0.59-0.19,1.01-0.24c6.68,17.64,18.5,31.33,32.98,42.97c1.12,0.9,2.19,1.82,3.27,2.75
		C434.03,285.46,434.56,285.91,435.07,286.35z"/>
	<path d="M180.74,230.06c0.06-0.03,0.14-0.05,0.21-0.06c-0.03,0.05-0.04,0.1-0.05,0.15C180.84,230.12,180.79,230.08,180.74,230.06z"
		/>
	<path d="M185.72,242.67c-0.09,0.06-0.18,0.12-0.27,0.17c-0.06,0.04-0.12,0.08-0.17,0.1c0-0.06-0.01-0.14,0-0.22
		c-0.01-0.05-0.01-0.1-0.01-0.15c0.01-0.13,0.03-0.24,0.03-0.37C185.42,242.36,185.57,242.51,185.72,242.67z"/>
	<path d="M238.88,285.1c0,0.03-0.01,0.05-0.01,0.08c-0.14-0.05-0.3-0.13-0.45-0.21c0.15-0.04,0.3-0.08,0.45-0.12
		C238.89,284.94,238.89,285.03,238.88,285.1z"/>
	<path d="M245.87,292.42c-0.31,0.19-0.62,0.38-0.92,0.59c-0.05-0.17-0.09-0.33-0.13-0.49C245.15,292.48,245.5,292.45,245.87,292.42z
		"/>
	<path d="M58.72,269.99c0,0.01,0.01,0.03,0.04,0.05c0.05-0.08,0.12-0.15,0.18-0.23C58.86,269.88,58.79,269.93,58.72,269.99z
		 M66.01,295.23c-0.01,0.14-0.01,0.28,0,0.42c0.19-0.06,0.4-0.14,0.59-0.23C66.41,295.35,66.2,295.28,66.01,295.23z M57.91,295.61
		c-0.1,0.05-0.22,0.13-0.32,0.19c0.15,0.04,0.32,0.08,0.47,0.1v-0.01C58.02,295.8,57.97,295.7,57.91,295.61z"/>
	<path d="M78.63,211.79c0.01,0.04,0.03,0.08,0.04,0.12c-0.01,0.06-0.01,0.13-0.03,0.19c-0.17-0.04-0.35-0.06-0.51-0.09
		C78.3,211.93,78.46,211.86,78.63,211.79z"/>
	<path d="M88.68,216.03c-0.32-0.15-0.49-0.35-0.5-0.59c-0.01-0.04-0.01-0.08-0.01-0.12c0.03-0.19,0.06-0.33,0.12-0.4
		c0.03-0.05,0.06-0.08,0.1-0.08c-0.01,0.04-0.01,0.06-0.01,0.1c-0.03,0.17-0.03,0.33,0.03,0.47
		C88.43,215.64,88.52,215.83,88.68,216.03z"/>
	<path d="M157.66,269.92c-0.06,0.04-0.14,0.08-0.21,0.12c-0.03-0.04-0.05-0.09-0.05-0.14C157.49,269.89,157.58,269.9,157.66,269.92z
		"/>
	<path d="M397.27,239.31c-0.44,0.26-0.69,0.58-0.83,0.92c-0.04,0.08-0.08,0.17-0.09,0.26c-0.24,0.81-0.04,1.76-0.3,2.55
		c-1.99-3.64-1.78-7.67-2.86-13.11C396.27,233.57,396.83,236.41,397.27,239.31z"/>
</g>
</svg>
