<?xml version="1.0" encoding="utf-8"?>
<!-- Generator: Adobe Illustrator 24.0.1, SVG Export Plug-In . SVG Version: 6.00 Build 0)  -->
<svg version="1.1" id="Camada_1" xmlns="http://www.w3.org/2000/svg" xmlns:xlink="http://www.w3.org/1999/xlink" x="0px" y="0px"
	 viewBox="0 0 500 500" style="enable-background:new 0 0 500 500;" xml:space="preserve">
<style type="text/css">
	.st0{fill:#010101;}
	.st1{fill:#020202;}
</style>
<g>
	<path d="M433.58,225.57c-3.52-28.16-13.04-54.16-28.55-77.92C365.22,86.68,292.7,53.37,218.47,65.81
		c-44.43,7.45-81.77,28.17-110.74,62.53c-40.54,48.09-53.99,103.53-39.52,164.64c12.49,52.77,43.69,92.32,90.91,119.09
		c20.31,11.52,42.27,18.32,65.34,21.61c5.28,0.75,9.81-0.81,13.16-5.14c2.18-2.81,2.76-6.08,2.76-9.54
		c-0.01-28.97-0.03-57.94,0.04-86.91c0-2.31-0.61-3.95-2.27-5.6c-25.21-25.03-50.33-50.13-75.52-75.17
		c-1.29-1.28-1.36-1.87-0.02-3.2c28.69-28.55,57.33-57.15,85.92-85.79c1.33-1.32,1.92-1.27,3.21,0.02
		c28.49,28.53,57,57.02,85.59,85.44c1.7,1.69,1.39,2.45-0.1,3.94c-25.06,24.94-50.05,49.94-75.11,74.88
		c-1.21,1.2-1.71,2.38-1.7,4.09c0.06,14.77,0.04,29.55,0.04,44.32c0,14.53,0,29.05-0.01,43.58c0,2.92,0.35,5.76,1.53,8.45
		c2.03,4.62,6.39,7.25,11.09,6.6c15.91-2.22,31.38-6.13,46.24-12.25C397.7,389.06,444.06,309.6,433.58,225.57z M340.14,377.73
		c-15.57,10.55-32.41,18.2-50.98,22.92v-24.24c0-11.31,0.04-22.62-0.08-33.92c-0.02-1.42,0.84-1.88,1.53-2.57
		c29.12-29.27,58.26-58.54,87.46-87.75c1.52-1.53,1.68-2.28,0.05-3.9c-42.34-42.11-84.64-84.27-126.87-126.49
		c-1.63-1.63-2.33-1.34-3.77,0.09c-42.3,42.27-84.63,84.51-127.02,126.69c-1.55,1.55-1.25,2.21,0.11,3.56
		c30.03,29.9,59.99,59.85,90,89.76c1.2,1.2,1.73,2.36,1.72,4.08c-0.06,17.34-0.07,34.67,0,52c0,2-0.27,2.42-2.41,1.85
		c-56.51-15-100.97-61.83-112.72-118.85c-14.86-72.1,19.96-142.86,86.19-174.72c25.54-12.28,52.55-17.12,80.82-14.75
		c63.03,5.28,115.92,46.79,136.28,106.95C422.79,264.37,397.75,338.72,340.14,377.73z"/>
	<path d="M14,199.05c5.26,3.19,10.26,6.38,15.43,9.26c2.23,1.24,3.6,2.36,1.92,4.97c-0.79,0.03-1.35-0.67-2.01-1.1
		c-7.28-4.69-14.53-9.41-21.82-14.07c-1.01-0.64-1.73-1.09-1.07-2.45c0.58-1.18,0.2-2.72,2.51-2.74c5.86-0.07,11.71-0.55,17.56-0.9
		c0.54-0.03,1.17,0.12,1.78-0.66c-4.98-3.35-9.84-6.88-14.96-9.95c-2.23-1.33-2.65-2.64-1.93-4.87c0.28-0.88,0.63-1.2,1.51-1.2
		c9.49,0.02,18.98,0.01,28.5,0.01c-0.28,1.1-0.87,2.71-1.07,4.37c-0.16,1.32-0.7,1.54-1.86,1.53c-6.03-0.05-12.06-0.02-18.1-0.02
		c-0.46,0-0.91,0-1.37,0c-0.05,0.15-0.09,0.29-0.14,0.44c5.24,3.48,10.36,7.18,15.78,10.36c2.5,1.47,1.75,3.03,1.27,4.85
		c-0.31,1.19-1.36,0.66-2.09,0.7c-6.35,0.37-12.7,0.69-19.05,1.04C14.62,198.64,14.44,198.81,14,199.05z"/>
	<path d="M467.74,372.94c-6.47-4.56-12.99-9.02-19.66-13.24c-0.84-0.53-1.75-0.97-2.48-1.62c-0.6-0.54-2.24-0.44-1.49-1.98
		c0.58-1.19,0.82-2.43,2.82-2.38c6.02,0.14,12.05-0.03,18.08-0.11c0.61-0.01,1.3,0.22,1.99-0.35c-3.94-5.3-7.95-10.51-12.38-15.35
		c-1.56-1.71-0.56-2.75,0.1-4.03c0.77-1.48,1.78-0.18,2.49,0.05c7.84,2.48,15.63,5.14,23.47,7.6c1.56,0.49,1.87,0.91,0.93,2.24
		c-0.93,1.33-0.92,3.75-2.26,4.13c-1.27,0.36-3-0.95-4.54-1.52c-4.14-1.51-8.24-3.14-13.14-4.46c4.31,5.29,8.23,10.06,12.09,14.86
		c0.5,0.63,1.59,1.08,0.94,2.26c-0.55,1-1.47,0.59-2.21,0.6c-6.17,0.05-12.34,0.03-18.51,0.03c-0.06,0.22-0.13,0.44-0.19,0.66
		c2.47,1.5,4.93,3.02,7.41,4.49c1.7,1.01,3.45,1.93,5.17,2.9C469.47,369.45,469.47,369.45,467.74,372.94z"/>
	<path d="M372.84,467.72c-2.15,1.05-4.08,1.98-6.12,2.98c-2.97-5.29-6.06-10.56-9.81-16.21c0,6.83,0.02,12.97-0.03,19.11
		c-0.01,0.79,0.57,1.79-0.59,2.41c-1.31,0.7-1.78-0.51-2.46-1.05c-4.8-3.76-9.56-7.58-14.65-11.64c0.55,3.19,1.78,5.76,2.73,8.4
		c0.95,2.63,1.99,5.23,3.09,7.8c1.02,2.39-1.39,2.03-2.25,2.62c-1.3,0.88-1.1-0.79-1.26-1.34c-2.3-8.07-4.78-16.08-7.48-24.03
		c-0.21-0.62-1.21-1.59-0.05-2.08c1.12-0.48,2.09-1.8,3.72-0.42c4.46,3.79,9.11,7.37,13.7,11.02c0.69,0.55,1.43,1.03,2.4,1.73
		c0.4-6.83,0.38-13.34,0.18-19.84c-0.05-1.66,0.4-2.43,1.96-3.06c1.18-0.47,1.53-0.18,2.08,0.71
		C362.84,452.49,367.56,460.23,372.84,467.72z"/>
	<path d="M144.86,35.13c0.26,6.07,0.53,12.14,0.77,18.21c0.03,0.84,0.52,1.84-0.61,2.41c-1.01,0.51-1.51-0.37-2.12-0.82
		c-4.91-3.6-9.8-7.24-15.06-11.13c0.74,3.37,2.17,6.02,3.26,8.79c0.9,2.29,1.84,4.59,2.99,6.76c1.24,2.33-1.05,2.21-1.93,2.77
		c-1.52,0.97-1.28-0.83-1.46-1.42c-2.52-7.82-5.31-15.55-8.18-23.25c-0.24-0.65-1.2-1.53,0.09-2.05c1.06-0.43,1.85-1.67,3.43-0.43
		c5.17,4.07,10.53,7.91,16.13,12.07c0-4.33,0.05-8.3-0.02-12.26c-0.04-2.72-0.1-5.45-0.41-8.15c-0.23-2.04,1.49-1.89,2.46-2.51
		c1.18-0.76,1.28,0.65,1.64,1.18c4.78,6.81,9.29,13.8,14.36,20.41c0.62,0.81,1.1,1.37-0.36,1.92c-1.59,0.6-3.27,2.41-4.49,2.09
		c-1.24-0.32-1.96-2.6-2.9-4.03c-2.35-3.57-4.7-7.15-7.06-10.72C145.22,35.02,145.04,35.08,144.86,35.13z"/>
	<path d="M297.01,14.82c-2.13,5.08-3.49,9.73-5,14.33c-1.12,3.43-1.14,3.42-4.77,2.28c3.66-8.01,6.91-16.18,10.14-24.36
		c0.28-0.7,0.17-2.1,1.66-1.46c0.98,0.42,2.29-0.14,2.63,1.83c1.11,6.45,2.6,12.84,3.94,19.29c1.17-0.21,1.52-1.03,2.02-1.63
		c3.73-4.42,7.54-8.76,11.05-13.35c1.23-1.6,2.27-0.72,3.43-0.54c1.52,0.23,0.75,1.43,0.67,2.14c-0.94,8.19-1.99,16.37-2.93,24.56
		c-0.16,1.39-0.63,1.59-1.87,1.17c-1.55-0.52-3.86-0.37-4.55-1.39c-0.67-1,0.27-3.09,0.52-4.7c0.66-4.36,1.32-8.73,1.58-13.31
		c-3.79,4.64-7.57,9.29-11.4,13.9c-0.62,0.75-0.95,2.14-2.4,1.65c-1.21-0.41-0.88-1.66-1.07-2.51
		C299.43,27,298.31,21.26,297.01,14.82z"/>
	<path d="M30.11,368.62c3.67-1.78,7.34-3.62,11.07-5.34c1.28-0.59,1.75-1.14,0.97-2.54c-1.52-2.72-2.97-5.5-4.28-8.33
		c-0.64-1.38-1.32-1.28-2.42-0.66c-3.09,1.72-6.24,3.34-9.32,5.08c-1.06,0.6-1.75,0.8-2.06-0.66c-0.37-1.74-2.54-3.33-1.86-4.74
		c0.59-1.2,2.94-1.52,4.48-2.29c6.39-3.21,12.94-6.15,19.07-9.85c1.41-0.85,2.02-0.61,2.35,0.88c0.36,1.63,2.43,3.11,1.71,4.45
		c-0.62,1.16-2.81,1.46-4.29,2.17c-5.64,2.7-5.67,2.72-2.83,8.32c0.96,1.89,1.44,4.81,3.24,5.25c1.51,0.37,3.59-1.57,5.42-2.5
		c1.46-0.74,2.91-1.51,4.37-2.26c0.68,1.38,1.2,2.88,2.09,4.11c1.11,1.52,0.72,2.04-0.87,2.75c-7.44,3.33-14.69,7.05-21.76,11.09
		c-1.58,0.9-2.45,1.2-3.07-0.93C31.71,371.24,30.82,369.99,30.11,368.62z"/>
	<path d="M388.04,427.63c-5.38-1.29-9.92,0.85-14.02,4.01c-4.86,3.74-6.94,8.81-5.65,14.85c1.3,6.09,4.91,10.56,11.13,12.01
		c9.48,2.21,19.85-6.37,19.85-16.07C399.35,435.54,394.57,429.2,388.04,427.63z M393.87,448.11c-0.76,3.76-4.09,6.54-7.87,6.57
		c-7.46,0.07-15.27-12.28-11.99-18.97c1.62-3.3,5.76-5.18,9.39-4.25C389.46,433,395.11,441.98,393.87,448.11z"/>
	<path d="M37.81,311.14c-0.83-4.71-2.69-9.14-3.6-13.81c-0.24-1.22-1-0.45-1.51-0.29c-8.31,2.65-16.7,5-25.2,6.93
		c-1.17,0.26-1.23,0.66-0.96,1.64c1.02,3.72,1.93,7.47,2.98,11.18c1.76,6.21,7.49,10.5,13.96,10.54
		C31.15,327.02,39.88,322.87,37.81,311.14z M28.23,319.54c-2.32,0.91-4.73,1.4-7.22,1.38c-6.05,0-9.92-3.62-10.58-9.82
		c-0.09-0.89,0.07-1.36,1-1.6c6.93-1.79,13.84-3.63,20.75-5.45c0.81-0.21,1.26-0.06,1.69,0.83
		C36.94,311.21,34.76,316.98,28.23,319.54z"/>
	<path d="M475.38,300.06c-8.22-0.11-15.04,7.38-15.12,16.61c-0.07,8.65,6.92,15.49,15.84,15.48c7.78,0,14.47-7.65,14.56-16.66
		C490.75,306.9,484.09,300.18,475.38,300.06z M478.32,325.8c-4.19-0.46-8.27-1.63-11.63-4.55c-2.81-2.44-4.29-5.4-3.01-9.22
		c1.19-3.55,3.9-5.73,8.03-5.79c5.13-0.07,9.73,1.61,13.33,5.4c2.67,2.81,3.14,6.24,1.53,9.57
		C484.94,324.62,482.02,325.76,478.32,325.8z"/>
	<path d="M15.94,212.94C7.06,212.79,1,219.48,0.88,229.56c-0.1,8.57,6.55,15.12,15.47,15.21c8.8,0.23,14.21-6.33,14.66-16.43
		C31.37,219.92,24.45,213.08,15.94,212.94z M27.83,231.7c-0.92,4.13-4.35,6.43-10.15,6.41c-3.43-0.22-7.3-0.87-10.6-3.37
		c-2.8-2.12-4.17-4.86-3.39-8.39c0.78-3.59,3.17-5.67,6.67-6.48c4.1-0.96,8.05-0.19,11.79,1.53
		C26.76,223.53,28.79,227.37,27.83,231.7z"/>
	<path d="M498.87,243.93c-1.72-7.18-8.4-11.35-16.73-10.7c-6.86,0.54-10.72,4.79-11.56,12.46c-0.51,4.7,0.34,9.38,0.06,14.07
		c-0.07,1.25,0.71,0.91,1.45,0.9c6.1-0.03,12.19-0.01,18.29-0.01v-0.43c2.56,0,5.11,0,7.67,0c0.62,0,1.46,0.29,1.39-0.78
		C499.1,254.28,500.09,249.03,498.87,243.93z M497.05,252.89c-0.22,1.12-0.89,1.01-1.6,1.02c-3.54,0.01-7.09,0-10.63,0v0.07
		c-3.38,0-6.77-0.08-10.14,0.04c-1.43,0.05-1.81-0.47-1.96-1.78c-0.81-7.47,2.74-11.81,10.24-12.42c2.15-0.17,4.29,0.05,6.37,0.6
		C495.24,242,498.22,246.92,497.05,252.89z"/>
	<path d="M257.36,0.5c-8.92-0.05-15.65,6.32-15.73,14.9c-0.08,9.12,5.82,14.61,15.78,14.67c8.88,0.05,15.6-6.36,15.68-14.95
		C273.16,6.35,266.94,0.56,257.36,0.5z M266.32,14.1c-0.11,2.91-0.61,5.73-2.05,8.31c-1.95,3.5-5.32,5.26-9.02,4.79
		c-3.24-0.42-5.63-2.79-6.47-6.89c-0.9-4.37-0.6-8.68,1.55-12.73c1.76-3.31,4.58-5.08,8.24-4.79c3.55,0.28,5.69,2.7,6.86,5.97
		C266.06,10.48,266.38,12.26,266.32,14.1z"/>
	<path d="M175.57,12.54c-10.63,0.27-17.18,6.36-17.36,15.16c-0.17,8.55,5.78,14.91,13.76,14.94c9.93,0.04,17.45-6.57,17.47-15.38
		C189.47,19.1,183.31,12.35,175.57,12.54z M182.14,34.88c-2.61,5.34-9.54,6.45-13.35,1.91c-3.55-4.23-4.99-9.26-4.06-14.76
		c0.52-3.06,2.35-5.2,5.38-6.19c3.03-1,5.75-0.35,8.03,1.77c3.53,3.28,4.71,7.6,5.01,12.24C183.16,31.59,182.92,33.27,182.14,34.88z
		"/>
	<path d="M29.44,251.69c-0.04-1.49-0.95-1.01-1.69-0.93c-7.4,0.81-14.83,0.88-22.25,1.14c-5.1,0.17-5.06,0.08-4.98,5.27
		c0.02,1.23,0.17,1.64,1.6,1.5c3.86-0.36,7.73-0.95,12.16-0.54c-4.27,2.7-8.09,5.1-11.89,7.52c-0.58,0.37-1.42,0.55-1.36,1.54
		c0.16,2.16,0.28,4.32,0.44,6.75c2.46-1.74,4.65-3.32,6.88-4.85c2.24-1.54,4.51-3.03,6.83-4.58c0.27,0.6,0.49,1.14,0.75,1.65
		c1.69,3.4,5,4.98,8.88,4.25c3.1-0.58,5.05-2.97,5.09-6.89C29.94,259.59,29.54,255.64,29.44,251.69z M20.97,264.35
		c-1.73-0.06-3.47-0.82-4.56-2.71c-1.4-2.44-0.76-3.66,2-3.8c2.46-0.12,4.93-0.16,7.4-0.31c1.08-0.06,1.38,0.34,1.43,1.4
		C27.45,262.68,25.76,264.27,20.97,264.35z"/>
	<path d="M408.85,58.44c-3.11-3.21-6.99-5.49-10.25-8.52c-0.73-0.68-1.05-0.39-1.52,0.25c-5.08,6.9-10.46,13.56-16.18,19.93
		c-0.68,0.76-0.58,1.09,0.17,1.69c2.96,2.37,5.83,4.84,8.78,7.22c2.52,2.04,5.45,2.99,8.11,3.1c6.59,0.04,12.13-3.83,14.67-9.89
		C414.97,66.65,412.63,62.34,408.85,58.44z M395.65,78.01c-3.62,0.16-6.14-2.05-8.59-4.3c-0.59-0.54-0.24-1,0.16-1.47
		c4.49-5.38,8.98-10.77,13.46-16.15c0.38-0.46,0.65-0.75,1.41-0.41c3.37,1.51,6.14,5.45,6.13,8.94
		C408.2,70.47,401.42,77.75,395.65,78.01z"/>
	<path d="M81.36,392.39c-2.14-2.72-4.73-5.07-6.72-8.08c-5.76,5.27-11.77,10.17-17.86,14.96c-1.36,1.07-3.54,1.92-3.87,3.24
		c-0.34,1.4,2.06,2.5,2.86,4.01c0.78,1.45,1.42,1.04,2.36,0.13c2.69-2.61,5.54-5.05,9.07-7.64c-1.76,4.7-3.31,8.83-4.86,12.97
		c-0.32,0.83-0.77,1.57,0.06,2.47c1.37,1.47,2.6,3.08,3.99,4.76c1.75-5.23,3.44-10.29,5.17-15.5c4.94,2.5,8.71,2,11.35-1.33
		C85.16,399.54,84.72,396.63,81.36,392.39z M74.87,400.67c-2.1,1.01-4,0.4-5.64-1.17c-0.87-0.84-1.04-1.51,0.1-2.35
		c1.99-1.47,3.98-2.96,5.75-4.66c1.53-1.47,2.4-1.04,3.29,0.55c0.45,0.79,0.92,1.55,1.02,2.83
		C78.84,398.09,77.06,399.62,74.87,400.67z"/>
	<path d="M104.53,67.04c-1.25-0.4-1.49-0.71-0.82-2c1.84-3.5,1.02-7.16-1.88-9.56c-2.53-2.09-5.48-2.01-8.8,0.57
		c-3.1,2.41-6.04,5.05-9.08,7.61C89.14,69.32,94,75.23,98.75,81.25c1.02,1.29,1.86,3.4,3.1,3.66c1.48,0.31,2.49-2.04,4-2.83
		c1.29-0.66,1.07-1.3,0.19-2.19c-2.61-2.63-4.99-5.46-6.92-8.75c4.07,1.52,8.12,3.06,12.2,4.54c0.61,0.22,1.22,0.88,2.03,0.15
		c1.55-1.41,3.18-2.72,4.92-4.19C113.53,70.04,109.04,68.49,104.53,67.04z M99.75,67.76c-1.3,2.17-2.12,2.26-3.68,0.36
		c-1.51-1.85-2.95-3.77-4.54-5.56c-0.94-1.05-0.68-1.62,0.36-2.28c1.4-0.89,2.77-2.07,4.5-0.97c2.13,1.37,3.87,3.1,4.05,5.83
		C100.38,66.08,100.23,66.96,99.75,67.76z"/>
	<path class="st0" d="M310.91,478.84c-0.94-0.91-1.03-1.29,0.14-2.16c3.19-2.35,4.06-5.99,2.5-9.42c-1.36-2.99-4.04-4.2-8.16-3.34
		c-3.85,0.81-7.64,1.9-11.5,2.88c2.18,7.36,3.96,14.8,5.59,22.28c0.35,1.61,0.18,3.87,1.18,4.64c1.2,0.93,3.13-0.75,4.83-0.79
		c1.45-0.04,1.53-0.7,1.13-1.88c-1.2-3.5-2.09-7.09-2.38-10.89c2.99,3.14,5.96,6.3,8.98,9.41c0.45,0.47,0.71,1.33,1.76,1.02
		c2.01-0.59,4.05-1.06,6.26-1.61C317.69,485.46,314.34,482.11,310.91,478.84z M306.3,477.4c-2.12,1.38-2.9,1.11-3.47-1.29
		c-0.55-2.32-1-4.68-1.64-6.98c-0.39-1.35,0.1-1.75,1.33-1.89c1.65-0.19,3.4-0.65,4.47,1.09c1.32,2.16,2.12,4.48,1.09,7.01
		C307.6,476.16,307.09,476.88,306.3,477.4z"/>
	<path class="st0" d="M422.98,429.03c-6.37-6.6-12.94-13.57-20.54-19.46c2.87-2.93,2.87-2.92,6.85-2.92c7.35,0.01,14.71,0,22.75,0
		c-5.14-4.67-9.9-8.99-14.68-13.33c0.08-0.15,0.2-0.36,0.32-0.57c1.32-2.22,2.43-1.95,4.11-0.11c5.3,5.79,11.15,11.03,16.86,16.41
		c0.56,0.53,1.95,1.14,1.31,1.87c-0.76,0.86-1.28,2.29-3.01,2.18c-2.97-0.19-5.95-0.14-8.92-0.15c-5.53-0.02-11.06,0-17.34,0
		c5.3,4.86,10.16,9.31,15.11,13.85C424.9,427.51,423.95,428.26,422.98,429.03z"/>
	<path d="M475.76,290.08c6.51,0.81,12.45,1.52,18.38,2.32c0.71,0.1,2.38-0.48,1.69,1.41c-0.38,1.05,0.31,2.69-2.28,2.11
		c-7.89-1.76-15.85-3.24-23.94-3.76c-0.9-0.06-2.64,0.27-2.54-0.59c0.16-1.37-0.3-3.06,1.4-4.19c5.63-3.75,11.14-7.67,16.69-11.53
		c1.33-0.93,2.65-1.88,4.5-3.2c-4.9-0.64-9.18-1.2-13.47-1.75c-1.39-0.18-2.8-0.51-4.18-0.44c-2.05,0.11-2.45-0.59-2.06-2.54
		c0.27-1.35,0.75-1.24,1.78-1.07c6.67,1.12,13.35,2.18,20.04,3.25c1.47,0.24,2.95,0.38,4.4,0.69c0.79,0.18,2.2-0.4,2.26,0.78
		c0.07,1.35,0.04,2.77-1.56,3.83c-6.33,4.18-12.53,8.56-18.78,12.87C477.45,288.71,476.85,289.23,475.76,290.08z"/>
	<path d="M157.58,457.38c-1.18-4.77-3.89-7.47-8.28-8.33c-4.35-0.86-7.71,1.02-10.48,4.16c-1.71,1.94-2.89,4.17-3.58,6.68
		c-1.66,6.1,1.63,11.53,7.8,12.94c1.3,0.3,1.99-0.11,2.52-1.25c1.13-2.46,2.33-4.89,3.54-7.41c0.99,0.54,1.93,1.34,3.01,1.59
		c3.01,0.7,2.37,2.03,1.07,3.94c-1.29,1.89-2.27,4-3.26,6.08c-0.38,0.79-0.68,1.2-1.63,0.99c-4.94-1.1-9.71-2.61-13.72-5.86
		c-5.69-4.61-7.4-10.93-4.64-16.9c3.26-7.05,9.49-10.35,16.87-8.92c4.66,0.9,8.64,3.04,12.03,6.38c1.53,1.51,2.51,2.82,0.15,4.4
		C158.53,456.17,158.23,456.67,157.58,457.38z"/>
	<path d="M376.56,58.11c3.14-5.38,6.12-10.3,8.9-15.32c0.88-1.58,1.46-0.99,2.59-0.42c1.32,0.67,1.34,1.14,0.54,2.29
		c-4.53,6.48-8.64,13.23-12.73,20c-0.45,0.74-0.67,2.36-1.75,1.89c-1.08-0.46-2.41-0.92-2.71-2.77c-1.12-6.9-2.55-13.75-3.88-20.62
		c-0.23-1.19-0.54-2.36-0.93-4.03c-3.71,5.66-7.05,10.98-10.04,16.51c-0.13,0.19-0.21,0.13-0.4,0c-2.67-1.86-2.66-1.85-0.87-4.51
		c4.1-6.07,8.19-12.15,11.77-18.56c0.38-0.67,0.63-2.11,1.52-1.69c1.12,0.53,2.64,0.77,2.97,2.59c1.22,6.64,2.6,13.24,3.94,19.85
		C375.78,54.75,376.13,56.18,376.56,58.11z"/>
	<path d="M217.91,22.46c-1.21-6.11-2.27-11.77-3.48-17.39c-0.33-1.53,0-1.97,1.54-2.22c1.4-0.23,1.71,0.01,1.88,1.41
		c0.93,7.85,2.24,15.65,3.69,23.42c0.15,0.81,0.84,2.07-0.09,2.44c-1.16,0.47-2.46,0.96-3.9-0.18c-5.68-4.52-11.5-8.86-17.28-13.24
		c-0.7-0.53-1.29-1.27-2.59-1.45c0.81,4.47,1.59,8.81,2.38,13.15c0.24,1.29,0.71,2.57,0.74,3.87c0.02,0.69,1.69,2.03-0.65,2.27
		c-1.69,0.17-2.55,0.17-2.76-1.99c-0.71-7.54-1.75-15.05-3.55-22.43c-0.24-0.98-1.06-2.54-0.19-2.88c1.35-0.52,2.97-1.02,4.58,0.3
		c4.02,3.29,8.23,6.34,12.37,9.47C212.91,18.76,215.22,20.46,217.91,22.46z"/>
	<path d="M235.34,469.94c-3.61-0.27-7.23-0.49-11.14-0.74c0.16,7.96-0.99,15.71-1.51,23.51c-0.11,1.63-1.25,3.8-0.27,4.7
		c1.01,0.93,3.25,0.47,4.92,0.76c1.38,0.24,1.68-0.29,1.68-1.56c0.02-2.8,0.23-5.6,0.29-8.4c0.04-1.7,0.39-2.78,2.52-2.31
		c1.09,0.24,2.3,0.04,3.45-0.06c5.01-0.46,7.88-3.65,7.84-8.69C243.08,472.95,240.24,470.31,235.34,469.94z M231.9,483.7
		c-1.35,0.2-2.2,0.05-1.97-1.76c0.38-2.85,0.56-5.74,0.67-8.61c0.05-1.23,0.5-1.5,1.64-1.44c3.04,0.17,4.4,1.86,4.4,5.61
		C236.65,480.95,234.9,483.25,231.9,483.7z"/>
	<path d="M341.2,18.16c-2.29,4.45-4.42,8.97-6.28,13.62c-0.89,2.22-1.71,4.45-1.79,6.88c-0.1,2.86,1.37,4.61,3.81,5.78
		c2.6,1.25,5.14,1.76,7.6-0.36c1.86-1.6,3.02-3.68,4.1-5.81c2.15-4.26,3.83-8.73,5.38-13.23c0.8-2.34,1.79-0.56,2.74-0.43
		c1.55,0.2,1.3,0.9,0.78,2.01c-2.02,4.31-3.94,8.67-5.91,13.01c-4.13,9.09-10.79,11.02-19.2,5.58c-5.25-3.39-6.55-7.94-4.04-13.62
		c2.09-4.73,4.07-9.52,6.01-14.31c0.51-1.26,0.88-1.97,2.38-1.06C338.11,17.01,339.62,17.48,341.2,18.16z"/>
	<path d="M57.56,130.3c-1.47-0.9-2.91-1.87-4.41-2.72c-1.18-0.65-1.71-1.2-0.65-2.53c0.85-1.07,1.45-2.39,1.96-3.68
		c1.74-4.42,0.19-8.42-4.01-10.61c-3.57-1.86-6.99-0.79-9.69,3.19c-2.03,2.99-3.9,6.09-5.97,9.35c8.16,4.49,15.8,9.97,23.6,15.21
		c1.24-1.92,2.39-3.71,3.6-5.58C60.49,132.06,59.02,131.19,57.56,130.3z M50.81,123.55c-0.43,1.27-0.97,1.92-2.43,0.85
		c-2.25-1.66-4.61-3.17-7.02-4.59c-1.24-0.72-1.1-1.34-0.39-2.29c1.24-1.67,2.7-2.57,4.88-1.88c3.45,1.09,5.34,3.16,5.31,6.38
		C51.1,122.28,51.02,122.93,50.81,123.55z"/>
	<path d="M125.72,432.39c-0.67-0.94-1.28-0.22-1.86,0.16c-8.22,5.47-16.43,10.94-24.64,16.4c1.86,2,3.68,2.43,5.73,0.03
		c0.89-1.04,2.19-1.73,3.33-2.54c0.43-0.3,0.79-0.85,1.49-0.39c2.46,1.64,5.5,2.81,7.08,5.19c0.97,1.45-0.71,3.86-1.21,5.83
		c-0.14,0.56-0.3,1.11-0.48,1.66c-0.24,0.71-0.08,1.21,0.61,1.63c1.67,1.01,3.3,2.09,5.12,3.25c1.88-9.79,4.14-19.36,6.51-28.9
		C127.81,433.14,126.27,433.18,125.72,432.39z M117.93,448.55c-1.93-1.3-3.55-2.41-5.19-3.5c-0.73-0.49-1.17-0.89-0.13-1.56
		c2.46-1.59,4.87-3.25,7.63-5.1C119.77,442.08,118.78,445.18,117.93,448.55z"/>
	<path d="M258.43,472.25c-0.55-1.4-1.29-1.66-2.68-1.76c-1.67-0.12-1.64,1-2,1.92c-0.72,1.83-1.39,3.69-2.1,5.52
		c-2.78,7.16-5.57,14.31-8.36,21.5c2.45,0.26,4.07,0,4.73-2.95c1.28-5.75,1.5-5.7,7.37-5.72c4.04-0.01,4.04-0.01,5.43,3.79
		c1.63,4.45,1.63,4.45,6.22,4.37c0.73-0.01,1.45,0,2.56,0C265.46,489.93,261.91,481.1,258.43,472.25z M253.15,481.81
		c0.37-0.95,0.51-2.04,1.53-3.01c1.27,3.19,2.48,6.23,3.71,9.33C250.39,488.85,250.38,488.84,253.15,481.81z"/>
	<path d="M491.95,206.83c-0.55,0.07-1.15-0.28-1.7-0.22c-2.91,0.28-3.83-1.22-4.35-3.89c-1.19-6.05-1.39-6.1,4.07-9.14
		c1.84-1.02,2.77-1.94,1.76-4.12c-0.56-1.22-0.6-2.69-0.93-4.35c-8.2,5.89-16.43,11.19-24.68,16.46c-1.26,0.8-0.51,1.64-0.5,2.54
		c0.01,1.01,0.37,1.35,1.4,1.51c4.31,0.67,8.6,1.44,12.9,2.22c5.48,0.98,10.94,1.99,16.31,2.97
		C496.43,207.59,494.87,206.47,491.95,206.83z M482.9,205.48c-2.96-0.5-5.93-1.02-9.3-1.61c3.05-2.17,5.82-4.01,8.86-5.66
		c0.53,2.48,1.02,4.78,1.53,7.21C483.53,205.45,483.21,205.53,482.9,205.48z"/>
	<path d="M50.59,394.06c-0.88,0.65-1.8,1.32-2.72,1.99c-2.88-4.12-5.72-8.26-8.64-12.35c-1.04-1.45,0.43-1.49,0.99-1.84
		c5.71-3.63,11.33-7.39,16.82-11.34c1.74-1.25,3.44-2.56,5.19-3.88c2.9,4.13,5.76,8.25,8.67,12.32c0.43,0.59,0.57,0.89-0.16,1.3
		c-0.71,0.4-1.35,0.94-2.16,1.51c-1.36-2.21-2.81-4.39-4.07-6.67c-0.67-1.22-1.23-1.17-2.23-0.45c-1.68,1.19-3.42,2.3-5.18,3.37
		c-0.92,0.56-1.03,1.02-0.3,1.89c1.27,1.52,2.33,3.21,3.62,4.7c1.07,1.24,1.28,2.1-0.42,2.85c-0.44,0.19-0.79,0.59-1.25,0.95
		c-1.41-2.2-2.84-4.31-4.16-6.49c-0.62-1.03-1.11-1.45-2.27-0.57c-2.03,1.55-4.15,2.98-6.29,4.39c-0.91,0.6-0.99,1.11-0.32,1.95
		C47.36,389.76,48.93,391.88,50.59,394.06z"/>
	<path d="M436.24,375.1c-1.52,1.84-2.84,3.64-4.37,5.25c-1.35,1.41-1.65,2.4,0.31,3.52c1.35,0.77,2.6,1.78,3.72,2.86
		c1.37,1.31,2.08,0.86,2.91-0.58c0.98-1.71,2.23-3.27,3.25-4.96c1.2-1.97,1.81,0.1,2.65,0.34c1.3,0.38,0.79,1.06,0.21,1.77
		c-1.41,1.72-2.73,3.52-4.17,5.21c-0.69,0.81-0.7,1.26,0.22,1.89c2.18,1.49,4.31,3.04,6.41,4.63c0.84,0.64,1.36,0.62,1.94-0.31
		c1.17-1.89,2.5-3.68,3.61-5.6c0.66-1.14,1.25-1.11,2.03-0.28c0.58,0.62,2.16,0.69,0.89,2.28c-3.03,3.79-5.88,7.74-8.8,11.63
		c-5.75-4.27-11.56-8.6-17.38-12.91c-0.86-0.64-1.76-1.22-2.65-1.81c-3.12-2.07-3.1-2.06-0.77-5.16c1.98-2.64,4.05-5.22,5.82-7.99
		c1.04-1.63,1.86-1.89,3.18-0.51C435.46,374.6,435.76,374.76,436.24,375.1z"/>
	<path d="M178.66,471.05c-0.4,1.12-0.76,2.12-1.18,3.29c-2.43-0.97-4.87-1.85-7.22-2.93c-1.26-0.58-1.7-0.18-2.09,0.96
		c-0.76,2.26-1.53,4.52-2.45,6.71c-0.61,1.46-0.1,2.01,1.26,2.37c1.99,0.53,3.9,1.34,5.91,1.77c1.39,0.3,1.36,0.84,0.8,1.83
		c-0.44,0.78-0.07,2.23-1.97,1.45c-4.1-1.69-8.31-3.16-12.51-4.59c-1.1-0.37-1.24-0.77-0.83-1.75c3.33-8.05,6.53-16.16,8.97-24.54
		c0.25-0.86,0.56-1.13,1.56-0.74c4.3,1.64,8.64,3.21,13,4.69c1.45,0.49,0.68,1.25,0.36,1.86c-0.32,0.62,0.1,2.17-1.53,1.46
		c-1.96-0.85-3.96-1.63-5.89-2.55c-1.22-0.58-2-0.73-2.49,0.89c-0.68,2.26-2.66,4.79-2.1,6.58c0.53,1.7,4,1.55,6.11,2.41
		C177.11,470.54,177.89,470.78,178.66,471.05z"/>
	<path d="M442.96,92.12c-0.99-1.05-1.73-1.31-3.07-0.86c-8.96,3.04-18.01,5.82-27.18,8.46c1.21,2.78,2.67,3.25,5.35,1.91
		c4.61-2.3,4.72-2.08,8.15,1.91c0.49,0.56,0.91,1.18,1.45,1.69c1.29,1.18,1.4,2.31,0.33,3.78c-1.25,1.73-3.21,3.68-3.11,5.43
		c0.09,1.74,2.36,3.36,3.69,5.02c0.07,0.1,0.25,0.12,0.5,0.23c4.26-8.44,8.92-16.67,13.71-24.82
		C443.28,94.03,444.1,93.33,442.96,92.12z M430.47,104.61c-5.31-5.81-5.32-5.82,1.86-7.97c0.93-0.28,1.88-0.49,3.27-0.85
		C433.76,98.96,432.13,101.75,430.47,104.61z"/>
	<path d="M56.95,94.4c-1.6-0.52-2.11,0.25-3.04,1.08c-1.21,1.08-0.17,1.74,0.21,2.49c0.6,1.17,1.32,2.29,1.96,3.43
		c4.03,7.16,8.05,14.32,12.09,21.5c2.31-2.88,2.31-2.88,0.3-5.81c-0.19-0.27-0.37-0.55-0.55-0.82c-2.26-3.49-2.26-3.49,0.34-6.83
		c3.32-4.26,3.32-4.26,8.3-2.46c0.77,0.28,1.54,0.58,2.3,0.89c0.8,0.33,1.36,0.15,1.88-0.59c1.07-1.55,2.24-3.03,3.47-4.67
		C74.93,100.23,65.95,97.3,56.95,94.4z M65.32,109.29c-0.51,0.65-0.93,1.17-1.55,0.03c-1.4-2.55-2.87-5.06-4.64-8.14
		c3.68,1.19,6.76,2.2,10.05,3.26C67.76,106.21,66.53,107.75,65.32,109.29z"/>
	<path d="M115.76,425.57c-0.84,0.98-1.59,1.84-2.3,2.66c-1.27-1.23-2.6-2.35-3.71-3.66c-1.22-1.44-1.99-1.05-3.04,0.21
		c-5,6-10.07,11.95-15.11,17.89c-1.62-1.44-3.2-2.85-4.79-4.26c1.42-1.59,2.88-3.15,4.26-4.77c3.69-4.32,7.32-8.7,11.05-12.99
		c1.08-1.24,1.35-2.08-0.31-2.99c-1-0.55-1.8-1.49-2.81-2c-1.91-0.95-1.4-1.71-0.18-2.92c0.8-0.8,1.15-0.8,1.92-0.11
		C105.64,417.04,110.41,421.59,115.76,425.57z"/>
	<path class="st0" d="M289.57,469.7c0.4,1.32-0.26,1.37-1.11,1.39c-1.95,0.04-4.6-0.61-5.59,0.81c-0.83,1.17,0.1,3.62,0.34,5.49
		c0.76,5.88,1.52,11.75,2.38,17.62c0.19,1.32,0.09,1.81-1.44,1.96c-5.11,0.51-4.93,0.57-5.42-4.47c-0.63-6.39-1.59-12.74-2.37-19.11
		c-0.13-1.04-0.36-1.43-1.52-1.11c-1.58,0.44-3.23,0.65-4.84,0.96c-0.74,0.14-1.7,0.43-1.35-0.84c0.23-0.85-1.42-2.32,0.89-2.57
		c6.31-0.69,12.65-1.07,18.92-2.16C290.45,467.29,289.06,469.23,289.57,469.7z"/>
	<path d="M66.42,85.98c-2.4-2.52-2.4-2.51-0.05-4.83c3.75-3.71,7.69-7.25,11.04-11.33c1.46-1.78,1.85-0.11,2.71,0.45
		c1.36,0.89,0.38,1.35-0.28,1.93c-4.21,3.7-4.23,3.73-0.17,7.61c4.35,4.16,8.72,8.29,13.15,12.36c0.96,0.88,1.11,1.32,0.02,2.2
		c-1.25,1.01-2.3,2.26-3.44,3.41c-1.17-1.15-2.32-2.32-3.5-3.46c-4.46-4.28-8.95-8.53-13.38-12.85c-1.02-0.99-1.62-0.98-2.47,0.17
		C68.95,83.14,67.65,84.53,66.42,85.98z"/>
	<path class="st0" d="M459.73,180.88c7.27-2.05,14.39-4.57,21.55-6.96c2.23-0.74,2.6-1.59,1.55-3.56c-0.8-1.52-1.29-3.19-1.98-4.77
		c-0.35-0.79-0.56-1.56,0.57-1.57c0.84-0.01,1.93-1.64,2.6,0.28c1.48,4.26,2.96,8.53,4.53,12.76c0.51,1.38-0.36,1.43-1.23,1.7
		c-6.74,2.1-13.48,4.2-20.2,6.34c-1.77,0.56-3.97,2.22-5.12,1.65c-1.23-0.61-1.45-3.25-2.1-5.01
		C459.82,181.51,459.8,181.25,459.73,180.88z"/>
	<path class="st0" d="M31.25,281.67c0.12,1.75-1.19,1.33-1.89,1.4c-7.14,0.68-14.18,2.05-21.27,3.08c-1.67,0.24-1.86,0.89-1.54,2.23
		c0.45,1.92,0.86,3.85,1.31,5.77c0.2,0.85,0.43,1.77-0.95,1.51c-0.8-0.15-2.1,1.44-2.41-0.72c-0.65-4.39-1.34-8.78-2.19-13.13
		c-0.25-1.3,0.08-1.44,1.23-1.59c8.56-1.15,17.2-1.74,25.64-3.74c0.74-0.18,1.22-0.23,1.35,0.76
		C30.72,278.79,30.69,280.38,31.25,281.67z"/>
	<path d="M454.66,107.91c0.56,0.91,1.11,1.81,1.69,2.7c1.87,2.87,1.87,2.86-1.2,4.67c-5.75,3.38-11.2,7.21-16.77,10.86
		c-1.16,0.76-1.1,1.32-0.36,2.28c1.51,1.95,2.93,3.96,4.4,5.95c-0.08,0.12-0.15,0.27-0.26,0.37c-1.93,1.78-3.01,1.14-4.24-1.01
		c-1.79-3.13-3.94-6.07-6.11-8.96c-0.99-1.33-0.66-1.76,0.61-2.53C439.92,117.66,447.54,113.27,454.66,107.91z"/>
	<path d="M408.78,96.57c-1.23-1.28-2.71-2.82-4.26-4.43c6.42-6.03,12.84-12.41,19.06-18.99c0.7-0.75,1.14-0.95,1.9-0.03
		c1.1,1.32,3.23,2.43,3.33,3.75c0.11,1.38-2.19,2.39-3.41,3.58C419.85,85.87,414.27,91.25,408.78,96.57z"/>
	<path d="M397.16,414.51c2.64,3.11,5.25,6.29,7.97,9.37c3.33,3.76,6.54,7.65,10.22,11.08c0.86,0.8,0.99,1.26-0.11,2.01
		c-1.4,0.95-2.77,3.15-3.89,2.98c-1.28-0.19-2.22-2.41-3.38-3.69c-4.85-5.39-9.68-10.8-14.62-16.1c-1.05-1.13-1.17-1.64,0.16-2.54
		C394.81,416.75,395.9,415.6,397.16,414.51z"/>
	<path class="st0" d="M327.93,486.76c-0.39,0.01-0.43-0.52-0.56-0.99c-2.43-8.53-5.48-16.86-8.68-25.13
		c-0.52-1.35,0.41-1.66,1.08-1.48c1.84,0.5,3.83-3.5,5.2-0.22c1.98,4.76,3.25,9.81,4.91,14.71c1.11,3.26,2.31,6.5,3.61,9.69
		c0.47,1.14,0.34,1.57-0.85,1.88C331.14,485.61,329.68,486.18,327.93,486.76z"/>
	<path class="st0" d="M498.24,223.36c0.42,1.53-0.34,1.41-1,1.45c-8.72,0.55-17.39,1.62-26.03,2.95c-1.07,0.16-1.74,0.09-1.62-1.29
		c0.15-1.69-1.21-3.91-0.18-4.88c1-0.94,3.27-0.56,4.99-0.7c6.98-0.59,13.97-1.15,20.86-2.44c2.05-0.38,2.86,0.02,2.69,2.18
		C497.87,221.68,498.16,222.75,498.24,223.36z"/>
	<path d="M96.16,408.38c-6.72,6.28-13.51,12.55-19.68,19.45c-0.11,0.12-0.23,0.36-0.32,0.36c-2.26-0.2-2.72-2.63-4.41-3.56
		c-0.96-0.53-0.36-1.05,0.15-1.5c6.66-5.94,12.89-12.31,18.96-18.84c0.65-0.7,0.96-0.5,1.5,0.1
		C93.56,405.74,94.85,407.02,96.16,408.38z"/>
	<path d="M234.12,1.26c-0.06,5.75,0.42,11.22,0.89,16.69c0.29,3.36,0.62,6.71,1.02,10.06c0.15,1.22-0.01,1.76-1.45,1.67
		c-1.68-0.1-4.1,0.81-4.89,0c-0.91-0.93-0.41-3.25-0.48-4.98c-0.3-6.99-0.68-13.97-1.58-20.9c-0.19-1.44-0.08-2.13,1.61-1.93
		C230.79,2.05,232.37,1.9,234.12,1.26z"/>
	<path d="M111.4,42.86c3.36,4.99,6.7,9.97,10.05,14.94c0.73,1.09,1.51,2.16,2.23,3.26c1.15,1.76,3.74,3.36,3.39,5.07
		c-0.29,1.44-3.1,2.37-4.94,3.62c-2.98-4.86-6.18-9.62-9.55-14.26c-1.89-2.59-3.68-5.25-5.6-7.82c-0.73-0.97-0.99-1.49,0.35-2.16
		C108.75,44.8,110.04,43.77,111.4,42.86z"/>
	<path class="st1" d="M200.43,476.31c2.19,0.05,3.88,1.78,3.88,3.96c0,2.11-1.85,3.98-3.93,3.97c-2.25-0.01-4.08-1.92-3.98-4.15
		C196.5,477.87,198.21,476.26,200.43,476.31z"/>
	<path class="st1" d="M35.38,148.96c2.23,0.05,3.84,1.72,3.84,3.97c-0.01,2.18-1.76,3.97-3.89,3.96c-2.21-0.01-4.14-2.01-4.03-4.15
		C31.42,150.57,33.2,148.91,35.38,148.96z"/>
	<path class="st0" d="M461.6,152.87c-2.16-0.04-3.92-1.8-3.93-3.94c-0.01-2.33,1.75-4.08,4.04-4c2.19,0.07,3.86,1.81,3.84,4
		C465.54,151.06,463.68,152.91,461.6,152.87z"/>
</g>
</svg>
