<?xml version="1.0" encoding="utf-8"?>
<!-- Generator: Adobe Illustrator 24.0.1, SVG Export Plug-In . SVG Version: 6.00 Build 0)  -->
<svg version="1.1" id="Camada_1" xmlns="http://www.w3.org/2000/svg" xmlns:xlink="http://www.w3.org/1999/xlink" x="0px" y="0px"
	 viewBox="0 0 500 500" style="enable-background:new 0 0 500 500;" xml:space="preserve">
<g>
	<path d="M257.76,0.56c0.65,7,0.32,14.02,0.48,21.03c0.02,0.99-0.35,1.48-1.42,1.5c-1.24,0.03-1.51-0.61-1.52-1.67
		c-0.03-4.08-0.08-8.16-0.16-12.24c-0.02-0.87,0.21-1.79-0.59-2.96c-0.55,1.57-1.04,2.88-1.48,4.2c-1.17,3.56-2.33,7.13-3.45,10.71
		c-0.36,1.15-0.69,2.12-2.23,2.08c-1.42-0.03-1.72-0.95-2.07-1.99c-1.4-4.17-2.82-8.34-4.25-12.51c-0.28-0.82-0.62-1.63-1.3-2.38
		c0,4.5,0.08,9.01-0.05,13.51c-0.04,1.2,1.09,3.46-1.39,3.37c-2.12-0.07-1.19-2.16-1.23-3.34c-0.22-6.44-0.29-12.89-0.41-19.33
		c1.47,0,2.94,0,4.41,0c1.47,0.55,1.94,1.89,2.42,3.17c1,2.68,1.83,5.41,2.76,8.12c0.28,0.83,0.45,1.73,1.34,2.83
		c1.09-2.75,1.82-5.29,2.62-7.8c0.71-2.25,0.95-4.77,3.11-6.32C254.82,0.56,256.29,0.56,257.76,0.56z"/>
	<path d="M246.35,306.71c-20.93,12.61-43.69,21.01-67.2,28.26c6.75,4.19,13.87,6.74,21.6,7.61c12.26,1.38,23.82-1.57,35.15-5.8
		c15.3-5.71,29.65-13.52,44.46-20.33c14.71-6.76,29.72-12.61,45.79-15.26c6.13-1.01,12.35-1.03,18.55-1.37
		c2.88-0.16,3.03-0.46,1.48-2.9c-2.13-3.37-5.37-5.19-9.09-6.18c-3.81-1.01-7.69-1.25-11.65-0.88c-9.18,0.87-18.36,1.89-27.6,1.34
		c-0.41-0.02-0.82-0.04-1.22-0.11c-0.7-0.12-1.64-0.14-1.72-1.01c-0.07-0.8,0.83-0.85,1.43-1.05
		c35.26-11.34,63.14-33.37,87.58-60.42c19.68-21.79,36.87-45.53,54.35-69.04c3.76-5.06,3.79-5.08,6.25,0.56
		c10.59,24.26,17.62,49.5,19.38,75.95c3.05,45.71-7.61,88.08-32.27,126.78c-20.58,32.3-47.47,57.95-81.16,76.32
		c-21.69,11.83-44.8,19.49-69.26,22.92c-30.98,4.35-61.6,2.19-91.61-6.52c-42.81-12.42-78.1-36.38-105.98-71.12
		c-21.5-26.78-35.96-56.98-43.11-90.62c-3.28-15.4-4.5-30.98-4.13-46.71c0.42-18,1.8-35.85,6.88-53.24c0.89-3.05,0.85-2.94,3.92-2.2
		c7.39,1.78,13.32,5.97,18.73,11.08c9.57,9.05,17.92,19.22,26.7,29c16.14,17.99,33.43,34.66,54.11,47.46
		c19.52,12.08,40.62,19.88,63.26,23.66c11.15,1.86,22.39,2.37,33.64,2.8c0.81,0.03,1.61,0.08,2.42,0.11
		C246.14,306.12,246.25,306.41,246.35,306.71z"/>
	<path d="M227.49,131.76c-0.02-2.68-0.68-3.28-3.38-3.33c-1.79-0.03-3.59,0-5.38,0c-1.92,0-2.9,1.03-2.91,2.86
		c-0.03,10.43-0.03,20.87,0,31.3c0,1.87,1.08,2.83,2.94,2.86c1.79,0.03,3.59,0.06,5.38,0.01c2.63-0.07,3.33-0.76,3.35-3.4
		c0.04-5.05,0.01-10.11,0.01-15.16C227.5,141.87,227.54,136.82,227.49,131.76z M273.83,132.74c-0.02-3.7-0.61-4.3-4.21-4.32
		c-8.08-0.02-7.55-0.64-7.52,7.52c0,1.55,0.06,3.1-0.01,4.65c-0.08,1.54,0.49,2.23,2.1,2.19c2.52-0.07,5.05-0.07,7.58,0
		c1.64,0.05,2.12-0.71,2.09-2.22C273.78,137.96,273.84,135.35,273.83,132.74z M273.83,132.74c-0.02-3.7-0.61-4.3-4.21-4.32
		c-8.08-0.02-7.55-0.64-7.52,7.52c0,1.55,0.06,3.1-0.01,4.65c-0.08,1.54,0.49,2.23,2.1,2.19c2.52-0.07,5.05-0.07,7.58,0
		c1.64,0.05,2.12-0.71,2.09-2.22C273.78,137.96,273.84,135.35,273.83,132.74z M227.49,131.76c-0.02-2.68-0.68-3.28-3.38-3.33
		c-1.79-0.03-3.59,0-5.38,0c-1.92,0-2.9,1.03-2.91,2.86c-0.03,10.43-0.03,20.87,0,31.3c0,1.87,1.08,2.83,2.94,2.86
		c1.79,0.03,3.59,0.06,5.38,0.01c2.63-0.07,3.33-0.76,3.35-3.4c0.04-5.05,0.01-10.11,0.01-15.16
		C227.5,141.87,227.54,136.82,227.49,131.76z M418.15,117.85c-17.84-23.28-39.93-41.56-65.46-55.88
		C321,44.2,286.89,35.99,252.16,35.43c-17.38,0.2-34.84,2.14-49.48,5.47c-42.42,9.67-78.61,30.29-108.59,61.8
		c-6.31,6.63-12.04,13.75-17.27,21.27c-1.23,1.76-0.94,2.5,0.9,3.42c3.72,1.86,7.15,4.24,10.48,6.76
		c12.78,9.68,23.56,21.37,33.64,33.74c11.2,13.75,20.73,28.72,31.28,42.94c14.26,19.25,29.03,38.04,47.4,53.65
		c12.24,10.4,25.56,18.86,41.2,23.35c18.13,5.2,34.3,2.48,48.9-10.1c15.78-13.59,28.69-29.38,39.05-47.37
		c9.01-15.64,16.74-31.95,25.17-47.89c6.66-12.57,13.73-24.87,22.9-35.83c10.5-12.54,23.18-21.71,39.3-25.61
		C420,120.33,420.02,120.3,418.15,117.85z M190.84,175.13c-2.11-0.14-4.24-0.02-6.37-0.03c-3.14-0.01-3.15-0.02-3.15-3.29
		c0-12.98,0-25.96,0-38.94c0-4.06-0.4-4.44-4.51-4.45c-1.14,0-2.28-0.01-3.43,0c-3.16,0.03-3.8,0.68-3.81,3.95
		c-0.01,4.33,0,8.65,0,12.98c0,8.98-0.08,17.96,0.05,26.93c0.03,2.33-0.77,2.99-2.95,2.85c-2.19-0.15-4.41-0.14-6.61,0
		c-2.05,0.13-2.67-0.68-2.65-2.68c0.08-8.57,0.03-17.14,0.03-25.71c0-8.4,0.06-16.81-0.04-25.22c-0.02-2.21,0.61-2.96,2.9-2.91
		c7.1,0.14,14.2,0.02,21.3,0.06c7.41,0.04,11.81,4.32,11.83,11.67c0.05,14.04-0.01,28.08,0.05,42.12
		C193.51,174.47,192.88,175.27,190.84,175.13z M239.62,163.96c-0.01,6.68-4.32,11.05-10.97,11.13c-4.73,0.05-9.46,0.07-14.19-0.01
		c-6.3-0.11-10.51-4.38-10.66-10.67c0-0.24,0-0.49,0-0.73v-16.88c0-5.71-0.05-11.42,0.02-17.12c0.07-6.52,4.4-10.86,10.92-10.97
		c4.65-0.07,9.3-0.08,13.94,0c6.56,0.12,10.93,4.64,10.94,11.25C239.65,141.28,239.65,152.62,239.62,163.96z M282.63,175.14
		c-1.94-0.17-3.93-0.18-5.87,0c-2.46,0.23-3.03-0.84-2.97-3.1c0.14-5.63-0.05-11.27,0.09-16.89c0.05-2.2-0.7-2.88-2.81-2.72
		c-2.19,0.16-4.41,0.13-6.61,0c-1.83-0.11-2.42,0.58-2.39,2.39c0.08,5.87-0.03,11.75,0.06,17.62c0.03,1.98-0.55,2.81-2.63,2.7
		c-2.52-0.14-5.06-0.08-7.59-0.02c-1.46,0.03-2-0.55-1.99-2.02c0.04-14.69-0.06-29.38,0.09-44.07c0.05-5.67,4.5-10.07,10.15-10.27
		c5.13-0.19,10.28-0.18,15.42-0.01c5.8,0.19,10.09,4.63,10.17,10.45c0.1,7.18,0.02,14.36,0.02,21.54h0.02c0,7.1-0.11,14.2,0.06,21.3
		C285.91,174.58,285.04,175.35,282.63,175.14z M329.42,175.14c-2.44-0.17-4.89-0.1-7.34-0.02c-1.59,0.05-2.14-0.58-2.12-2.16
		c0.06-6.04-0.03-12.08,0.05-18.11c0.02-1.75-0.43-2.54-2.32-2.43c-2.36,0.14-4.74,0.13-7.1,0c-1.79-0.09-2.44,0.49-2.41,2.35
		c0.1,5.87-0.06,11.75,0.08,17.62c0.05,2.21-0.71,2.87-2.81,2.74c-2.36-0.15-4.73-0.09-7.1-0.02c-1.5,0.04-2.25-0.42-2.24-2.06
		c0.04-14.61-0.08-29.21,0.11-43.82c0.08-6.27,4.62-10.43,10.89-10.54c4.65-0.08,9.3-0.09,13.95,0c6.45,0.12,10.88,4.48,10.99,11
		c0.12,7.18,0.02,14.36,0.02,21.54h0.02c0,7.02-0.06,14.04,0.03,21.05C332.18,174.34,331.66,175.3,329.42,175.14z M319.97,131.41
		c-0.02-1.98-0.99-3-3.01-2.98c-1.95,0.02-3.9,0-5.85,0.01c-1.91,0.01-2.82,1.06-2.86,2.9c-0.04,2.11-0.05,4.22-0.01,6.34
		c0.09,5.76-0.9,5.05,4.98,5.08c6.77,0.04,6.77,0.01,6.76-6.7C319.97,134.51,319.99,132.96,319.97,131.41z M273.83,132.74
		c-0.02-3.7-0.61-4.3-4.21-4.32c-8.08-0.02-7.55-0.64-7.52,7.52c0,1.55,0.06,3.1-0.01,4.65c-0.08,1.54,0.49,2.23,2.1,2.19
		c2.52-0.07,5.05-0.07,7.58,0c1.64,0.05,2.12-0.71,2.09-2.22C273.78,137.96,273.84,135.35,273.83,132.74z M227.49,131.76
		c-0.02-2.68-0.68-3.28-3.38-3.33c-1.79-0.03-3.59,0-5.38,0c-1.92,0-2.9,1.03-2.91,2.86c-0.03,10.43-0.03,20.87,0,31.3
		c0,1.87,1.08,2.83,2.94,2.86c1.79,0.03,3.59,0.06,5.38,0.01c2.63-0.07,3.33-0.76,3.35-3.4c0.04-5.05,0.01-10.11,0.01-15.16
		C227.5,141.87,227.54,136.82,227.49,131.76z M227.49,131.76c-0.02-2.68-0.68-3.28-3.38-3.33c-1.79-0.03-3.59,0-5.38,0
		c-1.92,0-2.9,1.03-2.91,2.86c-0.03,10.43-0.03,20.87,0,31.3c0,1.87,1.08,2.83,2.94,2.86c1.79,0.03,3.59,0.06,5.38,0.01
		c2.63-0.07,3.33-0.76,3.35-3.4c0.04-5.05,0.01-10.11,0.01-15.16C227.5,141.87,227.54,136.82,227.49,131.76z M227.49,131.76
		c-0.02-2.68-0.68-3.28-3.38-3.33c-1.79-0.03-3.59,0-5.38,0c-1.92,0-2.9,1.03-2.91,2.86c-0.03,10.43-0.03,20.87,0,31.3
		c0,1.87,1.08,2.83,2.94,2.86c1.79,0.03,3.59,0.06,5.38,0.01c2.63-0.07,3.33-0.76,3.35-3.4c0.04-5.05,0.01-10.11,0.01-15.16
		C227.5,141.87,227.54,136.82,227.49,131.76z"/>
	<path d="M462.27,129.42c-5.07,1.14-10.14,2.29-15.21,3.43c-1.17,0.26-2.28,0.75-3.14-0.8c-0.8-1.45,0.18-2.11,0.88-2.94
		c2.84-3.37,5.71-6.71,8.54-10.09c0.49-0.59,1.23-1.04,1.32-2.28c-4.49,2.73-8.79,5.33-13.08,7.94c-0.79,0.48-1.45,1.03-2.21-0.17
		c-0.78-1.24-0.13-1.72,0.8-2.28c5.31-3.21,10.59-6.44,15.89-9.66c0.82-0.5,1.74-1.28,2.46,0.06c0.63,1.17,2.13,2.15,0.62,3.83
		c-3.22,3.58-6.32,7.26-9.45,10.92c-0.57,0.66-1.35,1.2-1.53,2.33c1.26,0.34,2.38-0.25,3.5-0.49c4.38-0.95,8.77-1.88,13.11-3.03
		c2.22-0.59,2.66,0.99,3.41,2.27c0.85,1.46-0.51,1.84-1.34,2.35c-5.07,3.13-10.16,6.22-15.26,9.29c-0.89,0.53-1.81,1.6-2.77-0.12
		c-0.87-1.56,0.36-1.85,1.19-2.35c4.14-2.57,8.32-5.1,12.48-7.64C462.4,129.8,462.34,129.61,462.27,129.42z"/>
	<path d="M381.86,441.62c1.31,5.27,2.6,10.46,3.89,15.65c0.19,0.77,0.65,1.56-0.11,2.28c-1,0.94-1.91,1.26-3.17,0.18
		c-3.42-2.91-6.95-5.68-10.44-8.5c-0.67-0.54-1.36-1.04-2.44-1.18c2.62,4.09,5.24,8.17,7.85,12.26c0.34,0.54,0.88,1.04,0.76,1.75
		c-0.11,0.64-0.74,0.82-1.22,1.1c-0.86,0.49-1.19-0.24-1.52-0.75c-3.54-5.49-7.04-11-10.58-16.48c-0.54-0.84-0.64-1.46,0.36-1.98
		c1.21-0.62,2.15-2.03,3.84-0.58c3.71,3.2,7.54,6.24,11.35,9.33c0.61,0.49,1.1,1.25,2.36,1.15c-0.86-3.44-1.71-6.81-2.56-10.19
		c-0.46-1.82-0.77-3.7-1.44-5.44c-0.84-2.19,0.08-3.3,1.89-4.25c0.94-0.49,1.47-0.38,2.01,0.47c3.51,5.5,7.02,11.01,10.58,16.48
		c0.66,1.02,0.42,1.53-0.52,2.15c-1.12,0.74-1.57,0.12-2.1-0.71c-2.51-3.92-5.03-7.83-7.56-11.73
		C382.85,442.25,382.73,441.69,381.86,441.62z"/>
	<path d="M193.18,488.63c3.25-5.2,6.13-9.82,9.03-14.42c0.54-0.86,0.92-1.9,2.33-1.8c2.8,0.19,3.26,0.73,2.6,3.47
		c-1.37,5.7-2.75,11.41-4.13,17.11c-0.25,1.03-0.31,2.2-1.94,1.8c-1.6-0.39-1.19-1.46-0.94-2.49c1.16-4.89,2.33-9.77,3.04-14.84
		c-2.84,4.53-5.67,9.08-8.53,13.6c-0.46,0.72-0.73,1.74-1.88,1.66c-1.37-0.09-2.15-0.63-2.25-2.23c-0.34-5.04-0.86-10.07-1.31-15.11
		c-0.03-0.38-0.09-0.76-0.54-1.19c-1.04,4.32-2.08,8.65-3.12,12.97c-0.17,0.71-0.36,1.42-0.53,2.14c-0.22,0.93-0.7,1.4-1.74,1.22
		c-1.14-0.21-1.18-0.94-0.98-1.82c0.31-1.35,0.63-2.7,0.95-4.05c1.05-4.44,2.05-8.9,3.2-13.31c0.3-1.13-0.11-3.07,2.21-2.76
		c2.1,0.28,2.98,1.21,3.04,3.5c0.13,4.72,0.65,9.43,1.03,14.15C192.77,486.77,192.93,487.32,193.18,488.63z"/>
	<path d="M390.31,435.96c3.1,3.84,6.21,7.67,9.29,11.53c0.46,0.58,1.41,1.17,0.63,2.07c-0.63,0.72-1.39,1.5-2.38,0.26
		c-4.13-5.16-8.29-10.29-12.45-15.42c-0.55-0.68-0.72-1.28,0.1-1.82c1.12-0.73,1.86-2.44,3.72-1.19c4,2.68,8.05,5.27,12.1,7.88
		c0.81,0.52,1.52,1.24,2.89,1.47c-0.91-2.52-1.74-4.86-2.6-7.19c-1.12-3.06-2.23-6.13-3.41-9.17c-0.41-1.06-0.3-1.77,0.56-2.59
		c1.5-1.43,2.51-1.74,4.01,0.25c3.57,4.76,7.43,9.31,11.16,13.95c0.59,0.73,1.39,1.38,0.21,2.42c-1.27,1.1-1.86,0.26-2.54-0.59
		c-3.18-3.93-6.35-7.85-9.93-11.63c0.32,0.92,0.62,1.84,0.96,2.75c1.46,3.98,2.96,7.94,4.4,11.93c0.42,1.16,1.26,2.33-0.24,3.49
		c-1.41,1.09-2.27,0.05-3.24-0.57c-3.72-2.36-7.4-4.77-11.11-7.15c-0.59-0.38-1.22-0.68-1.83-1.02
		C390.49,435.74,390.4,435.85,390.31,435.96z"/>
	<path d="M90.97,80.91c-2.39-2.4-4.77-4.81-7.16-7.21c-1.09-1.1-2.2-2.18-3.27-3.3c-0.69-0.72-1.77-1.29-0.52-2.55
		c1.2-1.22,1.81-0.33,2.56,0.42c4.25,4.28,8.52,8.55,12.74,12.86c0.6,0.62,1.83,1.15,0.92,2.38c-0.77,1.03-1.64,1.67-3.11,1.33
		c-4.92-1.14-9.86-2.17-14.8-3.23c-1.1-0.24-2.21-0.44-3.58-0.71c0.49,1.56,1.64,2.25,2.49,3.14c2.55,2.64,5.14,5.23,7.72,7.84
		c0.75,0.76,1.64,1.38,0.38,2.54c-1.15,1.07-1.7,0.22-2.39-0.46c-4.32-4.33-8.64-8.65-12.93-13.01c-0.54-0.55-1.78-1.04-0.9-2.14
		c0.73-0.91,1.4-1.92,3-1.54c5.07,1.21,10.17,2.28,15.26,3.4c1.09,0.24,2.19,0.45,3.29,0.68C90.77,81.21,90.87,81.06,90.97,80.91z"
		/>
	<path d="M145.17,30.23c2,4.46,4,8.91,5.99,13.37c0.42,0.94,1.09,1.86-0.48,2.56c-1.64,0.74-1.79-0.53-2.19-1.41
		c-2.49-5.49-4.97-10.99-7.39-16.51c-0.31-0.71-1.33-1.56-0.19-2.33c1-0.68,2.07-1.28,3.37-0.41c3.05,2.04,6.15,4,9.23,5.99
		c2.18,1.41,4.37,2.82,6.57,4.24c0.66-0.77,0.07-1.3-0.16-1.82c-1.81-4.1-3.64-8.19-5.48-12.28c-0.4-0.88-0.7-1.61,0.53-2.16
		c1.13-0.51,1.65-0.08,2.08,0.88c2.65,5.87,5.31,11.73,7.95,17.61c0.29,0.65,0.68,1.38-0.32,1.87c-1.02,0.5-1.94,1.1-3.16,0.28
		c-3.8-2.54-7.65-4.99-11.49-7.46c-1.49-0.96-2.99-1.9-4.49-2.84C145.43,29.95,145.3,30.09,145.17,30.23z"/>
	<path d="M20.23,219.23c-5.08-0.56-9.85-1.09-14.61-1.6c-1.04-0.11-2.22,0.09-2.18-1.57c0.04-1.7,1.26-1.46,2.27-1.36
		c6.24,0.63,12.48,1.31,18.72,1.97c0.68,0.07,1.37,0.2,1.38,1.06c0.02,1.34-0.22,2.49-1.68,3.2c-4.25,2.07-8.44,4.26-12.66,6.4
		c-1.3,0.66-2.59,1.33-4.32,2.22c3.11,0.99,5.94,0.84,8.67,1.25c2.17,0.33,4.38,0.44,6.57,0.67c1,0.11,1.95,0.24,1.8,1.71
		c-0.16,1.53-1.14,1.28-2.13,1.18c-5.92-0.62-11.84-1.2-17.75-1.9c-0.88-0.1-2.37,0.46-2.5-1.21c-0.11-1.48,0.43-2.57,1.93-3.29
		c4.77-2.3,9.49-4.72,14.21-7.12C18.65,220.49,19.49,220.31,20.23,219.23z"/>
	<path d="M19.68,328.2c4.72-1.46,9.44-2.92,14.15-4.38c0.76-0.23,1.61-0.75,2.15,0.26c0.48,0.9,0.83,1.86-0.63,2.31
		c-6.3,1.95-12.59,3.92-18.89,5.88c-0.66,0.21-1.32,0.27-1.63-0.55c-0.43-1.15-0.81-2.2,0.23-3.38c2.79-3.18,5.47-6.47,8.18-9.73
		c1.23-1.48,2.44-2.99,3.71-4.56c-1.25-0.63-2.13,0.03-3,0.29c-3.9,1.16-7.78,2.41-11.66,3.64c-0.99,0.31-1.66,0.28-2.06-0.92
		c-0.42-1.25,0.2-1.59,1.16-1.88c6.06-1.89,12.13-3.79,18.19-5.68c0.81-0.25,1.63-0.47,2.08,0.55c0.52,1.17,0.65,2.23-0.32,3.37
		c-3.49,4.09-6.9,8.25-10.34,12.38c-0.55,0.66-1.06,1.35-1.6,2.03C19.49,327.94,19.59,328.07,19.68,328.2z"/>
	<path d="M470.21,324.81c4.81,1.51,9.62,3.03,14.43,4.54c1.01,0.32,1.85,0.64,1.4,2.01c-0.33,1.01-0.86,1.23-1.84,0.92
		c-6.21-1.97-12.43-3.91-18.65-5.85c-0.67-0.21-1.29-0.4-1.13-1.27c0.23-1.23,0.52-2.35,2.01-2.75c4.01-1.07,8.01-2.22,12.01-3.35
		c2.03-0.57,4.06-1.14,6.29-1.77c-0.59-0.91-1.44-0.93-2.14-1.16c-4.11-1.31-8.22-2.64-12.36-3.88c-1.05-0.31-1.6-0.68-1.25-1.86
		c0.34-1.16,1.09-1.27,2.08-0.96c6.14,1.92,12.29,3.83,18.42,5.77c0.6,0.19,1.3,0.39,1.13,1.31c-0.23,1.22-0.46,2.32-1.99,2.72
		c-5.12,1.35-10.21,2.8-15.31,4.22c-1.01,0.28-2.02,0.57-3.03,0.85C470.25,324.48,470.23,324.65,470.21,324.81z"/>
	<path d="M233.13,481.99c-1,0.98-0.71,2.02-0.77,2.94c-0.23,3.99-0.4,7.99-0.57,11.98c-0.04,1.04-0.04,1.98-1.53,1.9
		c-1.27-0.06-1.45-0.82-1.4-1.81c0.33-6.44,0.66-12.88,0.99-19.31c0.04-0.7,0.17-1.31,1.05-1.35c1.23-0.05,2.36-0.12,3.13,1.27
		c2.57,4.64,5.26,9.21,7.9,13.81c0.48,0.83,0.99,1.65,1.97,2.43c0.21-3.59,0.43-7.19,0.62-10.78c0.08-1.47,0.11-2.94,0.17-4.4
		c0.04-1.02,0.36-1.76,1.59-1.66c1.07,0.09,1.34,0.75,1.3,1.68c-0.31,6.36-0.62,12.71-0.94,19.07c-0.04,0.85-0.18,1.67-1.32,1.68
		c-1.07,0.02-2.05,0.04-2.71-1.14c-2.32-4.13-4.72-8.2-7.1-12.29C234.75,484.69,233.96,483.38,233.13,481.99z"/>
	<path d="M471.92,149.02c-3.71,1.57-7.41,3.14-11.12,4.7c-0.98,0.41-1.98,0.77-2.93,1.24c-0.97,0.48-1.47,0.19-1.89-0.75
		c-0.44-0.99-0.12-1.52,0.79-1.91c6.07-2.59,12.14-5.18,18.21-7.78c0.72-0.31,1.23-0.23,1.61,0.51c0.58,1.14,0.86,2.17,0,3.4
		c-2.95,4.21-5.79,8.49-8.66,12.75c-0.59,0.87-1.14,1.75-1.94,2.97c2.76-0.45,4.77-1.71,6.92-2.55c2.43-0.95,4.8-2.04,7.19-3.07
		c0.99-0.43,1.93-0.94,2.55,0.59c0.66,1.63-0.6,1.75-1.51,2.14c-5.54,2.37-11.09,4.74-16.66,7.05c-0.71,0.29-1.58,1.3-2.33,0.11
		c-0.64-1.02-1.21-2.05-0.3-3.36c3.07-4.42,6.04-8.91,9.04-13.38c0.48-0.72,0.92-1.46,1.38-2.19
		C472.16,149.34,472.04,149.18,471.92,149.02z"/>
	<path d="M19.1,239.81c-6.16-3.16-14.78-1.13-17.37,4.09c-0.25,0.51-0.47,1.04-0.63,1.59c-2.43,8.03,2.56,14.27,12.92,14.26
		c2.94-0.06,6.93-1.16,9.18-5.47C25.94,249.06,23.98,242.31,19.1,239.81z M21.61,249.77c-0.19,3.46-2.6,5.93-6.42,6.55
		c-0.88,0.14-1.78,0.17-2.38,0.22c-1.83-0.08-3.38-0.09-4.85-0.67c-3.09-1.2-4.67-3.56-4.61-7c0.05-3.3,1.64-5.56,4.77-6.62
		c2.52-0.86,5.12-0.91,7.69-0.27C19.93,243.02,21.84,245.63,21.61,249.77z"/>
	<path d="M357.39,450.85c-5.95-0.02-10.98,4.62-11.02,10.18c-0.05,7.03,5.49,13.69,11.39,13.69c5.92,0,11.04-4.71,11.1-10.2
		C368.94,457.69,363.22,450.87,357.39,450.85z M361.64,471.01c-2.77,1.41-5.4,1.12-7.72-0.87c-2.64-2.26-4.11-5.27-4.46-8.68
		c-0.31-3.03,1.07-5.36,3.8-6.79c2.7-1.41,5.37-1.41,7.75,0.58c2.88,2.41,4.36,5.59,4.58,8.26
		C365.73,467.62,364.27,469.67,361.64,471.01z"/>
	<path d="M39.85,147.18c-2.47-1.81-5.27-2.93-8.33-3.29c-4.18-0.49-7.76,1.54-9.79,5.47c-2.24,4.33-2.02,8.49,0.8,11.64
		c2.98,3.32,6.85,4.85,10.42,5.17c5.42,0,8.91-2.71,10.54-7.53C45,154.17,43.71,150,39.85,147.18z M40.57,158.79
		c-1.33,2.96-4.04,4.58-7.28,4.2c-2.9-0.34-5.51-1.43-7.71-3.37c-2.48-2.19-3.15-4.99-1.98-7.93c1.28-3.23,3.53-4.74,7.63-4.64
		c2.53,0.18,5.33,1.38,7.7,3.5C41.36,152.74,41.91,155.8,40.57,158.79z"/>
	<path d="M284.42,10.13c-0.9-5.48-4.32-8.53-10.02-8.88c-5.18-0.32-9.07,2.46-10.56,7.6c-0.46,1.57-0.79,3.17-0.7,4.67
		c-0.04,6.83,3.62,11.02,9.92,11.49c5.97,0.45,10.17-3.13,11.21-9.52C284.57,13.69,284.72,11.93,284.42,10.13z M280.3,17.89
		c-1.44,3.36-4.07,4.77-7.91,4.25c-3.15-0.42-5.34-2.64-5.86-6c-0.35-2.29-0.24-4.57,0.48-6.78c1.33-4.09,4.34-5.97,8.43-5.32
		c3.47,0.55,5.7,3.36,5.86,7.37c0.01,0.41,0,0.82,0,1.22C281.38,14.47,281.02,16.22,280.3,17.89z"/>
	<path d="M298.86,485.66c-0.09-1.61-0.41-3.24-0.89-4.79c-1.73-5.61-6.16-8.32-11.83-7.37c-5.61,0.94-8.78,4.75-8.79,10.8
		c-0.14,1.43,0.21,3.03,0.62,4.61c1.6,6.09,6.09,8.99,12.33,7.99C295.87,496.01,299.21,491.7,298.86,485.66z M289.32,494.39
		c-3.87,0.55-6.92-1.69-8.16-6.05c-0.58-2.04-0.9-4.13-0.48-6.26c0.69-3.55,2.8-5.51,6.44-5.96c3.15-0.39,5.85,1.14,7.27,4.2
		c0.87,1.87,1.24,3.86,1.23,5.32C295.68,490.95,293.48,493.8,289.32,494.39z"/>
	<path d="M163.1,459.66c-2.79-1.34-5.67-2.52-8.48-3.82c-1.18-0.55-1.76-0.2-2.2,0.97c-0.6,1.6-1.35,3.15-2.03,4.72
		c-1.75,4.04-3.54,8.07-5.24,12.13c-0.38,0.91-1.47,2.01,0.33,2.83c1.92,0.87,1.94-0.75,2.48-1.72c0.2-0.36,0.34-0.74,0.51-1.11
		c2.55-5.81,2.52-5.76,8.15-2.82c2.03,1.07,2.67,2.46,1.9,4.59c-0.52,1.46-0.97,2.95-1.48,4.41c-0.63,1.81,0.8,2.07,1.91,2.46
		c1.8,0.61,0.96-0.94,1.18-1.57c0.52-1.54,1-3.1,1.45-4.67c0.33-1.16,1.01-2.37,0.4-3.55c-0.6-1.17-0.14-1.49,0.86-1.92
		c2.59-1.08,3.34-3.38,3.66-5.7C166.37,462.32,165.15,460.64,163.1,459.66z M163.23,464.68c-0.05,2.69-1.97,4.32-4.53,3.88
		c-2.11-0.36-3.93-1.5-5.89-2.27c-0.07-0.03-0.17-0.07-0.2-0.13c-1.17-2.23,1.06-3.61,1.44-5.46c0.16-0.79,0.6-1.86,1.85-1.35
		c2.1,0.86,4.25,1.62,6.13,2.94C162.89,462.88,163.31,463.73,163.23,464.68z"/>
	<path d="M488.67,287.41c-1.35-0.52-2.8-0.89-4.24-1.1c-6.56-0.94-11.39,2.35-12.5,8.4c-1.14,6.22,1.98,10.89,8.42,12.49
		c1.42,0.35,2.86,0.72,4.15,0.58c5.93,0.03,9.66-2.97,10.76-8.49C496.33,293.86,493.94,289.46,488.67,287.41z M492.4,299.65
		c-0.96,3.16-3.61,4.99-7.6,5.02c-2.11-0.16-4.52-0.52-6.69-1.75c-2.7-1.53-4.11-4.29-3.67-7.13c0.53-3.45,2.6-5.73,5.92-6.26
		c3.24-0.52,6.35,0.12,9.14,1.82C492.41,293.13,493.43,296.25,492.4,299.65z"/>
	<path d="M181.77,16.71c-2.18-3.18-5.38-4.44-9.15-3.48c-2.68,0.68-5.27,1.68-7.92,2.47c-1.32,0.39-1.6,1.04-1.15,2.35
		c2.04,5.93,4.02,11.88,5.96,17.85c0.41,1.24,0.95,1.76,2.3,1.27c2.37-0.88,4.81-1.55,7.15-2.49c3.85-1.54,5.81-4.64,5.79-9.46
		C184.56,22.57,183.66,19.46,181.77,16.71z M177.92,32.05c-5.55,2.63-5.54,2.62-7.44-3.04c-1.06-3.16-2.1-6.33-3.21-9.47
		c-0.44-1.25-0.21-1.98,1.15-2.34c1.88-0.49,3.65-1.41,5.64-1.46c3.46-0.01,6.1,2.8,7.23,7.7
		C182.32,27.88,181.32,30.44,177.92,32.05z"/>
	<path d="M444.3,405.45c-0.99-0.24-1.74-0.84-2.57-1.38c-2-1.3-3.6-3.4-6.39-3.2c-0.84,0.06-0.64-0.76-0.71-1.29
		c-0.36-2.87-2.19-4.47-4.76-5.3c-2.41-0.78-4.32,0.28-5.9,1.99c-1.93,2.1-3.69,4.36-5.67,6.41c-1.2,1.24-0.88,1.95,0.27,2.92
		c4.36,3.68,8.62,7.48,13.02,11.11c0.89,0.74,1.7,3.07,3.43,1.12c1.85-2.08-0.71-2.63-1.6-3.41c-5.18-4.59-5.2-4.51-0.03-9.27
		c1.37-1.26,2.65-1.43,4.14-0.34c1.38,1.01,2.77,2.01,4.16,3.01c0.66,0.48,1.35,0.64,1.98-0.02c0.5-0.52,0.94-1.1,1.49-1.76
		C444.79,405.78,444.57,405.51,444.3,405.45z M427.08,408.11c-0.14,0.15-0.6,0.06-0.89-0.01c-0.22-0.06-0.42-0.25-0.58-0.43
		c-1.32-1.5-4.44-2.55-3.98-4.17c0.68-2.4,2.94-4.42,5.23-5.91c1.08-0.7,2.19-0.47,3.21,0.25c1.18,0.85,1.98,1.92,2.05,3.46
		C431.19,404.12,429.04,406.06,427.08,408.11z"/>
	<path d="M385.81,40.77c-2.36-1.61-4.83-3.05-7.17-4.68c-1.4-0.98-2.22-0.75-3.1,0.69c-2.95,4.79-6.06,9.49-8.95,14.31
		c-0.63,1.04-2.9,2.35-0.45,3.74c2.23,1.26,2.28-1.23,2.91-2.19c3.7-5.66,4.3-5.76,9.39-1.23c1.32,1.18,1.54,2.38,0.74,3.89
		c-0.8,1.51-1.54,3.06-2.37,4.56c-0.93,1.7,0.45,2.18,1.47,2.72c1.62,0.87,1.12-0.75,1.44-1.37c0.74-1.46,1.44-2.92,2.16-4.38
		c0.47-0.96,1.14-1.92,0.93-2.99c-0.28-1.45,0.24-1.95,1.59-2.37c2.4-0.75,4.1-3.32,4.17-6.19
		C388.55,43.53,387.51,41.93,385.81,40.77z M380.27,49.01c-1.92-0.83-3.66-2.08-5.48-3.15c-0.07-0.04-0.13-0.1-0.19-0.16
		c-1.07-1.08,0.02-1.89,0.53-2.49c1.13-1.31,1.33-4.26,3.42-3.73c2.32,0.6,4.47,2.26,6.19,4.17c0.46,0.51,0.6,1.14,0.63,1.6
		C385.33,48.07,382.67,50.04,380.27,49.01z"/>
	<path d="M97.07,417.42c-1.86-1.94-3.95-3.66-5.84-5.58c-1.03-1.05-1.69-0.78-2.56,0.18c-4.23,4.64-8.5,9.25-12.8,13.83
		c-0.91,0.98-1.05,1.68,0.04,2.61c1.91,1.65,3.69,3.46,5.61,5.1c1.58,1.36,3.42,2.22,5.61,2.15c5.38-0.32,8.72-3.65,11.25-7.94
		C100.5,424.16,99.97,420.44,97.07,417.42z M96,425.42c-1.61,3.88-5.86,7.33-10.14,7.29c-2.41-0.15-4.25-2.86-6.49-4.92
		c-0.7-0.64,0.04-1.18,0.46-1.64c3.15-3.43,6.33-6.82,9.44-10.27c0.84-0.94,1.52-1.07,2.38-0.09c0.53,0.61,1.17,1.15,1.77,1.69
		C95.85,419.62,97.41,422.01,96,425.42z"/>
	<path d="M448.92,99.42c-1.43-1.98-2.97-3.89-4.37-5.89c-0.96-1.37-1.81-1.54-3.16-0.46c-3.18,2.55-6.49,4.93-9.67,7.47
		c-2.08,1.67-5.74,2.89-5.81,5.12c-0.06,2.12,2.77,4.37,4.44,6.47c3.42,4.28,7.43,5.09,12.37,2.62c2.22-1.11,4.14-2.6,5.73-4.49
		c1.41-1.68,2.15-3.63,2.23-5.8C450.57,102.59,449.99,100.9,448.92,99.42z M439.62,112.73c-3.12,1.01-5.18,0.19-7.72-3.07
		c-2.64-3.39-2.64-3.39,0.74-5.97c2.97-2.27,5.96-4.53,8.9-6.84c0.94-0.74,1.65-0.87,2.41,0.23c1.51,2.18,3.64,4.02,3.69,6.59
		C447.57,107.34,443.86,111.36,439.62,112.73z"/>
	<path d="M498.44,226.3c-0.25-2.6-0.5-5.19-0.73-7.79c-0.12-1.37-0.67-2.06-2.18-1.9c-6.24,0.67-12.48,1.27-18.73,1.89
		c-1.03,0.1-1.66,0.44-1.57,1.66c0.1,1.48,1.05,1.41,2.07,1.31c2.03-0.18,4.06-0.37,6.09-0.56c0.9-0.08,1.62,0.02,1.7,1.19
		c0.12,1.78,0.33,3.57,0.47,5.36c0.15,1.95-0.78,3.06-2.71,3.41c-1.68,0.3-3.36,0.62-5.03,0.99c-1.87,0.41-1.31,1.83-1.05,2.95
		c0.38,1.65,1.21,0.22,1.81,0.12c1.04-0.16,2.08-0.41,3.1-0.66c1.94-0.47,4.13-0.31,5.48-2.24c0.39-0.56,0.82-0.32,1.23,0.02
		c2.39,2.02,4.98,1.84,7.5,0.44C498.31,231.14,498.6,228.79,498.44,226.3z M492.7,230.33c-2.52,0.35-3.88-0.74-4.5-3.63
		c-0.03-0.16-0.06-0.32-0.09-0.48c-0.95-5.94-0.58-6.34,5.48-6.45c1.16-0.02,1.64,0.42,1.73,1.49c0.13,1.54,0.28,3.07,0.43,4.74
		C495.84,228.66,494.91,230.02,492.7,230.33z"/>
	<path d="M478.26,185.51c0.12-1.46,0.14-2.94,0.38-4.38c0.52-3.19,3.12-5.04,6.36-4.63c2.85,0.37,5.12,2.85,6.05,6.62
		c0.88,3.59,0.08,6.42-2.41,8.08c-0.72,0.48-1.62,1.52-2.5,0.38c-0.85-1.09-0.43-1.94,0.71-2.82c2.61-2.01,2.35-6.8-0.34-8.76
		c-2.08-1.51-4.45-0.49-4.78,2.29c-0.3,2.5-0.08,5.05-0.24,7.57c-0.23,3.65-2.17,5.64-5.6,5.93c-0.48,0.04-0.98,0.02-1.46-0.05
		c-3.21-0.46-5.69-3.42-6.48-7.72c-0.73-3.96,0.49-7.02,3.49-8.62c0.71-0.38,1.62-1.23,2.29,0c0.56,1.04,0.37,1.81-0.79,2.6
		c-3.37,2.3-3.25,7.72,0.09,10.07c2.09,1.47,4.57,0.6,5.09-1.93c0.31-1.5,0.26-3.08,0.37-4.62
		C478.4,185.52,478.33,185.52,478.26,185.51z"/>
	<path d="M50.25,100.79c0.95,0.65,1.47,0.9,1.86,1.3c0.62,0.64,0.08,1.22-0.27,1.73c-1.76,2.55-3.48,5.12-5.33,7.61
		c-0.93,1.25-0.87,1.98,0.47,2.93c3.86,2.73,3.81,2.79,6.45-1.03c1.07-1.54,2.14-3.08,3.21-4.62c0.56-0.8,1.01-1.73,2.27-0.8
		c1.17,0.86,0.42,1.51-0.07,2.22c-1.58,2.28-3.12,4.58-4.76,6.81c-0.78,1.06-0.8,1.7,0.35,2.57c4.63,3.49,4.6,3.54,7.99-1.31
		c1.17-1.67,2.33-3.34,3.5-5.01c0.49-0.7,0.94-1.31,1.95-0.59c0.94,0.66,1.08,1.23,0.41,2.19c-2.55,3.59-5.04,7.21-7.53,10.84
		c-0.61,0.89-1.16,1.2-2.17,0.48c-5.32-3.76-10.68-7.47-16.04-11.19c-0.79-0.55-1.12-1.06-0.47-1.99c2.59-3.66,5.14-7.35,7.68-11.03
		C49.98,101.57,50.09,101.15,50.25,100.79z"/>
	<path d="M297.24,28.47c-2.29-0.19-4.54-0.53-6.5-1.87c-2.11-1.44-3.23-3.43-3.13-6c0.03-0.72-0.29-1.84,1.03-1.77
		c0.9,0.04,1.65,0.28,1.9,1.47c0.86,4.08,3.2,5.72,7.29,5.33c1.69-0.16,3.01-0.84,3.52-2.54c0.5-1.68-0.37-2.92-1.69-3.72
		c-2.01-1.23-4.17-2.23-6.21-3.42c-2.98-1.74-3.81-3.38-3.3-6.16c0.48-2.63,2.41-4.46,5.38-4.96c2.68-0.46,5.21,0.11,7.49,1.57
		c1.42,0.9,2.5,2.19,2.72,3.9c0.13,1,0.81,2.5-0.78,2.88c-1.64,0.4-1.87-0.89-2.16-2.22c-0.7-3.22-5.78-4.94-8.42-2.97
		c-1.78,1.33-1.72,3.32,0.25,4.94c2.04,1.68,4.6,2.45,6.87,3.73c2,1.13,3.34,2.69,3.25,5.06c-0.1,2.62-1.24,4.71-3.7,5.9
		C299.84,28.2,298.58,28.52,297.24,28.47z"/>
	<path d="M117.97,434.32c-0.22,1.13-0.65,1.62-1.17,2.01c-0.62,0.47-1.07-0.08-1.5-0.41c-2.4-1.84-4.85-3.62-7.14-5.58
		c-1.5-1.29-2.41-1.05-3.5,0.49c-2.88,4.06-3.06,2.92,0.83,6.02c1.47,1.17,2.98,2.28,4.45,3.45c0.73,0.58,1.81,1.03,0.88,2.3
		c-0.95,1.29-1.65,0.4-2.4-0.18c-2.2-1.69-4.42-3.37-6.58-5.1c-0.97-0.78-1.59-0.69-2.43,0.27c-3.9,4.47-3.93,4.44,0.85,8.09
		c1.62,1.24,3.22,2.5,4.84,3.75c0.68,0.53,1.27,1.01,0.5,1.98c-0.72,0.91-1.34,0.96-2.24,0.25c-3.46-2.73-6.94-5.43-10.46-8.09
		c-0.98-0.74-0.88-1.38-0.21-2.23c3.97-5.09,7.92-10.18,11.85-15.29c0.65-0.84,1.16-1.16,2.16-0.36c3.37,2.71,6.82,5.32,10.25,7.96
		C117.33,433.97,117.76,434.19,117.97,434.32z"/>
	<path d="M416.61,408.25c-0.01,0.65-0.53,0.98-0.93,1.36c-2.09,2.06-4.14,4.17-6.32,6.13c-1.3,1.17-1.52,1.95-0.13,3.31
		c3.22,3.16,3.14,3.23,6.42,0.02c1.46-1.43,2.93-2.84,4.37-4.28c0.62-0.62,1.16-0.77,1.87-0.09c0.78,0.74,0.7,1.32-0.04,2.03
		c-2.07,1.97-4.05,4.03-6.16,5.95c-1.2,1.09-1.11,1.82-0.02,2.97c3.78,3.96,3.74,4,7.61,0.23c1.52-1.48,3.07-2.93,4.57-4.43
		c0.72-0.72,1.33-1.11,2.21-0.16c0.75,0.81,0.58,1.38-0.12,2.06c-3.23,3.12-6.45,6.24-9.64,9.39c-0.8,0.79-1.37,0.55-2.04-0.15
		c-4.49-4.62-8.98-9.25-13.51-13.83c-0.87-0.89-0.94-1.52,0-2.41c3.08-2.92,6.09-5.91,9.14-8.86c0.45-0.44,0.92-1.04,1.67-0.55
		C416.02,407.27,416.47,407.63,416.61,408.25z"/>
	<path d="M366.01,40.26c-0.47,1.55-1.04,2.07-2.27,1.4c-2.51-1.36-5.08-2.6-7.58-3.99c-1.27-0.71-1.93-0.55-2.65,0.8
		c-2.7,5.02-2.75,4.99,2.36,7.61c1.81,0.93,3.61,1.89,5.44,2.8c0.95,0.47,1.39,0.97,0.79,2.08c-0.55,1.03-1.17,0.88-1.99,0.46
		c-3.91-2.02-7.83-4.03-11.76-6.01c-1.02-0.51-1.22-1.09-0.68-2.13c2.97-5.71,5.91-11.45,8.82-17.2c0.58-1.15,1.2-1.3,2.31-0.71
		c3.75,1.98,7.53,3.9,11.32,5.8c0.95,0.48,1.36,0.97,0.81,2.08c-0.61,1.23-1.33,0.85-2.18,0.42c-2.75-1.42-5.55-2.76-8.25-4.28
		c-1.44-0.81-2.08-0.45-2.8,0.92c-2.18,4.11-2.23,4.08,1.97,6.25c1.74,0.9,3.48,1.8,5.21,2.71
		C365.43,39.56,366.12,39.8,366.01,40.26z"/>
	<path d="M459.9,378.99c1.08,0.07,1.27-0.78,1.61-1.36c1.61-2.65,3.17-5.33,4.76-7.99c0.49-0.83,0.84-1.81,2.2-1.02
		c1.33,0.77,0.76,1.56,0.25,2.42c-2.12,3.58-4.29,7.14-6.35,10.75c-0.75,1.32-1.46,1.39-2.71,0.63c-5.37-3.26-10.79-6.45-16.22-9.6
		c-1.25-0.72-1.24-1.4-0.55-2.53c2.18-3.55,4.27-7.14,6.38-10.73c0.49-0.84,0.93-1.51,2.08-0.81c1.1,0.67,0.86,1.38,0.34,2.24
		c-1.59,2.66-3.12,5.36-4.76,7.99c-0.73,1.18-0.83,1.93,0.58,2.72c5.14,2.87,3.74,3,6.58-1.56c0.95-1.52,1.84-3.08,2.75-4.63
		c0.51-0.86,0.91-1.81,2.23-1c1.22,0.76,0.52,1.51,0.09,2.25c-1.4,2.39-2.8,4.79-4.27,7.15c-0.72,1.15-0.6,1.87,0.65,2.52
		C457.06,377.22,458.5,378.16,459.9,378.99z"/>
	<path d="M73.68,394.47c0.06,1.28-0.39,2.66-1.38,3.82c-0.48,0.56-1.02,1.51-1.96,0.58c-0.63-0.63-1.13-1.19-0.52-2.31
		c1.69-3.13,0.92-5.95-1.91-7.79c-1.24-0.8-2.57-1.08-3.91-0.27c-1.34,0.81-1.38,2.16-1.15,3.48c0.4,2.27,1.62,4.26,2.43,6.39
		c1.42,3.71,0.86,6.08-1.89,7.94c-2.58,1.75-5.98,1.41-8.57-0.86c-4.3-3.76-5.34-8.48-2.58-12.05c0.48-0.62,0.92-1.88,2.04-1.1
		c1.02,0.71,1.22,1.58,0.35,2.88c-2.21,3.29,0.1,8.39,4.03,9.24c2.53,0.55,4.34-1.16,3.94-3.76c-0.36-2.37-1.63-4.43-2.41-6.65
		c-1.37-3.91-0.92-5.92,1.8-7.72c2.59-1.71,5.59-1.29,8.26,1.14C72.41,389.4,73.67,391.89,73.68,394.47z"/>
	<path d="M224.57,478.35c-3.02-0.41-6.02-0.77-8.99-1.24c-1.23-0.19-1.78,0.11-1.95,1.41c-0.76,5.75-1.3,4.9,4.05,5.67
		c1.86,0.27,3.71,0.56,5.56,0.84c0.85,0.13,1.64,0.24,1.41,1.47c-0.21,1.14-1,1.17-1.84,1.06c-2.75-0.35-5.51-0.64-8.23-1.16
		c-1.7-0.33-2.2,0.37-2.35,1.85c-0.64,6.44-1.73,5.08,4.61,6.16c2.09,0.36,4.19,0.62,6.29,0.89c0.98,0.13,1.41,0.6,1.32,1.63
		c-0.1,1.18-0.77,1.24-1.7,1.11c-4.28-0.59-8.56-1.18-12.84-1.74c-1.35-0.18-1.76-0.89-1.57-2.19c0.89-6.13,1.77-12.26,2.59-18.4
		c0.21-1.59,0.98-2.03,2.48-1.8c3.79,0.58,7.59,1.06,11.37,1.63c1.07,0.16,2.45,0.13,2.1,1.93
		C226.57,479.12,225.38,478.21,224.57,478.35z"/>
	<path d="M350.66,22.23c-0.19,0.53-0.37,1.07-0.58,1.6c-2.19,5.53-4.38,11.06-6.6,16.57c-0.39,0.98-0.55,2.37-2.3,1.67
		c-1.7-0.68-0.98-1.74-0.57-2.78c0.77-1.97,1.51-3.96,2.36-5.9c0.52-1.19,0.44-1.91-0.93-2.41c-2.6-0.94-5.18-1.96-7.72-3.07
		c-1.26-0.55-1.76-0.09-2.18,1.01c-0.81,2.13-1.69,4.24-2.54,6.35c-0.38,0.94-0.69,1.87-2.08,1.31c-1.25-0.5-1.25-1.24-0.81-2.32
		c2.38-5.89,4.72-11.8,7.06-17.71c0.39-0.98,0.87-1.42,2.03-0.97c1.15,0.44,1.26,1.03,0.84,2.05c-0.75,1.8-1.4,3.65-2.17,5.45
		c-0.54,1.27-0.17,1.95,1.09,2.42c2.52,0.94,5.03,1.91,7.48,3c1.37,0.61,1.91,0.04,2.34-1.11c0.72-1.9,1.48-3.79,2.25-5.68
		c0.26-0.63,0.61-1.22,1.46-0.78C349.69,21.24,350.57,21.23,350.66,22.23z"/>
	<path d="M96.09,58.27c-0.06-6.74,7.78-12.29,13.48-9.5c0.85,0.42,2.37,0.79,1.78,2.11c-0.54,1.21-1.7,1.37-3.08,0.64
		c-2.26-1.19-4.44-0.5-6.39,0.98c-2.04,1.55-3.18,3.63-2.67,6.17c0.79,3.95,3.01,7.03,6.59,8.95c2.53,1.36,5.53,0.91,7.52-0.93
		c2.12-1.97,2.91-4.37,1.67-7.07c-0.66-1.45-0.13-2.24,1.05-2.69c1.31-0.5,1.37,0.83,1.68,1.54c1.37,3.12,0.93,6.12-1.15,8.74
		c-2.3,2.89-5.29,4.69-9.13,4.17C101.85,70.61,96.14,63.91,96.09,58.27z"/>
	<path d="M404.08,55.92c5.61-0.04,11.09,5.41,10.34,10.4c-0.18,1.18-0.23,3.1-1.77,2.97c-1.68-0.14-1.59-1.67-1.27-3.25
		c0.82-4.07-4.05-8.09-8.33-7.04c-3.87,0.95-8.01,6.08-8.18,10.06c-0.12,2.72,1.01,4.74,3.3,6.1c2.25,1.33,4.57,1.29,6.65-0.26
		c1.2-0.9,2.1-0.84,2.85,0.29c0.86,1.29-0.52,1.71-1.19,2.19c-5.29,3.81-13.46,0.06-14.67-6.7
		C390.67,64.28,397.58,55.97,404.08,55.92z"/>
	<path d="M42.08,378.85c1.67,0.04,2.97-0.62,4.24-1.38c3.23-1.91,6.46-3.82,9.67-5.74c1.01-0.6,1.9-1.32,2.83,0.2
		c0.94,1.52-0.31,1.86-1.13,2.36c-3.56,2.15-7.11,4.31-10.73,6.35c-2.77,1.56-5.73,2.16-8.56,0.24c-3.06-2.08-4.89-5.06-4.97-8.81
		c-0.05-2.46,1.38-4.39,3.36-5.67c4.11-2.65,8.34-5.11,12.5-7.68c1.08-0.67,1.6-0.13,2.13,0.74c0.58,0.94,0.24,1.44-0.61,1.94
		c-3.72,2.19-7.47,4.35-11.1,6.68c-3.84,2.47-4.04,6.58-0.62,9.59C39.98,378.47,40.99,378.95,42.08,378.85z"/>
	<path d="M55,133.36c0.01,6.96-5.9,11.56-12.46,9.89c-2.57-0.65-4.91-1.78-6.93-3.49c-5.64-4.76-5.17-13.1,0.93-16.91
		c1.64-1.02,3.44-1.54,5.37-1.14c0.63,0.13,1.72,0.1,1.57,1.12c-0.14,0.92-0.51,1.99-1.85,1.83c-1.81-0.22-3.37,0.23-4.71,1.5
		c-3.25,3.09-3.33,7.2-0.15,10.36c1.95,1.94,4.28,3.24,6.99,3.79c3.24,0.65,6.06-0.56,7.55-3.2c1.53-2.72,1.27-5.26-1.16-7.78
		c-1.06-1.09-0.75-1.89-0.01-2.7c0.98-1.08,1.58,0.11,2.14,0.62C54.13,128.93,55.08,131.04,55,133.36z"/>
	<path d="M446.31,399.45c-5.08,0.01-11.08-4.03-12.93-8.71c-2.11-5.33,1.5-12.21,7.08-13.52c0.89-0.21,1.79-0.36,2.66-0.12
		c0.95,0.26,2.57,0.18,2.46,1.43c-0.12,1.44-1.35,1.82-2.96,1.59c-4.45-0.61-8.22,4.65-6.58,8.99c1.34,3.56,6.26,7.15,10.04,7.25
		c2.78,0.08,4.86-1.11,6.21-3.58c1.33-2.43,1.12-4.77-0.63-6.83c-0.98-1.15-0.97-2.09,0.15-2.87c1.2-0.84,1.75,0.46,2.27,1.12
		c2.23,2.84,2.52,6.02,0.98,9.21C453.31,397.03,450.59,399.43,446.31,399.45z"/>
	<path d="M326.29,470.54c0.08-4.51,1.92-7.52,5.56-9.25c3.23-1.54,6.59-2.05,9.75,0.23c0.96,0.69,2.66,1.61,1.73,2.94
		c-0.94,1.34-2.29,0.55-3.51-0.49c-2.05-1.76-4.42-1.31-6.67-0.24c-2.55,1.21-3.81,3.34-3.73,6.09c0.09,3.18,1.19,6.08,3.26,8.53
		c2.04,2.41,4.98,3.15,7.73,2.08c2.81-1.09,4.18-3.14,4.02-6.54c-0.06-1.35,0.35-2.11,1.56-2.25c1.5-0.18,1.32,1.15,1.41,2.03
		c0.39,3.83-1.57,7.22-5.11,8.96c-3.88,1.92-8.06,1.53-10.96-1.19C328.08,478.38,326.53,474.52,326.29,470.54z"/>
	<path d="M499.46,246.62c0.23-1.5-0.83-1.95-1.95-2.35c-6.15-2.19-12.29-4.4-18.44-6.56c-0.73-0.25-1.76-1.14-2.15,0.38
		c-0.29,1.13,0.02,2.07,1.33,2.47c1.32,0.4,2.63,0.89,3.94,1.34c0.72,0.25,1.42,0.51,1.41,1.45c-0.01,2.52,0.44,5.18-0.22,7.53
		c-0.45,1.61-3.05,1.49-4.63,2.27c-0.29,0.14-0.63,0.21-0.89,0.39c-1.01,0.7-0.86,1.77-0.53,2.66c0.42,1.1,1.29,0.28,1.85,0.06
		c6.17-2.35,12.32-4.77,18.49-7.14C498.85,248.66,499.7,248.06,499.46,246.62z M487.93,249.74c-0.71,0.25-1.36,0.16-1.4-0.75
		c-0.07-1.46-0.1-2.92-0.05-4.37c0.03-0.86,0.6-1.04,1.37-0.77c2.5,0.87,5.02,1.73,7.53,2.59c0.01,0.2,0.03,0.4,0.05,0.59
		C492.93,247.94,490.43,248.86,487.93,249.74z"/>
	<path d="M29.88,195.95c-0.05-0.97-0.81-0.82-1.66-0.86c-6.55,1.06-13.29,2.2-20.04,3.21c-1.41,0.22-1.85,0.97-2.14,2.18
		c-0.32,1.37,0.52,1.88,1.46,2.46c5.54,3.42,11.06,6.88,16.61,10.28c0.64,0.4,1.48,1.56,2.2,0.36c0.57-0.94,0.74-2.17-0.68-2.91
		c-1.23-0.64-2.34-1.49-3.57-2.12c-1.53-0.77-1.27-2.11-0.81-3.16c0.93-2.14-0.44-5.34,2.7-6.43c1.44-0.5,3.03-0.52,4.56-0.79
		C29.76,197.95,29.94,196.98,29.88,195.95z M18.63,204.67c0,1.14-0.73,1.34-1.67,0.78c-2.22-1.33-4.45-2.66-6.67-3.99
		c0.03-0.24,0.06-0.47,0.09-0.71c2.72-0.39,5.43-0.78,8.14-1.17c0.08-0.01,0.2-0.03,0.24,0C20.51,201.31,18.62,202.97,18.63,204.67z
		"/>
	<path d="M145.53,46.29c-5.09-4.32-10.24-8.57-15.32-12.89c-0.94-0.8-1.69-0.99-2.8-0.34c-1.17,0.69-1.45,1.45-1.22,2.79
		c1.13,6.41,2.11,12.84,3.21,19.25c0.14,0.78-0.32,2.28,1.35,1.95c1.31-0.26,1.81-1.22,1.53-2.58c-0.28-1.35-0.5-2.72-0.73-3.99
		c-0.24-0.88-0.06-1.52,0.71-1.94c2.22-1.19,4.34-2.95,6.69-3.37c1.56-0.28,2.88,2.11,4.35,3.24c0.07,0.05,0.13,0.1,0.19,0.16
		c1.2,1.06,2.28,0.27,2.99-0.51C147.37,47.09,146.03,46.72,145.53,46.29z M136.16,43.16c-1.52,1.05-3.06,2.15-4.86,2.67
		c-0.56,0.16-0.67-0.61-0.75-1.04c-0.48-2.61-0.91-5.23-1.36-7.84c0.18-0.13,0.36-0.25,0.54-0.37c2.05,1.8,4.1,3.59,6.13,5.4
		C136.22,42.29,136.72,42.78,136.16,43.16z"/>
	<path d="M143.28,450.05c-1.16-0.62-1.98-0.64-3.03,0.3c-4.97,4.46-10.03,8.82-15.02,13.26c-0.49,0.44-1.74,0.89-0.74,1.86
		c0.73,0.71,1.67,1.39,2.75,0.31c1.04-1.03,2.18-1.96,3.25-2.96c0.66-0.62,1.32-0.91,2.19-0.42c2.11,1.2,4.74,1.8,6.23,3.7
		c1.11,1.41-0.23,3.44-0.24,5.21c0,0.08-0.01,0.16-0.04,0.49c-0.43,1.42,0.72,2.15,1.95,2.26c1.27,0.11,0.94-1.24,1.05-2.04
		c0.91-6.44,1.77-12.9,2.7-19.34C144.5,451.53,144.47,450.69,143.28,450.05z M140.12,461.92c-0.01,0.08-0.03,0.16-0.06,0.24
		c-0.13,0.44-0.43,0.8-0.87,0.58c-1.65-0.85-3.31-1.69-4.85-2.71c-0.48-0.31,0.21-0.84,0.53-1.14c1.96-1.8,3.94-3.56,5.92-5.34
		c0.19,0.08,0.37,0.17,0.55,0.25C140.94,456.51,140.53,459.21,140.12,461.92z"/>
	<path d="M215.99,23.97c-3.64-6-7.32-11.97-10.96-17.97c-0.59-0.98-1.34-1.03-2.29-0.77c-0.87,0.24-1.68,0.35-1.87,1.55
		c-1.11,6.84-2.29,13.67-3.42,20.37c0.07,0.8-0.42,1.74,0.79,1.82c0.93,0.05,1.89-0.05,2.11-1.21c0.27-1.44,0.48-2.9,0.66-4.35
		c0.15-1.2,0.71-2.1,1.95-2.1c2.56,0,5.05-2.3,7.64-0.33c0.49,0.36,0.69,1.1,1.02,1.66c0.54,0.91,1.04,1.85,1.65,2.72
		c0.77,1.1,1.78,0.49,2.66,0.18C217,25.14,216.28,24.44,215.99,23.97z M207.7,17.6c-1.66,0.4-3.34,0.73-5.02,0.97
		c-0.61,0.09-0.78-0.54-0.71-1.04c0.39-2.71,0.82-5.4,1.24-8.1c0.21-0.04,0.42-0.08,0.63-0.13c1.37,2.37,2.74,4.73,4.1,7.11
		C208.19,16.84,208.37,17.44,207.7,17.6z"/>
	<path d="M28.69,303.43c-1.37-0.17-2.74-0.47-4.11-0.52c-1.72-0.07-2.05-1.25-2.03-2.49c0.02-2.4-2.62-4.83-0.12-7.15
		c1.12-1.03,2.62-1.64,3.89-2.51c1.15-0.79,0.78-1.93,0.27-2.84c-0.59-1.05-1.27-0.08-1.78,0.24c-5.73,3.58-11.42,7.21-17.15,10.79
		c-1.04,0.65-1.42,1.43-1.14,2.65c0.27,1.2,0.89,1.7,2.14,1.88c6.6,0.93,13.19,1.96,19.88,2.96c0.59-0.22,1.68,0.64,1.82-0.77
		C30.49,304.48,30.03,303.61,28.69,303.43z M19.06,302.1c-2.77-0.35-5.58-0.5-8.97-1.41c2.87-1.75,5.19-3.17,7.53-4.57
		c0.33-0.2,0.87-0.47,1.07-0.01c0.76,1.71,0.98,3.58,1.23,5.42C19.99,302.01,19.49,302.16,19.06,302.1z"/>
	<path d="M129.42,442.2c-2.45-1.76-5.03-3.33-7.51-5.04c-1.18-0.82-1.74-0.17-2.33,0.74c-3.45,5.34-6.9,10.68-10.38,16
		c-0.61,0.92-0.66,1.54,0.39,2.19c0.97,0.6,1.55,0.52,2.17-0.48c1.06-1.74,2.27-3.39,3.33-5.13c0.72-1.19,1.47-1.29,2.58-0.52
		c1.41,0.97,2.84,1.92,4.35,2.72c4.63,2.46,9.77-0.66,9.82-5.9C131.92,444.77,130.91,443.28,129.42,442.2z M128.27,448.34
		c-0.68,1.25-1.54,2.32-3.29,2.4c-2.58-0.57-4.67-2.3-6.83-3.88c-0.58-0.43-0.05-1.06,0.27-1.5c1.16-1.55,1.86-4.52,3.43-4.42
		c2.35,0.14,4.47,2.11,6.21,3.98C129.01,445.95,128.89,447.18,128.27,448.34z"/>
	<path d="M323.82,11.87c-2.89-1.06-5.89-1.87-8.83-2.8c-1.04-0.33-1.69-0.07-2.01,1.05c-1.81,6.25-3.64,12.5-5.51,18.73
		c-0.37,1.23,0.25,1.63,1.22,1.87c2.04,0.49,1.65-1.31,2.05-2.27c0.83-1.94,0.54-4.75,2.15-5.81c1.68-1.11,3.91,0.85,5.97,1.11
		c0.08,0.01,0.16,0.05,0.24,0.06c4.64,1.05,8.1-1.63,8.23-6.4C327.48,14.74,326.31,12.79,323.82,11.87z M320.65,21.16
		c-3,0.01-6.94-1.59-6.89-2.79c0.11-2.34,1.83-5.96,2.81-5.92c3.75,0.14,7.68,2.56,7.7,4.72C324.29,19.52,322.8,21.15,320.65,21.16z
		"/>
	<path d="M80.9,96.43c-6.45-2.29-12.93-4.55-19.37-6.89c-1.28-0.47-1.95,0.08-2.72,0.93c-0.83,0.9-0.67,1.68-0.12,2.63
		c3.34,5.8,6.63,11.63,10,17.41c0.32,0.55,0.42,1.96,1.58,1.26c0.97-0.57,1.79-1.48,0.91-2.85c-0.75-1.16-1.37-2.42-2.12-3.58
		c-0.62-0.97-0.51-1.73,0.17-2.66c3.94-5.37,3.92-5.38,10.07-3.58c0.23,0.07,0.46,0.23,0.69,0.24c1.36,0.07,1.64-1.08,2.19-1.84
		C82.05,96.67,81.41,96.61,80.9,96.43z M70.7,96.65c-1.12,1.49-2.31,2.94-3.62,4.26c-0.41,0.41-0.8-0.33-1.03-0.72
		c-1.38-2.29-2.73-4.6-4.09-6.91c0.12-0.18,0.24-0.35,0.36-0.53c2.56,0.97,5.12,1.92,7.67,2.91C70.43,95.83,71.12,96.1,70.7,96.65z"
		/>
	<path d="M305.86,479.96c2.61-0.64,4.99-1.19,7.36-1.81c0.93-0.24,1.73-0.51,2.11,0.77c0.44,1.47-0.52,1.62-1.53,1.87
		c-2.14,0.52-4.26,1.13-6.4,1.61c-1.41,0.32-1.88,1.02-1.47,2.44c0.6,2.12,1.08,4.27,1.66,6.39c0.3,1.1-0.06,1.61-1.14,1.96
		c-1.25,0.4-1.59-0.2-1.84-1.2c-1.55-6.17-3.11-12.34-4.69-18.5c-0.3-1.2-0.17-1.95,1.29-2.27c3.82-0.86,7.6-1.85,11.39-2.82
		c0.89-0.23,1.58-0.31,1.88,0.81c0.31,1.14-0.15,1.66-1.22,1.92c-2.54,0.61-5.04,1.35-7.59,1.88c-1.87,0.39-2.77,1.12-1.91,3.14
		c0.38,0.89,0.46,1.9,0.73,2.84C304.71,479.78,305.12,480.36,305.86,479.96z"/>
	<path d="M496.65,210.91c0.18,0.63-0.46,0.93-1.24,1.13c-0.9,0.23-1.42-0.09-1.5-1.04c-0.01-0.08-0.02-0.16-0.04-0.24
		c-0.64-1.71,0.04-4.32-1.61-5.07c-1.35-0.61-3.44,0.35-5.2,0.67c-3.92,0.72-7.85,1.44-11.75,2.24c-1.24,0.25-2.03,0.14-2.31-1.29
		c-0.3-1.51,0.77-1.59,1.71-1.77c5.11-1,10.22-2.03,15.36-2.9c1.75-0.3,2.16-1.07,1.77-2.64c-0.27-1.1-0.44-2.24-0.67-3.35
		c-0.17-0.82-0.08-1.42,0.94-1.58c0.96-0.15,1.58,0.02,1.78,1.08C494.77,200.95,495.68,205.74,496.65,210.91z"/>
	<path d="M217.86,5.53c-0.65,0-1.3,0.03-1.95-0.01c-0.85-0.05-1.02-0.68-1.09-1.36c-0.08-0.7,0.27-1.07,0.94-1.15
		c5.01-0.55,10.03-1.1,15.05-1.62c1.02-0.11,1.17,0.68,1.25,1.44c0.09,0.87-0.45,1.11-1.19,1.19c-0.73,0.07-1.45,0.21-2.18,0.31
		c-3.59,0.49-3.59,0.49-3.19,4.22c0.48,4.53,1,9.06,1.46,13.59c0.1,0.97,0.66,2.2-1.09,2.41c-1.65,0.2-1.81-0.81-1.94-2.08
		c-0.43-4.29-0.98-8.57-1.41-12.86C222.09,5.22,222.12,5.21,217.86,5.53z"/>
	<path d="M179.11,468.46c-1.38,0.05-1.42,1.03-1.67,1.74c-1.65,4.78-3.24,9.58-4.89,14.35c-0.34,0.99-0.34,2.4-2.17,1.8
		c-1.78-0.58-1.1-1.67-0.75-2.71c1.63-4.87,3.22-9.76,4.94-14.6c0.54-1.52,0.24-2.27-1.33-2.67c-1.18-0.3-2.31-0.8-3.47-1.18
		c-0.83-0.27-1.21-0.67-0.86-1.62c0.32-0.88,0.86-1.19,1.67-0.92c4.71,1.57,9.41,3.19,14.13,4.77c1.05,0.35,0.77,1.04,0.55,1.77
		c-0.29,0.99-0.98,0.97-1.74,0.72C181.96,469.41,180.42,468.89,179.11,468.46z"/>
	<path d="M2.21,273.71c-0.19-1.01,0.44-1.27,1.25-1.42c0.93-0.17,1.38,0.22,1.47,1.14c0.08,0.81,0.2,1.62,0.32,2.43
		c0.5,3.37,0.5,3.33,4.01,2.86c4.52-0.62,9.05-1.2,13.59-1.72c1.03-0.12,2.39-0.63,2.64,1.21c0.25,1.82-1.12,1.69-2.19,1.83
		c-4.77,0.62-9.54,1.28-14.33,1.75c-2.08,0.21-3.27,0.74-2.61,3.13c0.26,0.93,0.22,1.94,0.39,2.91c0.18,1.07-0.33,1.49-1.29,1.63
		c-0.93,0.13-1.36-0.28-1.47-1.18C3.41,283.42,2.81,278.56,2.21,273.71z"/>
	<path d="M499.38,262.1c-0.34,4.39-0.65,8.29-0.96,12.19c-0.07,0.84-0.14,1.66-1.33,1.63c-1.33-0.04-1.28-0.93-1.3-1.87
		c-0.09-5.16-0.1-5.17-5.33-5.57c-4.07-0.31-8.13-0.61-12.2-0.88c-1.08-0.07-1.94-0.19-1.86-1.62c0.07-1.36,0.82-1.56,1.97-1.48
		c4.96,0.38,9.93,0.63,14.88,1.1c2.21,0.21,3.43-0.23,3.26-2.73c-0.07-0.96,0.2-1.94,0.29-2.92c0.08-0.95,0.63-1.21,1.5-1.15
		c0.87,0.06,1.07,0.61,1.08,1.33C499.39,260.96,499.38,261.77,499.38,262.1z"/>
	<path d="M260.2,489.33c0,2.77-0.01,5.54,0.01,8.31c0.01,1.04-0.25,1.69-1.49,1.7c-1.25,0.01-1.49-0.67-1.52-1.69
		c-0.16-5.13-0.42-10.26-0.48-15.39c-0.02-2.01-0.71-2.84-2.74-2.58c-1.04,0.13-2.12,0.04-3.17,0.05c-0.88,0.01-1.35-0.33-1.36-1.29
		c-0.01-0.9,0.35-1.4,1.25-1.44c2.2-0.08,4.4-0.13,6.6-0.2c2.52-0.08,5.05-0.16,7.57-0.26c1.02-0.04,1.76,0.13,1.75,1.41
		c-0.01,1.17-0.75,1.22-1.62,1.31c-5.39,0.53-5.38,0.54-5.23,5.91c0.04,1.38,0.01,2.77,0.01,4.15
		C259.91,489.33,260.06,489.33,260.2,489.33z"/>
	<path d="M30.25,192.41c-6.92-2-13.32-3.86-19.73-5.7c-1.09-0.31-1.02-0.97-0.79-1.88c0.31-1.22,1.02-1.28,2.01-1
		c4.29,1.25,8.6,2.47,12.89,3.72c4.48,1.3,4.47,1.31,5.74-3.17c0.47-1.64,1-3.27,1.42-4.92c0.27-1.04,0.85-1.26,1.8-1.02
		c1.03,0.27,1.21,0.84,0.92,1.82c-1.09,3.66-2.13,7.34-3.18,11.01C31.11,192.11,30.67,192.56,30.25,192.41z"/>
	<path d="M465.81,176.4c-0.99,0.1-1.16-0.63-1.44-1.34c-0.44-1.13,0.28-1.44,1.11-1.73c3.53-1.24,7.07-2.49,10.6-3.72
		c2.61-0.91,5.24-1.8,7.84-2.73c1.03-0.37,1.48,0.08,1.82,1c0.34,0.93,0.27,1.51-0.78,1.88c-6.23,2.16-12.45,4.35-18.67,6.53
		C466.13,176.34,465.97,176.36,465.81,176.4z"/>
	<path d="M15.57,264.34c2.27-0.15,4.55-0.27,6.82-0.45c1.05-0.08,1.7,0.13,1.84,1.34c0.15,1.33-0.5,1.72-1.67,1.79
		c-6.25,0.37-12.5,0.76-18.76,1.15c-1.08,0.07-1.94-0.07-2.05-1.44c-0.11-1.46,0.86-1.52,1.89-1.59c3.98-0.26,7.95-0.52,11.93-0.79
		C15.57,264.36,15.57,264.35,15.57,264.34z"/>
	<path d="M102.73,77.52c-0.27,0.85-0.88,1.28-1.5,1.64c-0.8,0.45-1.19-0.29-1.58-0.74c-2.96-3.36-5.89-6.73-8.82-10.11
		c-1.28-1.47-2.52-2.98-3.84-4.42c-0.77-0.84-0.75-1.46,0.11-2.24c0.88-0.8,1.47-0.68,2.2,0.18c4.24,4.94,8.52,9.84,12.77,14.76
		C102.34,76.88,102.54,77.24,102.73,77.52z"/>
	<path d="M397.43,49.38c-0.24,0.4-0.49,0.91-0.82,1.36c-3.62,5-7.25,9.99-10.86,15c-0.69,0.96-1.24,1.55-2.49,0.6
		c-1.24-0.94-0.59-1.61-0.02-2.4c3.68-5.06,7.35-10.12,11.04-15.17c0.46-0.63,0.85-1.52,1.91-0.92
		C396.75,48.18,397.33,48.51,397.43,49.38z"/>
	<path d="M453.67,148.06c-0.99,0-1.15-0.81-1.47-1.43c-0.54-1.04,0.35-1.26,0.96-1.58c4.49-2.31,8.99-4.6,13.48-6.89
		c1.3-0.67,2.63-1.3,3.91-2.01c0.96-0.53,1.48-0.15,1.94,0.71c0.47,0.88,0.42,1.51-0.53,2c-5.88,2.99-11.75,5.99-17.62,8.98
		C454.12,147.95,453.87,147.99,453.67,148.06z"/>
	<path d="M496.15,283.02c-6.82-0.89-13.21-1.74-19.6-2.56c-0.97-0.12-1.46-0.45-1.35-1.54c0.11-1.13,0.57-1.63,1.71-1.49
		c6.47,0.83,12.94,1.66,19.42,2.48c1.04,0.13,1.34,0.69,1.21,1.7C497.39,282.76,496.85,283.21,496.15,283.02z"/>
	<path d="M66.45,413.62c-0.53,1.01-1.2,1.84-2.2,1.85c-0.94,0.01-1.77-0.91-1.72-1.72c0.06-1.07,1.07-1.91,2.15-1.89
		C65.59,411.88,65.99,412.91,66.45,413.62z"/>
	<path d="M47.77,389.84c-0.3,1.13-1.25,1.69-2.12,1.81c-1.18,0.16-1.72-1.11-1.7-1.94c0.03-1.02,1.22-1.59,2.12-1.68
		C47.1,387.92,47.28,389.13,47.77,389.84z"/>
</g>
</svg>
