<?xml version="1.0" encoding="utf-8"?>
<!-- Generator: Adobe Illustrator 24.0.1, SVG Export Plug-In . SVG Version: 6.00 Build 0)  -->
<svg version="1.1" id="Camada_1" xmlns="http://www.w3.org/2000/svg" xmlns:xlink="http://www.w3.org/1999/xlink" x="0px" y="0px"
	 viewBox="0 0 500 500" style="enable-background:new 0 0 500 500;" xml:space="preserve">
<g>
	<path d="M180.8,124.19c0,2.86,0,5.72,0,8.58c0.01,29.71,0.01,59.41,0.02,89.12c0,4.38-0.01,4.38-4.52,4.37
		c-8.09,0-16.19-0.15-24.27,0.07c-3.02,0.08-3.86-0.67-3.85-3.78c0.12-33.29,0.07-66.58,0.07-99.86c0-16.88,0.07-33.75-0.07-50.63
		c-0.02-2.92,0.84-3.68,3.69-3.62c8.55,0.19,17.11,0.17,25.66,0.01c2.56-0.05,3.87,0.91,5.15,3.03
		c19.52,32.18,39.13,64.31,58.72,96.44c0.59,0.98,1.26,1.91,2.11,3.19c0.83-1.51,0.5-2.85,0.51-4.1
		c0.02-31.55,0.05-63.11-0.06-94.66c-0.01-2.96,0.61-4,3.77-3.91c8.43,0.23,16.88,0.19,25.31,0.01c2.81-0.06,3.71,0.59,3.71,3.58
		c-0.1,48.43-0.06,96.86-0.1,145.29c0,2.85,1.26,6.53-0.56,8.36c-1.82,1.82-5.48,0.51-8.33,0.55c-6.59,0.09-13.18-0.16-19.76,0.11
		c-2.94,0.12-4.57-0.85-6.06-3.31c-15.66-25.87-31.43-51.67-47.16-77.5c-4.38-7.18-8.75-14.36-13.13-21.54
		C181.36,124.06,181.08,124.12,180.8,124.19z"/>
	<path d="M121.39,125.61c0,17.34,0.41,34.69-0.1,52.01c-0.71,24.29-16.74,43.22-40.45,48.58c-15.14,3.43-30.18,3.19-45.07-1.67
		c-19.32-6.31-32.69-22.84-34.64-43c-0.43-4.5-0.57-8.98-0.57-13.49c0.01-31.9,0.05-63.81-0.06-95.71c-0.01-2.98,0.62-3.99,3.77-3.9
		c8.32,0.24,16.65,0.2,24.96,0.02c3.04-0.07,4.08,0.64,4.06,3.95c-0.14,33.06-0.09,66.12-0.08,99.18c0,4.74,0.27,9.41,1.7,14.02
		c2.61,8.44,8.43,13.37,16.65,15.56c6.81,1.81,13.75,1.7,20.51-0.39c9.99-3.08,16.06-11.32,16.51-22.77
		c0.33-8.54,0.25-17.1,0.26-25.65c0.03-26.59,0.08-53.17-0.07-79.76c-0.02-3.43,0.99-4.25,4.27-4.15c8.2,0.23,16.42,0.26,24.62-0.01
		c3.38-0.11,3.93,1.12,3.91,4.13c-0.12,17.68-0.06,35.37-0.06,53.05C121.48,125.61,121.44,125.61,121.39,125.61z"/>
	<path d="M312.45,284.94c10.27-8.78,21.55-7.17,26.45,0.7c3.52-4.23,7.9-6.63,13.49-6.67c8.88-0.07,14.59,4.42,15.02,13.27
		c0.55,11.07,0.2,22.19,0.28,33.28c0.01,1.55-0.71,2-2.12,1.97c-2.2-0.05-4.41-0.18-6.58,0.04c-2.83,0.29-3.82-0.62-3.75-3.59
		c0.2-8.09,0.07-16.18,0.06-24.27c0-1.27,0-2.55-0.13-3.81c-0.5-4.95-2.58-6.73-7.48-6.49c-4.23,0.21-7.14,3.09-7.17,7.29
		c-0.05,9.25-0.1,18.5,0.02,27.74c0.03,2.38-0.59,3.15-3.07,3.16c-9.5,0.02-9.5,0.11-9.5-9.51c0-7.17,0.03-14.33-0.02-21.5
		c-0.03-4.97-2.16-7.16-6.8-7.16c-4.93,0-7.66,2.55-7.67,7.21c-0.02,9.25-0.07,18.5,0.03,27.74c0.03,2.29-0.44,3.42-3.01,3.2
		c-2.41-0.21-4.86-0.14-7.28-0.02c-1.87,0.1-2.34-0.7-2.33-2.44c0.05-14.33,0.05-28.67,0-43c-0.01-1.83,0.62-2.48,2.41-2.36
		c1.61,0.11,3.24,0.11,4.85,0.01C311.26,279.52,314.07,279.54,312.45,284.94z"/>
	<path d="M275.95,370.5c5.6-5.53,11.3-6.91,17.71-5.65c2.83,0.55,5.34,1.83,6.83,4.31c1.31,2.18,2.19,1.57,3.47,0.1
		c3.39-3.9,7.95-5.1,12.82-4.82c8.99,0.51,13.75,5.46,13.98,14.77c0.26,10.39,0.05,20.79,0.12,31.19c0.01,1.72-0.46,2.38-2.32,2.47
		c-10.2,0.53-10.19,0.59-10.18-9.52c0.01-7.05,0.03-14.09-0.01-21.14c-0.03-5.34-2.08-7.5-6.87-7.44c-4.81,0.06-7.69,2.95-7.7,7.8
		c-0.02,9.01-0.1,18.02,0.06,27.03c0.05,2.66-0.84,3.28-3.36,3.27c-9.06-0.03-9.06,0.06-9.09-8.95c-0.02-7.28,0.13-14.56-0.08-21.83
		c-0.17-6.08-4.11-8.76-9.85-6.92c-2.97,0.95-4.84,2.78-4.8,6.31c0.12,9.47-0.02,18.94,0.08,28.42c0.02,2.19-0.49,3.18-2.85,2.96
		c-3.08-0.29-7.04,1.22-9.06-0.57c-2.1-1.86-0.66-5.88-0.68-8.95c-0.09-11.67,0.02-23.33-0.08-35c-0.02-2.36,0.59-3.43,3.07-3.17
		c1.37,0.15,2.78,0.14,4.15,0C274.48,364.83,276.88,365.29,275.95,370.5z"/>
	<path d="M352.71,370.12c9.47-8.08,21.01-7.39,26.33,0.92c4.29-5.38,9.89-7.34,16.59-6.38c6.39,0.91,10.13,4.36,11.46,10.74
		c1.14,5.48,0.69,11.05,0.73,16.59c0.05,6.01-0.07,12.02,0.03,18.03c0.03,2.02-0.44,2.99-2.67,2.83c-2.42-0.17-4.86-0.15-7.28,0
		c-2.22,0.14-2.69-0.85-2.68-2.86c0.08-9.36,0.04-18.72,0.02-28.08c-0.01-2.95-0.74-5.57-3.82-6.73c-3.34-1.25-7.3-0.12-9.45,2.49
		c-1.11,1.35-1.3,2.86-1.3,4.53c0.04,9.25-0.03,18.49,0.07,27.74c0.02,2.2-0.53,3.17-2.88,2.93c-3.08-0.32-7.06,1.25-9.03-0.62
		c-2.01-1.9-0.59-5.91-0.64-8.98c-0.11-7.05,0-14.1-0.07-21.15c-0.03-2.73-0.47-5.52-3.35-6.68c-2.89-1.17-5.9-1.07-8.61,0.77
		c-1.98,1.34-2.73,3.21-2.7,5.63c0.09,9.24-0.05,18.49,0.08,27.74c0.04,2.61-0.8,3.33-3.37,3.32c-9.14-0.02-9.13,0.07-9.13-9.19
		c0.01-11.67,0.07-23.35-0.06-35.02c-0.03-2.71,0.74-3.83,3.49-3.5c1.25,0.15,2.54,0.04,3.81,0.02
		C351.15,365.12,353.95,365.12,352.71,370.12z"/>
	<path d="M454.19,134.74c-9.09-1.07-17.66-2.07-26.22-3.08c-5.04-0.59-10.07-1.2-15.1-1.8c-0.79-0.09-1.81,0.05-2.1-0.85
		c-0.31-0.96,0.74-1.29,1.3-1.8c3.73-3.36,4.43-6.65,2.05-9.95c-1.68-2.33-3.95-3.65-6.84-3.18c-2.94,0.48-5.08,2.21-5.99,5.12
		c-0.87,2.81-0.01,5.21,2.06,7.24c0.79,0.78,2.51,1.2,2.21,2.4c-0.37,1.52-2.14,0.95-3.32,1.1c-12.58,1.55-25.16,3.07-37.75,4.53
		c-3.49,0.41-1.72-1.87-1.28-3.04c3.93-10.4,10.76-18.43,20.19-24.29c25.56-15.87,61.09-2.85,70.31,25.78
		C453.87,133.36,453.96,133.81,454.19,134.74z"/>
	<path d="M175.15,370.81c0.04-6.47,0.85-5.57-5.75-5.61c-2.79-0.01-6.24-1.14-6.41,3.67c-11.28-9.16-26.06-3.58-29.42,10.55
		c-1.55,6.54-1.56,12.99,0.13,19.49c3.82,14.65,18.55,18.71,28.3,10.76c0.87,0.71,0.68,1.45,0.62,2.1
		c-0.7,8.76-9.98,12.75-17.93,7.78c-1.41-0.88-2.57-3.21-3.95-2.66c-1.46,0.58-2.31,2.73-3.43,4.2c-0.07,0.09-0.11,0.2-0.19,0.28
		c-2.14,2.07-1.51,3.73,0.71,5.24c8.56,5.83,17.61,6.47,26.91,2.19c6.3-2.91,9.7-8.21,10.09-15.03
		C175.66,399.47,175.06,385.14,175.15,370.81z M158.33,402.72c-3.61,1.45-8.29,0.37-10.37-2.48c-3.77-5.16-3.66-11.02-2.36-16.88
		c1.46-6.58,5.27-9.4,10.86-8.45c4.18,0.71,6.18,3.05,6.2,7.29c0.01,2.31,0.01,4.61,0.01,6.92c-0.01,0-0.01,0-0.01,0
		c0,2.07-0.17,4.17,0.04,6.22C163.06,398.96,161.59,401.41,158.33,402.72z"/>
	<path d="M456.32,148.67c-0.98,20.64-10.81,35.42-29.59,44.16c-4.47,2.08-4.84,1.93-7.27-2.39c-6.2-11.02-8.31-22.9-6.77-35.35
		c0.97-7.87,5.36-14.18,14.26-14.55c8.47-0.35,16.9-2.01,25.32-3.23c2.35-0.34,3.1,0.68,3.35,2.71
		C455.96,142.88,456.4,145.73,456.32,148.67z"/>
	<path d="M360.16,147.3c0.11-2.21,0.21-5.08,0.78-7.93c0.33-1.65,0.98-2.37,2.76-2.13c10.04,1.37,20.15,2.31,30.1,4.14
		c6.45,1.18,8.8,6.8,9.71,12.58c2.09,13.33-0.42,25.86-7.17,37.6c-1.4,2.44-2.79,2.66-5.26,1.78
		C372.81,186.81,360.03,168.16,360.16,147.3z"/>
	<path d="M40.75,372.37c-2.31-4.63-6.39-7-11.58-7.74c-5.5-0.78-10.18,0.71-14.85,5.17c0.89-4.77-1.6-4.77-4.23-4.63
		c-1.27,0.06-2.56,0.15-3.81-0.01c-2.84-0.36-3.73,0.65-3.71,3.6c0.14,17.56,0.03,35.12,0.1,52.68c0.01,3.07-1.4,7.15,0.71,8.91
		c1.8,1.51,5.74,0.28,8.71,0.59c2.8,0.28,3.22-0.97,3.16-3.38c-0.15-5.86-0.05-11.73-0.05-18.04c0.99,0.51,1.42,0.67,1.79,0.93
		c8.42,5.86,18.95,3.85,23.75-5.21C46.46,394.46,46.19,383.26,40.75,372.37z M29.67,399.94c-2.15,3.02-6.01,4.26-9.89,2.87
		c-3.25-1.17-5.02-3.45-4.63-7.17c0.23-2.17,0.04-4.38,0.04-6.58c0.01-2.19,0.15-4.4-0.03-6.58c-0.31-3.6,1.04-6.04,4.49-7.22
		c3.93-1.35,7.75-0.28,9.95,2.75C33,382.72,33.05,395.22,29.67,399.94z"/>
	<path d="M255.13,409.57c-0.56-1.2-0.61-2.71-0.63-4.07c-0.12-7.85-0.12-15.7-0.22-23.55c-0.09-7.26-2.56-13.33-9.81-15.98
		c-7.61-2.77-15.23-2.32-22.28,2.06c-3.26,2.02-5.4,4.98-6.23,8.78c-0.14,0.66-0.31,1.85-0.06,1.96c3.12,1.54,6.49,0.46,9.75,0.72
		c1.08,0.09,2.05,0.19,2.68-1.37c1.44-3.6,3.94-4.75,8.06-4.16c3.24,0.47,4.5,2.66,5.15,5.67c0.63,2.89,0.27,4.33-3.16,4.03
		c-4.41-0.38-8.76,0.27-13,1.5c-7.1,2.06-10.89,7.33-10.7,14.67c0.19,6.77,4.32,11.63,11.43,13.26c5.85,1.35,11.16,0.1,16.37-4.34
		c-0.33,4.52,2.35,4.08,4.81,4.04c1.73-0.03,3.47-0.1,5.2,0.01C255,412.99,256.62,412.75,255.13,409.57z M240.29,401.14
		c-0.39,0.41-0.88,0.74-1.36,1.05c-3.07,2-7.65,2.34-9.75,0.5c-1.85-1.6-2.6-3.61-1.82-6.18c1.19-3.91,4.23-4.81,7.7-5.2
		c0.8-0.09,1.6-0.1,2.59-0.17c1.2,0.56,3.67-1.03,3.96,1.14C242.01,395.23,242.78,398.53,240.29,401.14z"/>
	<path d="M391.75,307.8c3.92,0.16,7.85,0.03,11.77,0.03c0-0.01,0-0.01,0-0.01c1.85,0,3.7-0.01,5.54,0c9.72,0,9.91-0.01,9.06-9.69
		c-0.66-7.5-3.61-13.98-10.94-17.21c-7.72-3.39-15.35-2.82-22.27,2.24c-6.05,4.43-8.25,10.99-8.78,18.09
		c-0.74,9.8,1.57,18.66,10.7,23.82c8.43,4.78,17.26,4.54,25.62-0.64c5.52-3.43,5.41-4.08,1.32-9.03c-1.71-2.06-2.59-2.59-4.93-0.49
		c-6.24,5.63-16.33,3.39-19.17-3.84C388.77,308.79,388.86,307.69,391.75,307.8z M389.1,297.63c0.14-3.95,3.98-8.08,7.91-8.35
		c5.02-0.34,8.46,2.47,9.14,7.35c0.26,1.81-0.31,2.52-2.18,2.41c-2.18-0.12-4.36-0.03-6.55-0.03c-2.19-0.01-4.38,0-6.56-0.01
		C389.93,299.01,389.05,299.09,389.1,297.63z"/>
	<path d="M431.91,393.1c3.92,0.17,7.85,0.04,11.79,0.04h6.58c8.53,0,8.7-0.01,8.03-8.74c-0.62-8.05-3.62-15.08-11.57-18.29
		c-7.71-3.11-15.45-2.59-22.22,2.84c-6.96,5.57-8.61,13.4-8.42,21.74c0.2,9.53,4.01,17.33,13.13,20.99
		c8.69,3.48,17.46,2.94,25.16-3.22c1.6-1.28,3.84-2.52,1.6-5.24c-4.04-4.91-3.98-4.97-7.31-2.47c-6.56,4.92-16.57,2.62-19.04-4.34
		C428.84,394.14,429.07,392.97,431.91,393.1z M429.32,382.36c0.54-4.09,4.35-7.6,8.45-7.67c4.57-0.08,7.56,2.5,8.34,7.02
		c0.35,1.98,0.06,3.08-2.31,2.91c-2.06-0.15-4.14-0.03-6.21-0.03c-2.07,0.01-4.14-0.05-6.21,0.02
		C429.72,384.67,429.09,384.04,429.32,382.36z"/>
	<path d="M16.56,307.8c3.93,0.16,7.85,0.04,11.78,0.03c1.96-0.01,3.93,0,5.89-0.01c9.62-0.03,9.62-0.03,8.76-9.74
		c-0.91-10.41-6.99-17.33-16.6-18.94c-10.09-1.69-19.21,3.4-23.25,12.81c-1.89,4.38-2.03,8.94-2.03,13.57
		c0.02,8.8,3.39,15.89,11.31,19.96c8.38,4.31,16.97,3.97,25.04-1.11c5.45-3.43,5.34-4.07,1.25-8.91c-1.7-2.02-2.61-2.55-4.97-0.53
		c-6.52,5.54-16.3,3.41-19.26-3.82C13.56,308.91,13.63,307.68,16.56,307.8z M14.47,295.82c1.82-4.9,4.92-7.07,9.62-6.51
		c3.81,0.46,6.42,3.35,6.89,7.46c0.17,1.59-0.19,2.36-1.96,2.27c-2.18-0.11-4.36-0.03-6.55-0.03c-1.96,0.01-3.92-0.13-5.86,0.03
		C13.73,299.3,13.65,298.06,14.47,295.82z"/>
	<path d="M242.67,299.08c-0.88-10.08-7.29-17.61-16.29-19.53c-10.61-2.26-19.68,1.48-24.53,10.3c-2.32,4.22-3.26,8.83-2.9,13.66
		c0,1.39-0.06,2.77,0.01,4.15c0.47,9.17,6.44,17.05,14.89,19.68c9.18,2.87,19.08-0.08,24.53-7.42
		C243.02,313.67,243.31,306.42,242.67,299.08z M228.51,313.49c-1.82,3.12-4.53,4.6-8.02,4.47c-3.52-0.12-6.25-1.83-7.57-5.15
		c-2.46-6.17-2.34-12.47,0.14-18.56c1.35-3.32,4.2-5.07,7.99-4.98c3.95,0.09,6.45,2.22,7.98,5.63c1.31,2.91,1.29,6.06,1.37,9.19
		C230.06,307.27,230.23,310.54,228.51,313.49z"/>
	<path d="M125.39,381.72c-1.89-9.19-8.64-15.89-16.93-16.95c-11.54-1.46-19.45,2.16-23.91,11.47c-2.86,5.96-3.39,12.36-2.12,18.9
		c1.53,7.84,5.21,14.25,13.03,16.94c8.26,2.84,16.46,2.42,23.37-3.76c5.64-5.04,7.24-11.81,7.43-20.09
		C126.52,386.68,125.9,384.19,125.39,381.72z M112.87,395.66c-0.99,4.72-4.18,7.49-8.56,7.56c-4.61,0.08-7.75-2.3-9.02-6.99
		c-1.33-4.89-1.26-9.82,0.17-14.67c1.35-4.59,4.19-6.83,8.42-6.86c4.23-0.03,7.52,2.5,8.8,6.94c0.67,2.33,1.18,4.71,0.87,7.22
		C113.88,391.15,113.34,393.41,112.87,395.66z"/>
	<path d="M62.29,285.19c3.88-3.62,7.27-5.69,11.43-6.16c10.05-1.14,16.67,4.43,16.99,14.91c0.32,10.39,0.06,20.8,0.14,31.2
		c0.01,1.85-0.68,2.29-2.42,2.38c-10.2,0.56-10.19,0.6-10.19-9.5c0-7.17,0.03-14.33-0.01-21.5c-0.03-4.9-2.37-7.16-7.27-7.15
		c-5.02,0.01-7.97,2.74-7.97,7.43c-0.01,9.25-0.07,18.49,0.04,27.74c0.03,2.23-0.61,3.15-2.92,2.99c-2.42-0.16-4.86-0.15-7.28-0.03
		c-1.87,0.09-2.34-0.7-2.33-2.44c0.05-14.33,0.05-28.66-0.01-42.99c-0.01-1.82,0.6-2.5,2.4-2.37c1.61,0.12,3.25,0.16,4.85,0
		C61,279.38,63.3,279.98,62.29,285.19z"/>
	<path d="M437.54,285.1c4.42-4.32,8.85-6.3,14.22-6.14c7.82,0.24,12.76,4.54,13.67,12.37c1.04,8.98,0.4,18,0.5,27
		c0.1,9.24,0.02,9.12-9.08,9.21c-2.75,0.03-3.49-0.76-3.44-3.47c0.16-9.01,0.15-18.02,0.01-27.03c-0.11-6.89-6.17-10.06-12.07-6.46
		c-1.98,1.21-3.13,2.76-3.09,5.34c0.13,9.47-0.02,18.95,0.1,28.42c0.03,2.32-0.5,3.18-3.02,3.2c-9.62,0.06-9.62,0.16-9.61-9.38
		c0-11.78,0.06-23.57-0.04-35.35c-0.02-2.37,0.6-3.44,3.08-3.12c1.14,0.14,2.31,0.1,3.46,0.02
		C435.49,279.49,438.71,279.27,437.54,285.1z"/>
	<path d="M262.68,285.39c4.88-5.27,9.87-6.82,15.59-6.37c5.91,0.46,10.11,3.9,11.73,9.6c0.86,3.04,1.03,6.17,1.07,9.27
		c0.13,8.9-0.01,17.79,0.11,26.69c0.03,2.29-0.73,2.91-2.97,2.95c-9.65,0.19-9.64,0.26-9.64-9.38c0-7.05-0.01-14.1-0.02-21.15
		c0-2.76-0.36-5.48-3.16-6.81c-3.11-1.47-6.31-1.29-9.25,0.59c-1.84,1.18-2.74,2.85-2.71,5.23c0.12,9.36-0.07,18.72,0.12,28.08
		c0.06,2.83-0.88,3.45-3.53,3.44c-9.13-0.04-9.13,0.06-9.13-9.17c0-11.79,0.07-23.57-0.05-35.36c-0.03-2.52,0.56-3.69,3.25-3.31
		c1.25,0.18,2.56,0.18,3.81,0.01C261.37,279.25,263.61,280.07,262.68,285.39z"/>
	<path d="M118.54,310.16c2.46-9.12,5.01-18.21,7.32-27.37c0.59-2.35,1.53-3.3,3.98-3.1c2.52,0.21,5.08,0.09,7.62,0.02
		c1.84-0.05,2.22,0.76,1.69,2.35c-4.81,14.44-9.62,28.88-14.39,43.33c-0.51,1.56-1.36,2.06-3,2.12c-9.24,0.39-9.3,0.46-12.19-8.09
		c-4.09-12.13-8.02-24.31-12.13-36.44c-0.8-2.37-0.61-3.26,2.21-3.3c9.57-0.12,9.58-0.22,12.18,9.03
		c2.02,7.18,3.98,14.38,5.97,21.57C118.04,310.24,118.29,310.2,118.54,310.16z"/>
	<path d="M478.37,303.92c0-3.93-0.12-7.85,0.04-11.77c0.09-2.28-0.69-3.3-2.96-2.88c-3.55,0.66-4.47-1.06-3.99-4.21
		c0.1-0.68,0.1-1.4,0-2.07c-0.38-2.55,0.57-3.73,3.21-3.25c3.14,0.57,3.86-0.83,3.78-3.82c-0.21-7.63-0.07-7.65,7.43-7.64
		c5.86,0.01,4.86-0.38,4.93,5.03c0.01,0.46,0,0.92,0,1.39c0.01,4.95,0.02,5.06,4.9,5.01c2.2-0.02,3.29,0.55,2.97,2.9
		c-0.09,0.68-0.03,1.38-0.03,2.08c-0.03,5.38,0.34,4.7-4.65,4.54c-2.69-0.09-3.3,0.9-3.24,3.4c0.16,6.58,0.04,13.16,0.08,19.74
		c0.02,4.4,0.87,5.41,5.25,5.25c2.75-0.1,3.22,0.94,3.18,3.39c-0.09,7.1-0.07,7.18-7.34,7.21c-9.21,0.03-13.49-4.23-13.57-13.54
		C478.34,311.07,478.37,307.49,478.37,303.92z"/>
	<path d="M197.39,369.68c3.36-3.85,7-5.85,11.86-5.11c1.55,0.24,2.28,0.83,2.15,2.44c-0.08,1.03-0.01,2.08-0.01,3.12
		c0.01,6.15,0.01,6.15-6.1,6.72c-5.35,0.49-7.8,3.15-7.81,8.46c0,8.09-0.11,16.19,0.06,24.27c0.06,2.65-0.78,3.3-3.33,3.28
		c-9.15-0.05-9.15,0.05-9.15-9.2c0-11.68,0.08-23.35-0.06-35.02c-0.03-2.74,0.78-3.83,3.52-3.48c1.14,0.15,2.32,0.12,3.46,0
		C195.15,364.84,197.81,365.07,197.39,369.68z"/>
	<path d="M64.56,370.42c3.15-3.47,5.9-5.75,9.87-5.99c3.98-0.24,4.61,0.22,4.61,4.16c0,0.12,0,0.23,0,0.35
		c-0.05,2.42,0.69,5.27-0.35,7.15c-1.14,2.07-4.21,0.4-6.42,0.8c-4.78,0.87-7.05,3.32-7.06,8.11c-0.01,8.31-0.08,16.63,0.04,24.94
		c0.03,2.28-0.69,2.9-2.94,2.92c-9.54,0.1-9.55,0.17-9.55-9.47c-0.01-11.66,0.07-23.32-0.06-34.98c-0.03-2.64,0.81-3.57,3.36-3.25
		c1.02,0.13,2.08,0,3.11,0.02C62.17,365.24,66.13,364,64.56,370.42z"/>
	<path d="M181.62,284.85c3.42-3.83,6.64-6.22,11.21-5.89c2.03,0.14,3.37,0.49,2.98,2.97c-0.16,1.01,0.05,2.07,0.09,3.11
		c0.23,6.19,0.23,6.19-5.72,6.45c-5.42,0.23-8.08,2.8-8.12,8.07c-0.06,8.2-0.07,16.39,0.03,24.59c0.03,2.42-0.56,3.4-3.27,3.4
		c-9.13,0.01-9.13,0.13-9.13-8.85c0-11.89,0.07-23.79-0.05-35.68c-0.03-2.55,0.62-3.66,3.28-3.31c1.25,0.17,2.55,0.15,3.8,0
		C180.01,279.3,182.46,279.8,181.62,284.85z"/>
	<path d="M158.87,303.61c0,7.04-0.06,14.08,0.04,21.12c0.03,2.05-0.53,2.94-2.71,2.8c-2.53-0.16-5.08-0.14-7.61-0.02
		c-1.85,0.09-2.36-0.64-2.35-2.41c0.05-14.31,0.07-28.62-0.01-42.93c-0.01-2.1,0.87-2.52,2.69-2.45c2.42,0.11,4.85,0.14,7.27-0.02
		c2.17-0.14,2.76,0.71,2.73,2.78C158.81,289.52,158.88,296.57,158.87,303.61z"/>
	<path d="M339.76,183.95c-3.88-8.26-2.33-16.47,0.12-25.61c3.64,6.47,5.65,12.53,5.38,19.05c-0.24,5.88-0.5,11.66,2.85,17.69
		c-12.15-4.47-23.86-7.81-28.88-20.52c-1.58-4-2.71-8.08-2.24-13.4c4.96,10.91,15.81,15.35,21.89,24.26
		c0.32,0.11,0.63,0.24,0.9,0.44c0.36,0.27,0.65,0.61,0.52,0.37C340.09,185.99,340.4,184.83,339.76,183.95z"/>
	<path d="M359.15,202.01c-6.01-6.34-7.97-11.7-8.8-24.6c4.79,5.47,9.41,10.46,12.15,16.74c2.03,4.65,3.77,9.37,8.59,12.7
		c-13.03,1.14-25.61,4.1-36.75-4.58c-3.59-2.8-6.5-6.17-8.86-10.04c-0.3-0.5-1.23-0.95-0.3-1.66c0.69-0.53,0.95,0.25,1.36,0.54
		c1.49,1.07,2.97,2.15,4.46,3.22c3.71,2.66,7.66,4.55,12.39,4.77c5.2,0.25,10.1,2.05,15.01,3.67c1.26,0.11,2.4,0.53,3.55,1.46
		C360.99,203.3,359.75,203.07,359.15,202.01z"/>
	<path d="M444.09,207.16c5.03-3.69,6.45-9.53,9.27-14.46c2.72-4.74,6.03-8.93,10.26-12.52c-0.24,10.36-4.26,18.63-12.57,25.01
		c6.87-1.74,12.8-5.66,19.57-7.37c6.9-1.74,13.26-4.66,18.54-9.84c-0.42,3.75-4.7,9.23-10.64,13.82c-4.83,3.73-10.09,6.5-16.31,6.94
		C456.19,209.17,450.35,206.95,444.09,207.16z"/>
	<path d="M475.72,158.92c2.33,10.55,2.76,20.55-3.38,29.98c5.53-4.16,8.8-10.18,13.47-14.96c4.68-4.78,10.26-9.03,12.39-15.9
		c1.02,15.53-10.34,29.02-29.79,35.91c0.31-10.61,0.25-21.37,5.03-31.33c0.4-0.83,0.77-1.67,1.21-2.48
		C474.87,159.77,475.22,159.48,475.72,158.92z"/>
	<path d="M326.95,143.67c-1.97-9.79-8.42-18.4-5.94-28.86c1.49-6.28,4.1-11.93,8.92-16.59c-5.7,11.22,0.39,22.91-1.87,34.36
		c1.85-9.87,9.68-14.13,17.24-19.04c-1.44,6.8-4.87,12.17-9.54,16.77C331.89,134.11,328.1,137.89,326.95,143.67z"/>
	<path d="M330.73,149.89c1.05-5.69,5.27-9.59,8.25-14.66c2.55,13.09-5.87,23.76-6.89,36.47c-6.02-9.7-16.45-16.16-17-28.71
		c-0.18-4.2,0.36-8.21,2.44-12.94c0.56,8.33,3.68,14.74,7.98,20.68c2.35,3.25,2.67,7.26,3.97,10.9c1.66,0.04,0.86-1.22,0.92-1.89
		C330.65,156.45,330.05,153.15,330.73,149.89z"/>
	<path d="M436.35,209.45c5.34,0.37,10.25,2.49,15.36,3.78c5.11,1.29,10.15,1.79,16.25,0.26c-4.5,3.86-9.12,4.89-13.78,5.77
		c-10.37,1.96-20.1-0.59-29.64-4.37c-2.34-0.93-4.74-1.69-7.11-2.53c-0.36-0.33-0.8-0.38-1.26-0.44c-0.89-0.1-1.65-0.58-1.5-1.5
		c0.14-0.85,0.96-1.17,1.86-1.21c4.68-0.21,9.35-1.18,14.02-0.25C432.49,209.34,434.46,208.86,436.35,209.45z"/>
	<path d="M342.33,101.94c4.68-3.74,10.55-3.86,16.04-5.34c-3.77,4.52-8.21,8.1-13.22,10.93c-4.78,2.7-10.25,4.38-13.3,9.63
		c2.73-7.07,0.96-14.78,4.21-21.68c3.17-6.74,7.13-12.49,13.93-16.04c-3.88,6.94-5.16,14.88-8.87,21.85
		c-0.26,1.44-1.18,2.51-1.53,3.05C339.9,103.64,340.86,102.5,342.33,101.94z"/>
	<path d="M398.1,211.75c-8.82,2.09-16.9,6.72-26.01,7.78c-8.25,0.95-16.32,0.22-23.87-3.63c-0.98-0.5-2.15-0.84-2.79-2.39
		c7.17,2.42,13.79,0.05,20.5-1.3c7.4-1.91,14.79-3.8,22.55-3.39c2.51,0.13,5,0.51,7.53,0.43
		C397.53,209.2,398.79,209.75,398.1,211.75z"/>
	<path d="M486.77,157.49c2.44-8.74,8.83-15.44,12.28-23.74c1,5.4,0.33,10.59-1.83,15.56c-1.94,4.47-4.56,8.55-8.03,12.01
		c-2.26,2.26-3.39,5.32-5.64,7.79c0.99-7.32-3.38-13.11-4.97-19.62c-1.28-5.24-1.06-10.42-0.4-15.72c3.03,7.09,8.04,13.4,7.92,21.6
		c-0.51,0.75-0.32,1.54-0.11,2.32c0.02,0.06-0.22,0.8,0.36,0.32C486.51,157.89,486.6,157.66,486.77,157.49z"/>
	<path d="M362.68,84.74c5.23-1.18,10.52-0.63,16.68-0.59c-3.88,2.92-7.8,3.73-11.55,4.73c-3.89,1.04-7.87,1.71-11.83,2.47
		c-2.35,0.45-4.66,0.97-7.11,2.73c6.28-11.2,11.59-22.46,26.35-24.84c-5.49,4.8-8.27,11.11-13.98,14.73
		c-0.21,0.51-0.56,0.91-0.95,1.29C361.04,84.85,361.96,85.25,362.68,84.74z"/>
	<path d="M476.03,114.26c5.63,5.27,12.09,9.33,13.34,17.53c0.86-7.75,1.13-15.55,3.4-23.44c5.79,11.94,0.52,22.36-3.55,32.95
		c-2.72-8.33-10.03-14.11-12.43-22.6C476.42,117.41,475.41,116.26,476.03,114.26z"/>
	<path d="M398.1,211.75c-0.17-2.05-1.59-2.21-3.22-2.21c-8.94,0-17.93-0.6-26.56,2.61c-0.71,0.26-1.59,0.05-2.39,0.06
		c11.28-4.5,22.88-5.21,34.62-2.44c4.06,0.96,7.84,0.87,11.89-0.03c7.91-1.76,15.92-2.54,23.92-0.29
		c-5.95,0.46-11.9-0.93-17.85,0.08c-1.1,0.19-2.68-0.48-3.16,0.74c-0.66,1.67,1.83,0.91,2.1,2.09c-2.29,0.08-4.51-1.12-7.35-0.24
		c3.16,1.71,6.04,3.2,8.85,4.8c3.64,2.06,6.84,4.7,9.65,7.79c0.57,0.63,2.06,1.2,0.73,2.45c-1.05,0.98-1.97,1.27-3.16-0.06
		c-2.24-2.48-4.46-5.05-7.07-7.1c-11.52-9.07-13.5-9.08-24.6-0.59c-2.54,1.94-4.67,4.44-6.94,6.73c-1.18,1.19-2.21,3.17-4.02,1
		c-1.56-1.88,0.8-2.55,1.6-3.36c4.91-4.95,10.83-8.47,17.63-11.4C400.97,211.39,399.46,212.04,398.1,211.75z"/>
	<path d="M481.91,102.23c-1.8-2.34-1.48-5.22-1.84-7.88c-0.32-2.36-0.83-4.69-1.55-7.76c9.11,8.77,9.91,19.23,9.6,31.04
		c-6.2-7.42-14.78-11.02-19.42-18.82c-0.64-1.08-1.27-2.17-1.69-3.56c4.3,2.91,9.54,4,13.43,7.58c1.01,1.06,2.42,1.76,2.83,2.91
		C482.58,104.91,482.6,103.43,481.91,102.23z"/>
	<path d="M372.03,78.93c8.14-6.65,16.35-12.63,27.71-9.17c-6.88,1.72-12.97,5.41-19.69,7.77c6.92-0.9,12.85,1.77,18.8,4.75
		C389.46,85.09,381.1,79.66,372.03,78.93z"/>
	<path d="M152.69,274.1c-4.21,0.02-6.92-2.47-6.96-6.4c-0.05-4.07,2.51-6.57,6.74-6.61c4.55-0.04,7.15,2.35,7.13,6.54
		C159.56,271.61,156.92,274.08,152.69,274.1z"/>
	<path d="M471.23,87.47c-3.19-3.78-5.45-8.18-8.76-12.1c7.07,0.78,10.8,6.01,13.24,18.56c-6.23-5.2-14.81-4.97-20.26-10.88
		C459.64,82.41,464.21,83.79,471.23,87.47z"/>
	<path d="M396.71,76.15c8.08-3.81,15.79-5.4,23.7-0.94c-5.62,0.17-11.09,1.82-16.9,1.59c5.35,1.01,8.87,4.56,12.75,8.52
		c-4.05-0.34-7.43-1.32-10.49-3.01C402.66,80.61,400.58,77.39,396.71,76.15z"/>
	<path d="M433.93,89.48c-5.8-2.63-11.32-5.23-16.34-9.25C423.46,79.27,430.46,83.26,433.93,89.48z"/>
	<path d="M445.93,71.95c6.58,0.37,11.34,2.83,15.56,7.76C455.25,78.92,450.65,76.12,445.93,71.95z"/>
	<path d="M481.91,102.23c1.68,1.78,2.91,3.75,2.69,6.92c-1.57-2.4-2.86-4.36-4.15-6.33C481,102.78,481.89,103.58,481.91,102.23z"/>
	<path d="M330.73,149.89c0.02,4.03,0.04,8.05,0.05,12.08c0,0.54,0.09,1.4-0.65,1.31c-0.87-0.1-0.8-0.95-0.65-1.66
		c1.18-2.41,0.18-4.97,0.5-7.44C330.17,152.74,329.56,151.15,330.73,149.89z"/>
	<path d="M339.76,183.95c1.59,1.25,1.82,3.24,2.63,4.98c-1.53-0.85-2.74-1.95-3.51-3.51C339.5,185.13,339.71,184.59,339.76,183.95z"
		/>
	<path d="M342.33,101.94c-1.42,1.68-2.7,3.49-4.89,4.46c1.22-1.7,2.44-3.41,3.67-5.11C341.52,101.51,341.92,101.73,342.33,101.94z"
		/>
	<path d="M359.15,202.01c1.93,0.29,2.97,2,4.61,2.8c-2.07-0.02-3.74-0.98-5.36-2.05C358.65,202.51,358.9,202.26,359.15,202.01z"/>
	<path d="M486.77,157.49c0.11,1.1,0.39,2.25-1.08,3.17c-0.37-1.92-0.49-3.62,0.4-5.27C486.36,156.08,486.06,156.95,486.77,157.49z"
		/>
	<path d="M362.68,84.74c-1.32,1.06-2.88,1.52-4.79,2.08c0.93-1.63,2.29-2.05,3.35-2.85C361.72,84.23,362.2,84.49,362.68,84.74z"/>
</g>
</svg>
