<?xml version="1.0" encoding="utf-8"?>
<!-- Generator: Adobe Illustrator 24.0.1, SVG Export Plug-In . SVG Version: 6.00 Build 0)  -->
<svg version="1.1" id="Camada_1" xmlns="http://www.w3.org/2000/svg" xmlns:xlink="http://www.w3.org/1999/xlink" x="0px" y="0px"
	 viewBox="0 0 500 500" style="enable-background:new 0 0 500 500;" xml:space="preserve">
<g>
	<path d="M149.34,242.42c0-0.71,0.21-1.57-1.01-1.69c-1.12-0.11-1.43,0.48-1.68,1.39c-0.65,2.36-1.57,4.61-2.71,6.78
		c-4.88,9.23-12.39,14.23-22.98,14.45c-5.37,0.11-10.73,0.47-16.1,0.73c-13.34,0.65-22.24,7.48-27.35,19.62
		c-0.26,0.62-0.31,1.45-1.33,1.94c0-1,0-1.75,0-2.51c0-6.14,0.28-12.29-0.05-18.41c-0.44-8.23,2.06-15.55,6.09-22.46
		c4.76-8.17,11.28-14.05,21.2-14.82c5.91-0.46,11.84-0.61,17.76-0.93c4.98-0.27,9.85-1.16,14.36-3.37
		c8.21-4.02,13.46-10.48,13.68-19.74c0.37-15.41,0.11-30.83,0.1-46.25c0-0.77,0.26-1.73-1.06-1.86c-1.15-0.11-1.41,0.54-1.65,1.43
		c-0.63,2.29-1.52,4.49-2.62,6.59c-4.76,9.07-12.05,14.19-22.5,14.54c-6.2,0.21-12.41,0.49-18.6,0.94
		c-7.86,0.58-14.54,3.77-19.63,9.86c-6.34,7.59-9.07,16.63-9.36,26.31c-0.34,11.08-0.08,22.17-0.08,33.26
		c-0.14,0.03-0.28,0.05-0.42,0.08c-0.33-0.82-0.64-1.66-0.99-2.47c-4.8-11.32-12.91-18.39-25.47-19.43
		c-6.81-0.57-13.65-0.76-20.47-1.14c-4.28-0.24-8.2-1.57-11.72-4.01c-5.88-4.09-9.27-9.9-11.37-16.59c-0.26-0.83-0.17-2.04-1.74-1.8
		c-1.61,0.25-1.06,1.41-1.07,2.25c-0.03,14.93,0,29.86-0.03,44.79c-0.01,4.32,1.2,8.28,3.48,11.87c4.38,6.89,11.1,10.16,18.85,11.59
		c7.37,1.36,14.88,1.03,22.31,1.65c2.66,0.22,5.24,0.7,7.75,1.61c11.14,4.07,20.82,18.49,20.86,31.17c0.03,11.72,0,23.44,0.02,35.16
		c0,0.7-0.28,1.61,0.93,1.73c1.12,0.11,1.44-0.5,1.58-1.46c0.57-3.96,1.78-7.74,3.43-11.37c4.26-9.34,10.67-16.32,21.18-18.49
		c4.59-0.95,9.31-0.75,13.97-1.05c6.33-0.4,12.71-0.46,18.72-2.9c9.09-3.7,15.21-10.18,15.56-20.14
		C149.73,273.69,149.35,258.05,149.34,242.42z M77.97,215.12c0.13-7.99,2.22-15.44,7.07-21.91c4.59-6.11,10.89-9.15,18.42-9.82
		c7.01-0.62,14.08-0.33,21.07-1.27c2.63-0.35,5.18-1.04,7.7-1.9c5.53-1.89,9.66-5.41,12.51-10.8c0.53,0.94,0.36,1.7,0.36,2.41
		c0.01,9.83-0.07,19.66,0.03,29.49c0.09,8.71-4.17,14.48-11.81,18.04c-4.36,2.03-9.05,2.7-13.81,2.96
		c-6.26,0.36-12.54,0.44-18.78,1.16c-9.26,1.07-16.41,5.41-21.32,13.38c-0.31,0.5-0.49,1.16-1.19,1.37c-0.5-0.55-0.28-1.2-0.28-1.79
		C77.93,229.35,77.85,222.23,77.97,215.12z M71.67,286.28c-0.96-0.42-1.16-1.06-1.47-1.57c-5.41-9.06-13.72-13.05-23.94-13.84
		c-7.71-0.6-15.49-0.29-23.14-1.67c-5.17-0.93-9.92-2.87-13.65-6.74c-3.33-3.45-5.1-7.6-5.11-12.44c0-10.32,0-20.65,0-30.97v-1.87
		c0.29,0.1,0.49,0.1,0.53,0.18c4.29,8.21,11.8,11.26,20.34,12.48c6.57,0.94,13.23,0.7,19.83,1.16c12.29,0.84,20.05,7.46,24.14,18.75
		c1.68,4.62,2.48,9.42,2.47,14.35C71.66,271.42,71.67,278.73,71.67,286.28z M131.45,305.73c-3.17,1.11-6.43,1.8-9.79,2.01
		c-6.75,0.41-13.51,0.67-20.24,1.28c-9.29,0.83-16.71,5-21.73,13.05c-0.4,0.64-0.82,1.26-1.24,1.89c-0.17-0.04-0.34-0.08-0.5-0.12
		c0-7.51,0.01-15.03-0.01-22.54c-0.01-2.87,0.32-5.7,0.93-8.5c0.62-2.8,1.44-5.53,2.64-8.13c4.78-10.32,12.97-15.41,24.26-15.91
		c6.54-0.29,13.12-0.13,19.61-1.21c8.03-1.32,14.97-4.4,19.1-11.96c0.05-0.09,0.22-0.12,0.38-0.2c0.51,0.68,0.26,1.47,0.26,2.18
		c0.02,9.55-0.24,19.11,0.08,28.65C145.56,297.04,138.63,303.21,131.45,305.73z"/>
	<path d="M218.58,294.12c3.81-2.26,4.99-4.84,4.07-8.59c-0.84-3.44-3.34-5.3-7.45-5.46c-2.16-0.08-4.32-0.01-6.48-0.05
		c-0.98-0.02-1.35,0.37-1.35,1.35c0.02,8.99,0.03,17.98,0,26.97c0,1.01,0.44,1.36,1.39,1.34c2.71-0.07,5.44,0.21,8.14-0.23
		c3.71-0.61,5.97-2.9,6.54-6.59C224.09,298.61,222.96,296.53,218.58,294.12z M213.08,284.26c2.44-0.38,4.3,0.57,4.92,2.45
		c0.5,1.53,0.1,2.88-0.93,4.04c-1.11,1.25-2.61,1.45-4.18,1.35c-0.73-0.05-0.91-0.51-0.91-1.12v-3.12h-0.01
		c0-0.21-0.06-0.44,0.01-0.62C212.36,286.26,211,284.59,213.08,284.26z M218.64,302.61c-0.57,2.06-3.52,3.44-5.86,2.81
		c-0.72-0.2-0.8-0.65-0.8-1.24v-3.33c0,0,0,0-0.01,0v-1.88c0-2.66,0.74-3.2,3.38-2.49C217.86,297.16,219.37,299.98,218.64,302.61z"
		/>
	<path d="M383.61,287.54c-0.22-4.87-3.05-7.37-7.99-7.49c-1.95-0.05-3.91,0.08-5.85-0.05c-1.65-0.11-1.98,0.61-1.95,2.08
		c0.08,4.24,0.03,8.49,0.03,12.74v12.95c0,0.07,0.01,0.14,0,0.21c-0.14,1.25,0.38,1.77,1.66,1.73c2.22-0.08,4.46,0.06,6.68-0.11
		c4.66-0.36,7.19-2.78,7.41-7.43C383.83,297.28,383.83,292.4,383.61,287.54z M379.06,300.74c-0.01,1.05-0.27,2.07-0.82,2.99
		c-0.79,1.31-3.47,2.24-5.04,1.64c-1.5-0.58-0.69-1.93-0.74-2.91c-0.12-2.57-0.04-5.14-0.04-7.72c0-2.92,0.04-5.84-0.02-8.76
		c-0.03-1.19,0.26-1.74,1.61-1.75c3.43-0.04,4.91,1.14,5.02,4.63C379.17,292.81,379.09,296.78,379.06,300.74z"/>
	<path d="M299.59,287.59c-0.82-0.86-2.11-0.08-2.66,0.78c-0.88,1.38-1.39,0.91-2.39,0.11c-3.39-2.72-8.87-1.13-10.05,3.05
		c-1.11,3.97-1.42,8.02,1.94,11.31c0.57,0.56,0.49,0.75-0.15,1.2c-2.95,2.08-2.99,3.26-0.29,5.84c-0.14,0.13-0.27,0.3-0.43,0.39
		c-1.52,0.82-2.65,1.9-2.3,3.8c0.34,1.85,1.76,2.6,3.4,2.95c2.96,0.64,5.95,0.68,8.9-0.1c2.89-0.77,4.06-2.3,4.03-5.05
		c-0.02-2.63-1.37-4.23-4.17-5c-1.71-0.46-3.46-0.33-5.19-0.48c-0.85-0.07-2.07,0.05-2-1.26c0.07-1.32,1.2-1.03,2.09-1.03
		c3.67,0.03,5.94-1.77,6.64-5.34c0.32-1.64,0.53-3.32,0.2-4.99c-0.33-1.63-0.26-2.86,1.93-2.54c0.27,0.04,0.65,0.09,0.69-0.24
		C299.92,289.85,300.38,288.4,299.59,287.59z M289.51,310.29c0.55,0.08,1.1,0.12,1.65,0.18c0-0.02,0-0.04,0.01-0.05
		c1.1,0.13,2.21,0.2,3.3,0.39c0.63,0.11,1.16,0.52,1.21,1.25c0.05,0.71-0.36,1.21-0.97,1.45c-1.93,0.76-3.94,0.67-5.91,0.21
		c-0.87-0.21-1.54-0.77-1.3-1.8C287.75,310.9,288.25,310.1,289.51,310.29z M292.8,298.74c-0.26,1.16-1.09,1.78-2.27,1.77
		c-1.2,0-2.02-0.69-2.24-1.82c-0.38-1.92-0.37-3.89-0.03-5.81c0.21-1.21,0.98-1.95,2.33-1.93c1.35,0.02,2.06,0.75,2.27,1.99
		c0.16,0.95,0.2,1.93,0.3,2.97C293.06,296.82,293,297.8,292.8,298.74z"/>
	<path d="M207.09,248.96c0.03-2.99-0.29-6,0.28-8.98c0.86-4.5,4.71-6.86,9.67-5.9c3.76,0.72,6.63,5.02,6.02,8.87
		c-0.2,1.29-1.11,1.13-1.88,1.03c-0.95-0.12-2.37,0.75-2.68-1.07c-0.15-0.89-0.24-1.81-0.54-2.64c-0.51-1.38-1.56-2.09-3.07-2.04
		c-1.44,0.05-2.3,0.84-2.81,2.12c-0.03,0.06-0.05,0.13-0.06,0.2c-0.66,5.83-0.77,11.66,0.12,17.47c0.19,1.26,1.3,1.92,2.62,2.02
		c1.39,0.11,2.46-0.4,3.11-1.65c0.5-0.94,0.76-1.98,0.75-3.02c-0.05-2.84,2.05-1.55,3.29-1.71c1.75-0.22,1.37,1.18,1.3,2.14
		c-0.38,5.87-3.51,8.92-8.81,8.63c-3.68-0.2-6.42-2.65-7.02-6.29c-0.11-0.69-0.26-1.38-0.27-2.07
		C207.07,253.7,207.09,251.33,207.09,248.96z"/>
	<path d="M297.02,257.58c-0.05-0.57-0.02-1.06-0.77-1.25c-1.85-0.49-3.02,0.18-3.44,2.05c-0.28,1.28-0.96,2.16-2.38,2.21
		c-1.45,0.05-2.33-0.62-2.71-2.06c-0.3-1.1-0.23-2.2-0.29-3.31c-0.07-1.2,0.44-1.58,1.59-1.55c2.16,0.06,4.32,0.01,6.47,0.01
		c0.8,0,1.57,0.01,1.54-1.14c-0.07-2.22,0.21-4.46-0.43-6.64c-0.88-3.04-3.4-4.59-7.17-4.39c-3.21,0.17-5.49,2.07-5.88,5.13
		c-0.25,1.99-0.24,4.02-0.35,6.03c0.03,0,0.05,0,0.07,0.01c0,1.32,0.01,2.64,0,3.97c-0.01,1.34,0.2,2.63,0.67,3.88
		c1.21,3.16,4.49,4.63,8.31,3.73C295.36,263.51,297.29,260.8,297.02,257.58z M290.26,245.11c1.73,0.05,2.6,1.17,2.58,3.33
		c-0.01,1.52-0.01,1.52-2.91,1.52c-0.84-0.32-2.59,0.84-2.5-1.49C287.51,246.28,288.47,245.06,290.26,245.11z"/>
	<path d="M428.92,303.12c-0.08-0.77-0.32-1.15-1.11-1.15c-1.55,0.01-3.29-0.49-3.21,2.17c0.04,1.29-1,2.12-2.39,2.13
		c-1.35,0.01-2.2-0.64-2.58-1.97c-0.34-1.16-0.28-2.34-0.33-3.52c-0.04-1.08,0.36-1.51,1.45-1.47c1.53,0.06,3.07,0.01,4.6,0.01
		c3.58,0,3.58,0,3.56-3.5c0.02-1.47-0.03-2.93-0.44-4.35c-0.88-2.97-3.49-4.53-7.24-4.32c-3.1,0.18-5.4,2.05-5.78,5
		c-0.52,3.95-0.36,7.92-0.15,11.89c0.05,0.88,0.36,1.78,0.72,2.6c1.25,2.88,4.84,4.21,8.41,3.18
		C427.43,308.96,429.24,306.22,428.92,303.12z M422.06,290.79c1.76,0,2.57,1.09,2.7,3.22c0.14,2.45-1.68,1.31-2.76,1.68
		c-0.88-0.49-2.69,0.88-2.68-1.47C419.33,292.02,420.28,290.78,422.06,290.79z"/>
	<path d="M492.61,301.54c0.81-4.02,1.62-8.03,2.42-12.05c0.33-1.62,2.7-2.66,4.13-1.84c0.53,0.31,0.29,0.71,0.21,1.08
		c-1.87,8.07-3.36,16.24-5.7,24.2c-0.96,3.24-3.59,4.73-6.95,4.51c-0.86-0.06-1.41-0.32-1.23-1.21c0.2-1.01-0.82-2.47,0.92-2.96
		c3.3-0.94,4.03-2.07,3.25-5.46c-1.38-5.97-2.85-11.92-4.22-17.9c-0.17-0.74-1.25-1.9,0.44-2.3c2.29-0.53,3.31-0.04,3.69,1.69
		c0.73,3.33,1.43,6.68,2.15,10.01c0.16,0.74,0.34,1.49,0.51,2.23C492.36,301.54,492.49,301.54,492.61,301.54z"/>
	<path d="M343.71,306.87c-0.08-0.69-0.11-1.39-0.11-2.09c-0.02-4.11-0.03-8.23-0.03-12.34c0-1.53-0.35-2.94-1.62-3.91
		c-2.13-1.63-4.54-1.69-6.96-0.88c-2.38,0.79-3.74,2.57-4.33,4.97c-0.1,0.39-0.23,0.83,0.11,1.18c0.74,0.75,3.99,0.09,4.3-0.93
		c0.4-1.33,1.14-2.02,2.57-1.88c1.22,0.11,1.6,0.94,1.77,1.99c0.22,1.35,0.1,2.41-1.47,2.99c-1.5,0.54-2.92,1.32-4.31,2.1
		c-3.46,1.95-4.67,6.11-2.84,9.59c0.74,1.4,1.87,2.15,3.5,2.27c2.04,0.15,3.39-1.03,4.84-2.37c0.75,0.79,0.31,2.09,1.81,2.19
		C343.78,309.89,344.03,309.74,343.71,306.87z M338.15,305.72c-0.89,0.49-1.83,0.79-2.75,0.18c-0.98-0.65-1.2-1.67-0.93-2.77
		c0.54-2.16,2.25-3.24,4.01-4.25c0.79-0.45,0.97,0.04,0.99,0.7c0.02,0.69,0,1.39,0,2.08C339.46,303.15,339.85,304.78,338.15,305.72z
		"/>
	<path d="M357.64,252.98c-0.04-2.29,0.12-4.6-0.32-6.87c-0.56-2.88-2.88-4.54-6.34-4.59c-3.56-0.05-6.18,1.57-6.6,4.49
		c-0.66,4.56-0.65,9.17-0.02,13.73c0.4,2.89,3.11,4.68,6.52,4.65c3.42-0.03,5.93-1.86,6.47-4.74
		C357.75,257.44,357.6,255.21,357.64,252.98z M353.28,258.27c-0.15,1.38-0.91,2.31-2.46,2.32c-1.55,0.01-2.33-0.92-2.47-2.29
		c-0.36-3.59-0.39-7.21,0.02-10.8c0.16-1.39,0.99-2.24,2.54-2.21c1.46,0.04,2.08,0.91,2.37,2.19c0.41,1.78,0.12,3.6,0.27,5.97
		C353.49,254.67,353.48,256.48,353.28,258.27z"/>
	<path d="M241.2,246.77c-0.22-3.51-3.01-5.4-7.01-5.25c-3.71,0.13-6.04,2.19-6.24,5.67c-0.1,1.87-0.02,3.76-0.02,5.63
		c0,1.95-0.09,3.9,0.02,5.85c0.2,3.49,2.65,5.61,6.45,5.72c3.73,0.1,6.6-1.93,6.8-5.31C241.44,254.99,241.45,250.86,241.2,246.77z
		 M237.13,257.87c-0.09,1.53-0.77,2.7-2.54,2.7c-1.77,0-2.47-1.16-2.5-2.71c-0.06-3.33-0.06-6.66,0.02-9.99
		c0.04-1.44,0.71-2.54,2.39-2.59c1.79-0.05,2.51,1.06,2.61,2.59c0.11,1.66,0.03,3.33,0.03,5h0.01
		C237.15,254.54,237.22,256.21,237.13,257.87z"/>
	<path d="M251.05,291.74c-0.47-3.19-3.32-4.8-7.15-4.55c-3.49,0.23-5.71,2.25-5.91,5.55c-0.12,1.94-0.02,3.89-0.02,5.84h0.01
		c0,2.01-0.11,4.04,0.03,6.05c0.23,3.18,2.5,5.13,6.09,5.41c3.42,0.27,6.54-1.59,6.96-4.59C251.7,300.9,251.72,296.28,251.05,291.74
		z M247.17,303.35c-0.08,1.61-0.72,2.89-2.58,2.91c-1.77,0.02-2.41-1.21-2.5-2.73c-0.2-3.33-0.23-6.66,0.02-9.99
		c0.12-1.57,0.87-2.62,2.63-2.58c1.7,0.04,2.29,1.21,2.4,2.61c0.13,1.66,0.03,3.33,0.03,5h0.02
		C247.19,300.16,247.25,301.76,247.17,303.35z"/>
	<path d="M279.02,298.51h-0.01c0-2.09,0.14-4.18-0.03-6.26c-0.26-2.99-2.58-4.87-5.91-5.07c-3.66-0.22-6.52,1.3-7.01,4.21
		c-0.8,4.74-0.8,9.57-0.01,14.32c0.46,2.78,3.5,4.54,6.75,4.34c3.57-0.22,5.96-2.17,6.19-5.29
		C279.15,302.69,279.02,300.6,279.02,298.51z M274.91,303.64c-0.13,1.55-0.86,2.68-2.61,2.62c-1.76-0.06-2.37-1.31-2.46-2.82
		c-0.1-1.59-0.02-3.19-0.02-4.79c0,0-0.01,0-0.01,0c0-1.6-0.08-3.2,0.02-4.8c0.1-1.55,0.62-2.9,2.57-2.91c1.81,0,2.42,1.18,2.53,2.7
		C275.17,296.97,275.19,300.31,274.91,303.64z"/>
	<path d="M404.57,253.01h-0.05c0-2.02,0.17-4.05-0.03-6.05c-0.39-3.67-3.02-5.6-7.08-5.45c-3.82,0.14-6.08,2.19-6.21,5.9
		c-0.12,3.61-0.12,7.24-0.01,10.85c0.13,3.87,2.49,6.02,6.47,6.12c3.97,0.1,6.63-2.13,6.89-5.95
		C404.67,256.64,404.57,254.82,404.57,253.01z M400.38,257.91c-0.11,1.52-0.81,2.68-2.58,2.68c-1.67,0-2.35-1.08-2.47-2.53
		c-0.28-3.4-0.28-6.8,0-10.19c0.12-1.43,0.74-2.53,2.43-2.57c1.81-0.04,2.49,1.13,2.61,2.62c0.14,1.66,0.03,3.33,0.03,5
		C400.41,254.58,400.5,256.25,400.38,257.91z"/>
	<path d="M366.95,244.45c1.47-1.13,2.39-2.09,3.68-2.54c2.76-0.96,4.7,0.06,5.24,2.93c0.49,2.62,0.17,5.28,0.22,7.92
		c0.05,2.99-0.07,5.99,0.04,8.99c0.07,1.68-0.37,2.33-2.18,2.32c-1.74-0.01-2.06-0.69-2.03-2.22c0.08-4.53,0.06-9.06,0-13.58
		c-0.02-1.23,0.35-2.88-1.72-2.93c-1.63-0.04-3.23,1.5-3.25,3.15c-0.04,4.46-0.07,8.92,0.02,13.38c0.03,1.56-0.31,2.2-2.04,2.21
		c-1.77,0.01-2.23-0.58-2.2-2.29c0.1-5.78,0.01-11.56,0.06-17.35c0.01-1-0.68-2.56,1.42-2.51
		C365.74,241.95,367.46,241.56,366.95,244.45z"/>
	<path d="M413.32,244.28c1.54-1.05,2.56-2.14,4.01-2.52c2.59-0.68,4.72,0.45,4.81,3.09c0.22,5.98,0.16,11.97,0.16,17.96
		c0,1.75-1.44,1.07-2.35,1.18c-1,0.12-1.76-0.09-1.74-1.41c0.04-4.11,0.01-8.22,0.01-12.33c0-0.7,0.07-1.4-0.03-2.09
		c-0.16-1.13,0.42-2.73-1.56-2.85c-1.62-0.09-3.31,1.4-3.33,3.06c-0.05,4.46-0.12,8.92,0.02,13.37c0.06,1.92-0.65,2.38-2.42,2.3
		c-1.37-0.06-1.78-0.52-1.77-1.86c0.05-5.85-0.02-11.7,0.07-17.55c0.01-0.95-0.9-2.63,1.19-2.69
		C411.82,241.91,413.75,241.26,413.32,244.28z"/>
	<path d="M305.98,244.64c1.6-1.3,2.52-2.26,3.79-2.72c2.85-1.02,5.03,0.1,5.29,3.08c0.52,5.91,0.16,11.85,0.19,17.77
		c0.01,1.75-1.42,1.1-2.33,1.22c-1.17,0.15-1.79-0.24-1.77-1.6c0.06-4.6,0.07-9.21-0.02-13.81c-0.02-1.25,0.52-3.04-1.61-3.25
		c-1.77-0.17-3.32,1.5-3.33,3.47c-0.02,4.46-0.09,8.93,0.03,13.39c0.05,1.81-0.92,1.81-2.21,1.84c-1.32,0.03-2.02-0.2-2-1.81
		c0.09-6,0.02-12,0.05-18c0.01-0.98-0.53-2.44,1.41-2.3C304.81,242.03,306.79,241.24,305.98,244.64z"/>
	<path d="M250.73,244.58c1.67-1.32,2.65-2.32,4.02-2.75c2.68-0.83,4.75,0.27,5,3.03c0.54,5.98,0.18,11.98,0.2,17.97
		c0,1.74-1.47,1.04-2.37,1.15c-1.03,0.13-1.72-0.15-1.71-1.44c0.05-4.25,0.01-8.51,0.01-12.76c0-0.56,0.05-1.12-0.02-1.67
		c-0.16-1.15,0.29-2.73-1.66-2.8c-1.64-0.06-3.26,1.44-3.27,3.11c-0.04,4.46-0.1,8.93,0.02,13.38c0.05,1.78-0.57,2.21-2.26,2.25
		c-1.87,0.03-1.95-0.89-1.94-2.31c0.05-5.86,0.01-11.71,0.03-17.57c0-1.02-0.44-2.39,1.46-2.26
		C249.63,242.01,251.53,241.33,250.73,244.58z"/>
	<path d="M451.85,287.15c2.86-0.07,4.95,1.2,6.35,3.66c0.4,0.71,1.08,1.66-0.22,2c-1.03,0.27-2.15,2.18-3.29,0.11
		c-0.6-1.09-1.36-1.93-2.72-1.98c-0.91-0.04-1.68,0.17-2.09,1.04c-0.44,0.93-0.29,1.85,0.54,2.44c1.24,0.89,2.58,1.64,3.89,2.44
		c1.66,1.02,3.41,1.96,4.36,3.78c1.44,2.77,0.7,6.24-1.72,8.12c-2.55,1.98-6.93,1.78-9.28-0.48c-0.64-0.62-1.25-1.36-1.6-2.17
		c-0.34-0.78-1.77-1.83-0.06-2.54c1.2-0.49,2.81-1.94,3.62,0.65c0.25,0.79,0.85,1.46,1.68,1.78c1.2,0.47,2.38,0.5,3.18-0.68
		c0.79-1.17,0.48-2.31-0.56-3.16c-0.8-0.65-1.73-1.17-2.64-1.67c-1.29-0.71-2.54-1.46-3.64-2.44c-2.1-1.86-2.81-4.54-1.88-7.01
		C446.69,288.58,448.96,287.12,451.85,287.15z"/>
	<path d="M312.54,298.76c0.16-2.57-0.34-5.03,0.5-7.41c1.16-3.31,4.33-4.88,8.35-4.11c3.03,0.58,5.07,3.36,4.98,6.56
		c-0.03,1.15-0.51,1.57-1.5,1.34c-0.95-0.22-2.57,0.94-2.71-1.17c-0.11-1.69-0.64-3.04-2.68-3.01c-2.19,0.03-2.63,1.66-2.7,3.29
		c-0.13,2.92-0.13,5.85,0,8.77c0.08,1.65,0.62,3.28,2.76,3.25c1.98-0.03,2.52-1.43,2.61-3.12c0.12-2.24,1.84-1.02,2.84-1.26
		c1.14-0.27,1.34,0.47,1.36,1.47c0.1,3.81-2.48,6.55-6.42,6.76c-4.31,0.23-7.13-2.3-7.38-6.71
		C312.46,301.81,312.54,300.21,312.54,298.76z"/>
	<path d="M272.36,254.87c0.71-3.6,1.42-7.21,2.14-10.81c0.38-1.89,2.48-2.91,4.17-2.07c0.54,0.27,0.43,0.67,0.35,1.05
		c-1.47,6.65-2.94,13.31-4.44,19.95c-0.38,1.67-1.8,0.86-2.78,1c-1.02,0.14-1.82-0.03-2.13-1.36c-1.27-5.49-2.67-10.94-4.02-16.41
		c-0.12-0.47-0.24-0.94-0.36-1.42c-0.73-2.96-0.55-3.1,2.53-2.9c1.28,0.08,1.39,0.87,1.59,1.77c0.83,3.73,1.68,7.45,2.52,11.18
		C272.07,254.86,272.22,254.87,272.36,254.87z"/>
	<path d="M404.73,300.51c0.68-3.38,1.36-6.75,2.02-10.13c0.57-2.91,0.77-3.04,3.62-2.82c0.91,0.07,1.23,0.3,1.02,1.25
		c-1.48,6.58-2.93,13.16-4.37,19.75c-0.31,1.4-1.4,1.15-2.32,1.1c-0.95-0.05-2.18,0.47-2.56-1.07c-1.62-6.62-3.24-13.23-4.88-19.84
		c-0.21-0.83,0.04-1.08,0.87-1.18c2.78-0.35,3.24-0.08,3.85,2.58c0.79,3.44,1.55,6.88,2.32,10.33
		C404.44,300.49,404.59,300.5,404.73,300.51z"/>
	<path d="M322.53,253.27c0-2.02-0.05-4.04,0.02-6.06c0.04-1.15-0.35-1.72-1.54-1.61c-1.37,0.13-1.79-0.49-1.78-1.84
		c0.01-1.29,0.3-2.02,1.74-1.84c1.38,0.18,1.66-0.6,1.57-1.76c-0.05-0.62-0.01-1.25-0.01-1.88c0.01-2.62,0.09-2.64,2.72-2.51
		c1.11,0.05,1.5,0.49,1.43,1.53c-0.03,0.49,0.03,0.98-0.01,1.46c-0.16,1.97-0.12,3.65,2.7,3.21c1.31-0.2,1.06,0.98,1.07,1.77
		c0.01,0.8,0.21,1.96-1.08,1.78c-2.8-0.39-2.77,1.27-2.71,3.25c0.1,2.85,0.05,5.71,0.03,8.57c-0.01,1.97,0.63,3.31,2.9,3.1
		c1.08-0.1,1.37,0.45,1.27,1.36c-0.1,0.88,0.47,2.12-1.03,2.34c-4.26,0.63-7.47-0.63-7.28-5.44c0.07-1.81,0.01-3.62,0.01-5.43
		C322.55,253.27,322.54,253.27,322.53,253.27z"/>
	<path d="M474.3,298.86c0-1.95-0.04-3.9,0.01-5.85c0.03-1.18-0.28-1.9-1.63-1.75c-1.62,0.18-1.49-0.92-1.55-2.02
		c-0.07-1.26,0.37-1.83,1.66-1.67c1.25,0.16,1.56-0.56,1.51-1.64c-0.03-0.76,0.08-1.54-0.01-2.3c-0.21-1.77,0.55-2.27,2.26-2.23
		c1.47,0.03,2.04,0.51,1.89,1.95c-0.07,0.62,0.06,1.26-0.02,1.88c-0.23,1.77,0.36,2.66,2.27,2.36c1.43-0.22,1.56,0.68,1.54,1.79
		c-0.02,1.06-0.05,2.07-1.49,1.87c-2.1-0.3-2.4,0.81-2.33,2.56c0.11,3.06,0.02,6.13,0.05,9.19c0.02,1.91,0.65,3.34,2.93,3.11
		c1.16-0.12,1.31,0.56,1.21,1.4c-0.1,0.86,0.49,1.98-1.02,2.34c-4.23,0.99-7.01-1.01-7.2-5.33c-0.08-1.88-0.01-3.76-0.01-5.64
		C474.33,298.86,474.31,298.86,474.3,298.86z"/>
	<path d="M256.4,294.82c0-4.32,0.09-8.65-0.04-12.97c-0.05-1.77,0.8-1.85,2.14-1.86c1.39-0.02,2.13,0.17,2.12,1.9
		c-0.09,8.65-0.09,17.29,0,25.94c0.02,1.76-0.79,1.86-2.15,1.89c-1.42,0.02-2.16-0.21-2.11-1.92
		C256.48,303.47,256.4,299.15,256.4,294.82z"/>
	<path d="M438.41,290.2c0.85-1.25,1.77-2.35,3.27-2.76c1.06-0.29,1.62-0.13,1.56,1.09c-0.03,0.7-0.03,1.39,0,2.09
		c0.03,0.89-0.33,1.14-1.25,1.15c-3.13,0.04-3.9,0.84-3.94,4c-0.05,3.76-0.03,7.53-0.02,11.29c0,1.43,0.22,2.69-2.03,2.69
		c-2.12,0-2.14-1.02-2.13-2.57c0.05-5.72,0-11.43,0.04-17.15c0.01-1.02-0.63-2.52,1.46-2.48c1.54,0.03,3.07-0.18,2.72,2.15
		C438.06,289.79,438.21,289.91,438.41,290.2z"/>
	<path d="M349.17,294.95c0-4.32,0.06-8.65-0.03-12.97c-0.03-1.6,0.56-2.01,2.07-2c1.48,0.01,2.1,0.34,2.09,1.97
		c-0.07,8.58-0.07,17.16,0,25.74c0.01,1.58-0.52,2.05-2.06,2.03c-1.48-0.01-2.14-0.38-2.1-2
		C349.23,303.47,349.17,299.21,349.17,294.95z"/>
	<path d="M392.9,298.51c0,3.21-0.07,6.41,0.03,9.62c0.06,1.86-1.15,1.52-2.22,1.55c-1.09,0.03-2.03,0.09-2.01-1.55
		c0.07-6.34,0.08-12.68,0-19.02c-0.02-1.88,1.17-1.48,2.22-1.52c1.08-0.04,2.07-0.15,2.01,1.52
		C392.82,292.24,392.9,295.37,392.9,298.51z"/>
	<path d="M338.97,253.1c0,3.06-0.08,6.12,0.03,9.18c0.07,1.7-0.86,1.73-2.08,1.74c-1.25,0.01-2.12-0.07-2.11-1.73
		c0.07-6.26,0.07-12.52,0-18.78c-0.02-1.78,1.08-1.57,2.2-1.6c1.15-0.03,2.02,0.02,1.97,1.6C338.91,246.7,338.97,249.9,338.97,253.1
		z"/>
	<path d="M228.65,298.52c0-3.06,0.07-6.12-0.03-9.18c-0.05-1.59,0.7-1.83,2.02-1.78c1.18,0.04,2.16-0.07,2.14,1.66
		c-0.07,6.26-0.07,12.52,0,18.78c0.02,1.69-0.91,1.68-2.13,1.71c-1.31,0.03-2.09-0.2-2.04-1.8
		C228.72,304.78,228.65,301.65,228.65,298.52z"/>
	<path d="M307.5,298.5c0,3.2-0.07,6.4,0.03,9.59c0.05,1.6-0.84,1.63-1.97,1.59c-1.09-0.04-2.24,0.24-2.22-1.58
		c0.07-6.32,0.07-12.65,0-18.98c-0.02-1.83,1.13-1.52,2.21-1.56c1.1-0.04,2.04-0.09,1.99,1.54
		C307.42,292.24,307.5,295.37,307.5,298.5z"/>
	<path d="M467.45,298.71c0,3.13-0.07,6.26,0.03,9.38c0.05,1.6-0.85,1.63-1.98,1.59c-1.09-0.04-2.24,0.23-2.22-1.58
		c0.07-6.32,0.07-12.65,0-18.98c-0.02-1.84,1.13-1.52,2.21-1.56c1.1-0.04,2.04-0.09,1.99,1.55
		C467.37,292.32,467.45,295.52,467.45,298.71z"/>
	<path d="M307.44,282.2c0.43,1.84-0.48,2.07-2.01,2.14c-1.85,0.08-2.11-0.69-2.13-2.29c-0.03-1.69,0.6-2.05,2.16-2.08
		C307.26,279.92,307.85,280.59,307.44,282.2z"/>
	<path d="M467.4,282.27c0.41,1.77-0.5,2-2.02,2.07c-1.85,0.08-2.11-0.69-2.13-2.29c-0.03-1.69,0.6-2.04,2.15-2.09
		C467.24,279.91,467.76,280.63,467.4,282.27z"/>
	<path d="M232.73,282.22c0.33,1.64-0.36,2.12-2.01,2.13c-1.64,0.01-2.12-0.48-2.13-2.11c-0.01-1.67,0.42-2.28,2.2-2.28
		C232.57,279.96,232.99,280.67,232.73,282.22z"/>
	<path d="M392.85,282.28c0.44,1.83-0.57,1.97-2.06,2.06c-1.88,0.11-2.09-0.69-2.13-2.3c-0.04-1.74,0.63-2.03,2.17-2.07
		C392.66,279.92,393.23,280.6,392.85,282.28z"/>
	<path d="M336.83,234.42c1.85-0.39,2.15,0.5,2.19,2.05c0.05,1.72-0.47,2.22-2.21,2.25c-1.85,0.03-1.99-0.8-2-2.25
		C334.81,234.93,335.08,233.93,336.83,234.42z"/>
</g>
</svg>
