<?xml version="1.0" encoding="utf-8"?>
<!-- Generator: Adobe Illustrator 24.0.1, SVG Export Plug-In . SVG Version: 6.00 Build 0)  -->
<svg version="1.1" id="Camada_1" xmlns="http://www.w3.org/2000/svg" xmlns:xlink="http://www.w3.org/1999/xlink" x="0px" y="0px"
	 viewBox="0 0 500 500" style="enable-background:new 0 0 500 500;" xml:space="preserve">
<style type="text/css">
	.st0{fill:#E9E9E9;}
	.st1{fill:#EEEEEE;}
	.st2{fill:#080808;}
	.st3{fill:#CFCFCF;}
	.st4{fill:#989898;}
	.st5{fill:#1C1C1C;}
	.st6{fill:#8A8A8A;}
	.st7{fill:#B6B6B6;}
	.st8{fill:#1E1E1E;}
	.st9{fill:#393939;}
	.st10{fill:#8B8B8B;}
	.st11{fill:#767676;}
	.st12{fill:#202020;}
	.st13{fill:#454545;}
	.st14{fill:#282828;}
	.st15{fill:#252525;}
	.st16{fill:#090909;}
	.st17{fill:#888888;}
	.st18{fill:#0B0B0B;}
	.st19{fill:#E3E3E3;}
	.st20{fill:#A1A1A1;}
	.st21{fill:#E1E1E1;}
	.st22{fill:#2B2B2B;}
	.st23{fill:#D9D9D9;}
	.st24{fill:#F6F6F6;}
	.st25{fill:#E8E8E8;}
	.st26{fill:#CDCDCD;}
	.st27{fill:#575757;}
	.st28{fill:#121212;}
	.st29{fill:#C4C4C4;}
	.st30{fill:#D3D3D3;}
	.st31{fill:#B7B7B7;}
	.st32{fill:#C0C0C0;}
	.st33{fill:#101010;}
	.st34{fill:#212121;}
	.st35{fill:#EDEDED;}
	.st36{fill:#AFAFAF;}
	.st37{fill:#969696;}
	.st38{fill:#B4B4B4;}
	.st39{fill:#4E4E4E;}
	.st40{fill:#5E5E5E;}
	.st41{fill:#DDDDDD;}
	.st42{fill:#E4E4E4;}
	.st43{fill:#171717;}
	.st44{fill:#C2C2C2;}
	.st45{fill:#8C8C8C;}
	.st46{fill:#AAAAAA;}
	.st47{fill:#B9B9B9;}
	.st48{fill:#CACACA;}
	.st49{fill:#1B1B1B;}
	.st50{fill:#373737;}
	.st51{fill:#C9C9C9;}
	.st52{fill:#A6A6A6;}
	.st53{fill:#A4A4A4;}
</style>
<g>
	<path class="st0" d="M23.51,316.43c0.24-1.79-1.94-2.22-2.13-3.77c0.44-0.31,0.93-0.48,1.47-0.53c0.77,0.02,1.99,0.71,2.07,0.59
		c3.08-4.76,9.4-4.3,13.02-8.1c3.25-2.86,7.09-5.05,9.79-8.54c1.58-2.11,2.71-4.61,5.25-5.86c5.36-1.21,7.03-5.57,8.59-10.01
		c1.89-5.18,5.95-9.16,7.94-14.29c0.34-0.89,1.24-1.39,2.32-1.25c4.14,6.12,9.6,10.91,15.52,15.25c0.62,6.28-2.49,11.29-5.61,16.3
		c-1.13,1.01-2.23,2.48-3.69,2.56c-5.09,0.28-7.39,4.19-10.32,7.33c-7.72,4.2-16.29,5.52-24.74,7.2c-3.64,1.66-8.28-0.33-11.43,3.11
		C28.88,316.43,26.2,316.43,23.51,316.43z"/>
	<path class="st1" d="M30.43,191.56c-6.95-1.82-14.44,1.62-22.73-2.38c10.44-2.06,19.45-3.84,28.46-5.62c4.6,0,9.2,0,13.8,0
		c10.49,2.54,21,5.01,31.05,9.07c1.14,0.46,2.08,0.76,2.32,2.05c-0.16,1.21,0.92,2.14,0.78,3.36c-1.65,6.09-2.14,6.32-7.73,3.33
		c-0.99-0.53-1.82-0.11-2.73,0.03c-1.48,0.19-2.62-0.45-3.64-1.42c-7.51-5.46-16.05-8.42-25.08-10.01c-2.6-0.46-5.36-0.21-7.97-0.81
		C34.17,188.53,32.1,189.4,30.43,191.56z"/>
	<path class="st2" d="M80.81,295.77c2.73-5.05,4.83-10.34,6.11-15.93c-0.36-3.95,1.6-6.86,4.24-9.47c6.7,6.78,10.74-0.95,15.58-3.32
		c-3.39-5.24-7.39-10.67-11.52-16c-0.34-1.09-0.33-2.15,0.29-3.15c6.48,1.26,10.28-1.29,12.04-7.7c0.91-3.3,3.52-3.54,6.35-1.74
		c1.6,1.02,3.38,1.77,4.73,3.16c0.62,0.67,1.08,1.44,1.36,2.31c0.65,2.5,0.57,5.05,0.53,7.6c-1.98,7.45,1.08,15.03-0.61,22.49
		c-2.23,4.64-1.73,9.61-1.66,14.49c0.06,4.18-0.72,7.87-4.12,10.65c-4.32,0.03-7.82,2.58-11.76,3.74
		c-7.25,2.15-14.35,4.81-21.93,5.88c-3.64,0.51-7.25,2.85-9.79-1.81c-1.18-0.4-1.83-1.06-1.16-2.36
		C73.33,301.76,78.1,300.07,80.81,295.77z"/>
	<path class="st3" d="M114.13,299.14c3.62-6.23,2.07-13.18,2.76-19.81c0.2-1.95-0.65-4.29,2.04-5.27c6.25-2.29,2.09-7.86,3.5-11.7
		c0.46-1.24-0.48-3.21,0.88-4.61c0.75-0.43,1.53-0.48,2.34-0.19c0.71,0.44,1.14,1.1,1.51,1.81c0.63,1.69,2.59,2.58,2.78,4.54
		c-2,2.86-1.75,5.47,0.26,8.38c1.57,2.28,3.18,4.85,2.18,7.97c-0.23,0.5-0.59,0.88-1.05,1.17c-1.87,0.61-3.32-0.42-5.49-1.56
		c1.89,1.29,3.27,1.96,4.77,2.39c0.49,0.23,0.89,0.56,1.21,1c-2.34,2.78-3.67,6.79-8.28,6.85c-1.79-0.47-0.19-5.02-3.93-3.25
		c0.21,2.45,2.24,2.64,3.91,3.24c1.6,4.26-3.81,4.19-4.41,7.09C117.45,297.83,115.79,298.48,114.13,299.14z"/>
	<path class="st4" d="M131.5,283.29c-0.34-0.04-0.69-0.07-1.04-0.09c-0.74-1.31,0.49-1.64,1.14-2.25l0.02,0.01
		c-0.24-1.31,4.2,0.02,1.51-2.99c-1.68-1.87,1.04-2.77,2.12-3.88c2.18-2.22,5.75-2.95,7.34-6.56c-2.83-0.17-4.15,1.62-5.77,2.74
		c-1.85,1.28-3.78,3.44-5.96,1.09c-1.84-1.98-1.99-4.48,0.29-6.58c1.26-0.07,2.3,1.45,3.87-0.42c1.65-1.96,3.1-4.37,5.61-5.58
		c1.07-0.29,2.09-0.05,3.12,0.21c2.16,0.89,4.49,1.36,6.49,2.64c3.22,1.44,1.68,4.23,1.86,6.53c-4.15,6.18-10.31,10.29-15.7,15.19
		C134.74,284.33,133.11,284.77,131.5,283.29z"/>
	<path class="st5" d="M100.93,203.99c5.05,1.87,9.21,4.92,12.39,9.27c0.99,1.97,1.67,3.98,0.72,6.17c-0.51,0.97-1.35,1.32-2.37,1.07
		c-3.43-0.88-5.11,0.9-6.8,3.65c-1.56,2.53-2.72,6.66-7.4,4.54c-0.69-4.79,0.51-9.47,0.79-14.21c2.29-2.82,4.87-5.21,0.5-8.91
		C96.92,203.99,99.44,203.64,100.93,203.99z"/>
	<path class="st6" d="M113.21,220.22c0.03-2.32,0.07-4.64,0.1-6.97c4.54,3.33,7.28,8.07,10.08,12.76c-0.69,2.36,1.66,4.7,0.06,7.07
		c-4.66,0.51-3.25-4.29-5.42-5.97c-0.83,0.82-0.71,3.05-2.94,2.28C112.86,226.67,112.11,223.63,113.21,220.22z"/>
	<path class="st7" d="M131.5,283.29c1.63,0.02,3.26,0.05,4.89,0.07c-4.34,6.37-10.67,10.25-17.27,13.81
		c-1.34-4.12,4.56-3.72,4.44-7.08l0,0C126.77,288.48,128.06,284.64,131.5,283.29z"/>
	<path class="st8" d="M69.54,305.24c0.37,0.57,0.74,1.14,1.11,1.71c-7,2.39-13.84,5.24-21.14,6.72c-2.25,0.46-4.41,0.98-6.51-0.36
		c3.66-4.24,9.26-2.62,13.8-4.36c3.43-1.31,7.08-2.25,10.48-3.81C68.07,304.29,68.82,304.28,69.54,305.24z"/>
	<path class="st9" d="M100.93,203.99c-0.55,0.33-1.96,0.66-1.58,0.85c2.77,1.37,2.86,4.66,5.63,6.52c-2.19,0.8-3.85,1.4-5.52,2
		c-3.01-4.65-8.87-7.26-9.71-13.47c3.43-1.64,5.18,3.16,8.44,2.18C99.11,202.72,100.02,203.35,100.93,203.99z"/>
	<path class="st10" d="M143.34,260.15c-0.79-0.32-1.58-0.63-2.37-0.95c-2.18,0.05-2.61,2.71-4.57,3.05
		c-2.45,0.43-4.62,0.24-5.11-2.86c1.37-2.05,5.9-1.67,4.48-5.84c-0.08-0.51-0.02-1.01,0.14-1.51c0.87-1.43,2.22-2.01,3.84-2.13
		c1.52,2.22,4.07,3.74,4.54,6.67C145.2,258.1,144.25,259.12,143.34,260.15z"/>
	<path class="st11" d="M123.58,232.79c-1.06-2.23-2.2-4.46-0.18-6.77c3.25,4.45,4.39,9.91,7.05,14.65c1.24,2.36,2.16,4.7-0.12,7
		c-4.12-1.68-4.65-5.67-5.97-9.16C124.02,236.61,123.17,234.78,123.58,232.79z"/>
	<path class="st12" d="M129.33,247.75c2.25-2.06,0.88-4.7,1.13-7.08c1.75,1.26,3.58,2.45,4.7,4.38c0.75,1.59,0.6,4.05,3.49,3.53
		c0.37,0.45,0.74,0.89,1.11,1.34c-0.68,1.53-2.28,1.73-3.52,2.44c-3.54,0.65-7.43,1.94-7.41-3.98
		C128.98,248.17,129.15,247.96,129.33,247.75z"/>
	<path class="st13" d="M143.34,260.15c-0.51-1.4,0.34-2.45,0.94-3.56c1.53,0.64,2.53,2.35,4.69,1.75c2.36-0.65,3.18,1.03,3.51,3.01
		c-0.52,1.07-1.53,1.21-2.55,1.33C147.73,261.84,145.53,260.99,143.34,260.15z"/>
	<path class="st14" d="M149.92,262.69c0.49-1.13,1.54-1.19,2.55-1.33c2.85,2.44,1.52,4.64-0.38,6.81
		C148.85,267.33,153.6,263.35,149.92,262.69z"/>
	<path class="st15" d="M98.2,202.08c-3.73,2.68-5.24-2.71-8.35-2.28c-1.42,0.55-2.19,0.01-2.45-1.42c0.22-0.93,0.61-1.6,1.74-1.19
		C92.16,198.82,95.18,200.45,98.2,202.08z"/>
	<path class="st16" d="M138.64,248.57c-0.78,1.32-1.97,1.67-3.2,0.88c-1.97-1.26-0.04-2.94-0.29-4.41
		C136.65,245.89,137.9,246.98,138.64,248.57z"/>
	<path class="st17" d="M89.14,197.19c-0.48,0.48-0.97,0.95-1.45,1.43c-1.96,1.27-3.37,0.64-4.42-1.26
		c-0.39-0.89-1.71-1.81,0.05-2.66C85.27,195.53,87.2,196.36,89.14,197.19z"/>
	<path class="st18" d="M22.05,312.84l-0.3-0.18c0,0-0.35,0.01-0.35,0.01c-3.69-7.48,0.6-13.55,3.53-19.86
		c0.18-2.78,1.92-4.71,3.56-6.76c1.45-1.81,3.75-3.26,3.22-6.13c-0.21-1.77,0.09-3.35,1.71-4.42c2.56-1.37,5.38-1.9,8.19-2.43
		c3.71,0.61,6.96,0.11,9.94-2.63c2.35-2.17,5.49-3.36,8.49-4.52c4.33-1.69,7.12,0.74,6.24,5.31c-0.41,2.12-1.62,3.89-3.42,5.04
		c-4.21,2.69-6.15,6.51-6.19,11.4c-0.54,1.74-1.87,2.71-3.4,3.5c-2.37,1.15-2.79,3.92-4.61,5.53c-3.29,3.13-7.13,5.52-10.95,7.94
		C32.72,307.81,27.39,310.35,22.05,312.84z"/>
	<path class="st19" d="M20.07,292.38c-2.17,2.53-3.87,6.78-7.4,6.21c-3.39-0.54-4.58-4.63-5.66-7.98
		c-2.96-9.16-6.27-18.24-6.49-28.01c-0.13-6.03,0.24-6.22,6.05-3.82c1.76,0.73,3.42,1.71,5.43,1.59c0.38,0.41,0.55,0.9,0.56,1.45
		c-0.44,4.54-0.31,9.26-1.54,13.56c-1.86,6.47,0.71,10.58,5.46,14.22C17.68,290.52,19.19,291.05,20.07,292.38z"/>
	<path class="st20" d="M44.21,220.24c8.12-2.38,12.92-9.47,19.69-13.78c2.09,0.98,3.14,2.68,3.47,4.9c-0.03,3.25-0.22,6.46-2.66,9
		c-1.27,0.24-1.62-0.63-1.84-1.59c-0.65-2.9-1.14,0.61-1.72,0.05c-2.57,1.23-4.67,2.99-6.3,5.3c-1.25,1.06-2.56,2.03-4.09,2.66
		c-1.1,0.36-2.22,0.38-3.35,0.17c-6.7-1-15.45,6.78-16.53,14.84c-0.48,3.59-0.4,7.21-0.27,10.84c0.08,2.36,0.79,5.04-1.74,6.8
		c-1.51-0.28-2.31-1.37-2.69-2.66c-2.31-7.79-0.19-26.58,9.68-31.04C38.45,223.61,41,221.42,44.21,220.24z"/>
	<path class="st21" d="M30.43,191.56c-0.13-3.92,1.73-4.99,5.45-4.14c6,1.37,12.55,0.41,18.13,3.16c5.62,2.78,12.71,2.95,16.65,8.85
		c-1.5,2.33-3.94,0.6-5.81,1.33C53.22,198.3,42.58,192.14,30.43,191.56z"/>
	<path class="st22" d="M64.85,200.77c1.46-2.49,3.96-0.51,5.81-1.33c1.11,0.56,2.22,1.12,3.33,1.68c4.85,2.79,6.81,7.66,9.02,12.36
		c-0.03,1.2-0.38,2.18-1.68,2.55c-8.82-3.45-10.53-2.46-13.09,7.58c-1.34,5.25-3.81,7.42-8.08,7.07c-0.73-2.95,1.2-5.38,1.58-8.11
		c0.47-1.09,1.04-2.09,2.23-2.54c1.67-2.73,1.81-5.84,2.27-8.88c2.63-2.83-2.5-5.4-0.27-8.21
		C65.96,202.04,65.73,201.24,64.85,200.77z"/>
	<path class="st23" d="M20.07,292.38c-7.73-1.63-12.48-8.24-10.53-15.51c1.37-5.09-0.06-10.57,2.5-15.41
		c1.33-0.83,2.59-0.96,3.66,0.42c-1.77,10.08-2.56,19.96,5.88,27.92c0.15,0.55,0.03,1.05-0.32,1.5
		C20.87,291.65,20.47,292.02,20.07,292.38z"/>
	<path class="st24" d="M15.53,262.48c-0.91-1.21-2.24-0.98-3.49-1.03c-0.02-0.36-0.04-0.73-0.04-1.09c3.56,0.06,7.32-0.95,10.15,2.4
		c0.88,1.04,2.12,0.77,2.95-0.31c1.17-1.53,0.04-2.71-0.57-4.13c-3.81-8.9-3.16-17.62,1.53-26.06c0.15-0.28,0.65-0.37,0.99-0.55
		c0.97,1,1.02,2.21,0.81,3.48c-2.69,6.1-2.11,12.56-2,18.95c0.05,2.98,1.82,5.25,3.87,7.28c1.17,1.39,2.44,2.72,2.39,4.72
		c-0.34,1.34-1.33,1.87-2.58,2.08c-2,0.19-3.85-0.66-5.79-0.86c-1.04-0.2-2.02-0.56-2.88-1.18c-0.97-0.75-2.07-1.29-3.2-1.76
		C16.77,263.98,15.92,263.48,15.53,262.48z"/>
	<path class="st25" d="M21.27,291.29c-0.03-0.36-0.02-0.73,0-1.09c0-0.84,0.36-1.54,0.87-2.18c1.78-1.97,3.69-3.81,5.55-5.72
		c1.5-1.14,2.84-2.88,5.08-1.47c0.87,3.56-2.72,4.38-4.09,6.56c-1.16,1.85-2.5,3.6-3.76,5.39
		C24.14,291.24,22.72,291.23,21.27,291.29z"/>
	<path class="st26" d="M26.82,235.08c0.08-1.12,0.16-2.24,0.23-3.36c4.42-5.76,9.84-10.03,17.16-11.49
		c-2.33,1.9-4.66,3.81-6.99,5.71c-3.55,1.3-6.05,3.72-7.73,7.06C28.95,234.1,28.78,235.77,26.82,235.08z"/>
	<path class="st27" d="M65.97,202.95c-0.45,2.76,5.53,5.3,0.27,8.21c-0.78-1.57-1.57-3.14-2.35-4.71
		C64.22,205.07,63.34,202.98,65.97,202.95z"/>
	<path class="st28" d="M55.73,287.86c-1.37-5.63,1.29-9.68,5.75-12.37c2.06-1.25,3.64-2.82,3.56-4.66
		c-0.09-2.08,0.34-6.55-4.52-3.76c-2.97,1.7-6.57,2.72-8.88,5.04c-3.11,3.12-6.06,3.41-9.73,1.92c0.58-3.98,0.59-8.03,1.29-12
		c1.93-3.91,3.8-7.87,7.11-10.88c2.85-2.82,5.44-5.77,6.56-9.78c0.91-3.24,4.05-4.91,5.84-7.58c0.88-1.31,2.87-1.14,4.28-0.4
		c2.5,1.3,4.58,3.33,7.24-0.26c1.02-1.38,2.97,0.82,4.22,1.87c1.98,1.66,2.16,3.57,1.4,6.14c-1.57,5.28-4.51,10.3-3.69,16.14
		c-0.53,3.03-1.06,6.08-4.43,7.43c-2.33,5.77-6.26,10.64-9.23,16.05C60.53,283.39,60.15,287.54,55.73,287.86z"/>
	<path class="st24" d="M71.73,264.7c1.29-2.58,2.57-5.15,3.86-7.73c0.2-5.34,2.32-10.28,3.88-15.23c1.34-4.26-1.3-9.36,2.91-12.84
		c3.56-2.55,7.9-2.05,11.88-2.75c3.9-0.69,3.25,3.25,4.27,5.43c0.26,5.54-0.07,10.99-2.33,16.16c-0.14,1.11-0.27,2.23-0.41,3.34
		c1.24,7.12-0.88,13.49-4.41,19.54c-1.48,3.07-2.96,6.14-4.45,9.21C79.38,277.26,74.37,272.16,71.73,264.7z"/>
	<path class="st29" d="M69.54,305.24c-0.75-0.03-1.5-0.06-2.26-0.1c2.09-6.59,8.75-6.64,13.53-9.38
		C78.97,301.2,74.19,303.14,69.54,305.24z"/>
	<path class="st30" d="M22.05,312.84c4.25-4.42,10.37-5.62,15.3-8.87c0.67,0.09,1.08,0.46,1.19,1.14c-1.03,2.31-2.08,4.3-5.36,3.79
		c-2.21-0.34-4.04,1.07-5.13,3.01C26.4,314.83,24.24,313.77,22.05,312.84z"/>
	<path class="st31" d="M38.53,305.1c-0.4-0.38-0.79-0.76-1.19-1.14c3.91-2.22,7.04-5.62,11.3-7.3
		C46.42,300.84,42.33,302.8,38.53,305.1z"/>
	<path class="st32" d="M55.73,287.86c3.24-1.45,4.1-5.14,6.77-7.12c-1.36,4.99-2.75,9.94-9.25,10.4
		C54.08,290.05,54.9,288.96,55.73,287.86z"/>
	<path class="st21" d="M97.27,230.84c-1.39-4.31-1.63-4.16-5.3-2.83c-2.7,0.98-5.76,0.95-8.66,1.38c-0.95-0.93-1.1-2.09-0.97-3.34
		c0.9-4.28,0.83-8.56-0.13-12.83c-2.74-4.03-5.48-8.07-8.22-12.1c0.25-1.82,1.24-3.4,2.79-1.48c4.73,5.88,5.49,1.7,6.5-2.29
		c1.47,0.42,2.95,0.84,4.42,1.26c0.72,0.39,1.44,0.79,2.15,1.18c2.48,5.03,8.54,7.55,9.62,13.56c0.36,5.4-0.61,10.69-1.22,16.02
		C98.62,230.33,98.1,230.7,97.27,230.84z"/>
	<path class="st33" d="M97.27,230.84c0.33-0.49,0.65-0.97,0.98-1.46c2.49-1.73,4.67-3.61,5.89-6.6c1.99-4.9,4.27-5.43,9.08-2.56
		c0.76,3.05,1.52,6.1,2.28,9.16c2.32,3.94,4.1,7.97,2.1,12.62c-7.85-4.24-8.23-4.37-11.16,3.88c-2.6,7.33-6.44,3.47-10.25,1.87
		C95.28,242.03,97.85,236.54,97.27,230.84z"/>
	<path class="st34" d="M91.37,270.63c1.47-6.51,2.94-13.02,4.41-19.54c6.69,4.49,8.98,12.29,14.26,18.5
		c-3.95-2.3-5.87-0.08-7.78,2.32C98.51,276.6,93.77,276.02,91.37,270.63z"/>
	<path class="st35" d="M123.68,257.8c0.95,4.15-0.66,8.38,0.08,12.4c0.94,5.12-1.04,5.27-4.82,3.84c0.42-7.61-2.02-15.24,0.13-22.85
		c2.18-0.75,4.37-1.54,6.26,0.63C125.56,254.04,125.09,256.05,123.68,257.8z"/>
	<path class="st36" d="M124.78,251.14c-1.89,1.11-3.8,0.81-5.71,0.06c-0.12-2.66-0.25-5.33-0.37-7.99c0.41-1.28-0.31-2.62,0.09-3.85
		c0.67-2.1,1.15-4.66,3.52-5.35c2.6-0.75,1.36,3.17,3.44,3.45c-0.33,3.95,3.93,6.32,3.58,10.28c0,0,0.08,0.1,0.08,0.1
		C127.94,249.05,127.69,251.95,124.78,251.14z"/>
	<path class="st37" d="M125.74,237.46c-1.95,0.16-1.85-2-3.18-2.84c-2.25,2.47-2.33,5.87-3.87,8.58c-0.37-0.4-0.73-0.8-1.1-1.21
		c0.02-4.33-2.48-8.24-2.1-12.62c2.23-1.55,0.16-4.46,2.13-6.36c3.13,2.59,1.82,7.91,5.96,9.76
		C124.3,234.35,125.02,235.9,125.74,237.46z"/>
	<path class="st38" d="M131.49,265.28c-1.33,2.19-1.23,4.64,0.75,5.93c1.78,1.16,2.64-1.6,4.06-2.3c2.61-1.28,5.14-6.22,7.88-2.73
		c1.89,2.41-2.14,4.95-4.82,6.59c-2.04,1.25-3.85,2.87-5.75,4.32c0.19,0.93,0.82,1.21,1.66,1.22c0.95,0,2.39-1.39,2.68,0.51
		c0.19,1.26-1.12,1.89-2.33,2c-1.33,0.13-2.67,0.09-4,0.13c0.56-3.45-1.14-6.34-3-8.78c-2.57-3.37-2.01-5.94,0.75-8.58
		C130.65,263.45,131.45,263.89,131.49,265.28z"/>
	<path class="st39" d="M131.49,265.28c-0.71-0.56-1.41-1.13-2.12-1.69c-1.25-1.02-3.2-1.28-3.53-3.28c1.27-1.23,3.04-1.01,4.54-1.59
		c0.49-0.01,0.92,0.16,1.26,0.5c2.16,3.62,4.4,2.69,6.7,0.14c0.79-0.88,1.52-3.64,2.62-0.17c-1.76,2.46-3.42,4.9-6.07,6.7
		C133.1,267.12,132.62,265.35,131.49,265.28z"/>
	<path class="st40" d="M124.78,251.14c1.54-1.1,3.08-2.2,4.63-3.3c-0.59,5.8,5.13,2.13,6.82,4.51c0,0,0.03-0.08,0.03-0.08
		c-1.46,1.73-3.24,2.82-5.58,2.75c-3.82-2.54-3.11,2.17-4.83,3c-0.72-0.07-1.44-0.15-2.16-0.22
		C122.97,255.41,124.44,253.37,124.78,251.14z"/>
	<path class="st41" d="M125.84,258.03c-0.34-2.4-0.22-4.88,2.29-5.89c1.46-0.58,1.85,1.39,2.43,2.49c1.27,1.44,1.17,2.93,0.14,4.45
		c-0.89,3.23-3.23,0.83-4.85,1.24C125.84,259.55,125.84,258.79,125.84,258.03z"/>
	<path class="st42" d="M123.55,290.1c-5.43,1.07-5.97,0.49-5.34-6.05C121.9,284.45,123.72,286.37,123.55,290.1
		C123.56,290.1,123.55,290.1,123.55,290.1z"/>
	<path class="st7" d="M131.6,280.94c-0.38,0.75-0.76,1.5-1.14,2.25c-3.42-0.33-5.64-2.35-7.85-5.41
		C126.58,277.29,128.39,281.14,131.6,280.94z"/>
	<g>
		<path d="M495.91,301.56c0.03-3.61,0.16-7.23,0.06-10.84c-0.08-2.85-1.58-5.15-4.26-5.9c-2.73-0.77-5.61-0.66-7.08,2.54
			c2.8-0.51,5.58-0.92,7.75,1.64c-0.94,4.89,2.78,10.71-3.13,14.84c3.53,0,6.89,0,10.25,0c0-0.38,0-0.76,0-1.15
			C498.27,302.4,496.71,303.18,495.91,301.56z"/>
		<path d="M314.59,231.19c-0.25,6.64-0.07,13.31-0.07,19.98c-0.67,1.65-3.39,0.08-4.06,2.96c7.67-1.38,15.19,1.47,22.3-2
			c6.48-4.95,5.33-10.33-3.13-14.14c3.34-1.83,6.24-3.93,5.49-8.31c-0.51-2.94-2.3-4.79-5.18-5.34c-6.45-1.23-12.88-0.64-19.7,0.14
			C314.48,225.33,314.72,227.9,314.59,231.19z M323.4,225.48c4.21,0.32,7.2,1.4,7.01,6.22c-0.18,4.88-3.6,5.39-7.58,5.7
			c-5.76,0.45-3.14-3.73-3.7-5.57C318.86,228.14,318.38,225.1,323.4,225.48z M323.51,238.97c6.46,0.58,8.82,2.97,7.99,8.92
			c-0.09,0.74-0.48,1.43-0.75,2.13c-0.21,0.02-0.43,0.03-0.63,0.06c0.03,0.1,0.08,0.21,0.14,0.3c-3.41,2.36-7.02,2.54-10.81,0.98
			c0.02-0.01,0.05-0.03,0.07-0.06c0.03-0.07,0.07-0.14,0.09-0.21c-0.22,0.02-0.44,0.03-0.66,0.06c0.05-1.7-0.03-3.42,0.15-5.11
			C319.44,243.03,317,238.39,323.51,238.97z"/>
		<path d="M310.2,274.11c-7.61-0.04-15.21-0.02-22.82-0.02c-0.2,0.47-0.39,0.94-0.59,1.41c4.46,0.2,4.89,2.66,4.75,6.04
			c-0.27,6.66-0.07,13.34-0.06,20.01c-0.76,1.64-3.49-0.05-3.96,2.33c4.41,0,8.7,0,12.98,0c-6.96-1.15-3.78-6.67-4.66-10.32
			c0.76-1.35-0.85-3.88,1.77-4.21c3.82-0.47,4.55,3.43,6.9,6.22c0-5.15,0-9.28,0-13.57c-0.8,0.3-1.41,0.38-1.44,0.57
			c-0.58,3.24-2.63,6.12-5.66,4.8c-3.04-1.33-0.92-5.34-1.27-8.14c-0.45-3.61,2.31-2.96,4.58-3.27c6.43-0.86,8.84,3.37,10.82,8.51
			c0.45-2.71,0.47-5.1,0.44-7.48C311.96,275.71,312.21,274.12,310.2,274.11z"/>
		<path d="M263.98,277.61c-1.34,2.58,0.82,6.93-3.93,7.83c-0.3,0.06-0.07,0.71,0.38,1.19c3.57,3.84,3.54,13.57,0.03,17.26
			c3.36,0,6.69,0,10.8,0c-7.72-3.64-3.15-9.84-4.4-14.56c-1.02-3.83,2.75-1.91,4.44-3.51c-4.46-1.44-5.74-6.28-2.88-9.5
			c0.87-0.98,1.83-1.31,3.03-1.06c1.81,0.38,0.27,1.4,0.34,2.1c0.13,1.31,0.81,2.15,2,2.45c1.09,0.28,1.74-0.6,2.31-1.35
			c0.99-1.31-0.15-2-0.87-2.85C271.94,271.79,266.43,272.89,263.98,277.61z"/>
		<path d="M199.04,253.61c0.24,0.11,0.44,0.16,0.62,0.18c3.15,0.89,6.6,1.49,9.18-0.36c2.78-1.99,4.11-0.94,5.58,1.26
			c2.76-4.66-2.96-11.52,5.8-13.74c-6.52-1.37-10.15-1.22-14.23,0.4c1.84,1.26,5.33,0.28,4.87,4.19c-0.33,2.82-0.63,5.37-3.54,6.56
			c-2.17,0.88-4.51,0.65-6.79,0.35c-7.03-4.31-5.91-11.28-5.49-17.76c0.54-8.48,5.28-11.33,13.57-8.74c2.96,2.3,3.46,6.21,5.84,9.02
			c-0.23-3.92,0.91-7.81-0.64-11.86c-1.55,0.79-2.25,2.75-4.07,1.87c-7.95-4.11-15.28-1.73-18.74,6.09
			C186.8,240.56,190.33,250.46,199.04,253.61z"/>
		<path d="M401.45,298.05c0.05-6.08-0.07-12.16-0.06-18.24c0.02-7.25-0.15-7.39-7.6-5.17c6.21,2.79,3.58,7.52,2.57,11.89
			c-3.32-3.62-6.81-2.82-10.04-0.06c-3.53,3.02-4.35,10.08-1.65,14.23c2.44,3.73,5.73,5.55,10.19,3.07
			c2.96-2.07,6.22,3.53,9.37-0.74C401.17,302.54,401.43,300.3,401.45,298.05z M394.77,302.36c-0.16-0.09-0.32-0.18-0.48-0.28
			c-0.01,0.05-0.03,0.09-0.06,0.14c0,0.05,0,0.1,0.01,0.15c-5.47,0.05-6.97-1.68-6.99-7.74c-0.02-6.18,1.47-7.77,7.46-7.92
			c0.02,0,0.06,0,0.08-0.01c0.01,0.06,0.02,0.12,0.02,0.17C398.46,291.99,398.45,297.26,394.77,302.36z"/>
		<path d="M321.75,284.31c-5.37,0.14-9.13,4.38-9.14,10.31c-0.01,5.92,3.78,10.25,9.11,10.41c5.54,0.16,9.71-4.28,9.71-10.36
			C331.41,288.46,327.4,284.16,321.75,284.31z M326.37,300.48c-0.99,1.88-2.45,2.98-4.48,2.92c-1.75-0.05-3.15-0.97-4.08-2.65
			c-1.06-1.95-1.02-4-1.01-6.08c0.02-3.88,0.08-8.64,5.01-8.69c5.35-0.07,5.32,4.86,5.32,9.2
			C326.81,296.76,327.32,298.67,326.37,300.48z"/>
		<path d="M419.83,254.49c4.23,0.89,7.46-1.14,9.63-6.21c-2.35,1.73-3.75,3.93-6.4,4.09c-3.68,0.22-5.9-1.43-6.36-5
			c-0.59-4.63,3.1-2.43,5.04-2.87c1.08-0.24,2.27,0.02,3.41,0.02c5.57-0.02,6.33-1.31,3.86-6.25c-1.39-2.78-3.56-3.77-6.55-3.17
			c2.02,1.66,4.38,3.5,3.28,6.36c-1.07,2.8-4.02,1.12-6.11,1.47c-3.42,0.58-3.28-1.68-2.69-3.82c0.38-1.39,1.31-2.65,2-3.97
			c-6.11,0.36-6.55,5.11-6.66,9.37C412.17,249.47,414.5,253.36,419.83,254.49z"/>
		<path d="M248.66,284.32c-4.66,0.17-8.15,3.94-8.42,9.21c-0.24,4.85,0.94,9.28,6.31,10.9c4.94,1.49,8.69-0.14,10.62-5.4
			c-2.29,1.85-4.38,4.02-7.65,3.71c-3.59-0.35-5.01-2.66-5.1-5.76c-0.12-3.74,2.95-1.8,4.62-2.06c1.87-0.3,3.83-0.23,5.73-0.05
			c3.64,0.36,3.63-1.46,2.82-4.12C256.25,286.29,253.21,284.14,248.66,284.32z M248.73,293.48c-1.64-0.6-4.76,1.23-4.31-2.54
			c0.33-2.84,1.92-5.24,5-5.18c2.84,0.05,4.12,2.37,4.21,5.09C253.78,294.96,250.45,292.72,248.73,293.48z"/>
		<path d="M222.47,286.73c-3.57,3.42-3.9,11.4-0.62,15.23c3.24,3.77,7.88,3.86,13.43,0.01c-2.16-1.16-3.26,0.58-4.71,0.73
			c-4.01,0.43-6.34-1.49-6.75-5.2c-0.48-4.62,3.36-1.98,5.23-2.63c0.84-0.29,1.9,0.09,2.83-0.02c1.8-0.22,4.31,0.98,5.25-0.84
			c1.09-2.12-0.36-4.47-1.61-6.32C232.69,283.48,226.27,283.1,222.47,286.73z M228.47,293.52c-1.73-0.78-4.88,1.28-4.73-2.35
			c0.12-2.8,1.66-5.23,4.76-5.35c2.86-0.1,4.31,1.92,4.55,4.69C233.38,294.49,230.23,292.95,228.47,293.52z"/>
		<path d="M243.91,253.44c3.81,1.93,7.52,1.76,11.38-2.37c-2.72,0.58-4.49,1.22-6.28,1.27c-3.53,0.09-5.25-2.33-5.54-5.4
			c-0.38-4.25,3.14-2.03,4.94-2.43c1.64-0.37,3.44-0.25,5.15-0.05c3.44,0.41,3.96-1.24,3.15-4.03c-1.2-4.15-3.93-6.47-8.29-6.53
			c-4.39-0.05-7.22,2.36-8.61,6.31C238.09,245.1,240.02,251.47,243.91,253.44z M248.57,235.45c2.99,0.08,4.28,2.4,4.31,5.05
			c0.03,4.05-3.42,1.61-4.92,2.67c-1.64-0.85-4.56,1.28-4.43-2.07C243.64,238.13,244.93,235.35,248.57,235.45z"/>
		<path d="M292.73,252.48c-3.87,0.38-5.77-1.3-5.19-4.94c0.73-4.59-4.02-11.97,6.21-11.75c-1.76-2.29-5.26,0.55-5.98-2.8
			c-0.47-2.21,0.61-4.7-1.04-7.2c-2.06,5.94-2.48,5.63-4.67,8.54c-1.77,2.35,2.79,4.24,1.61,7.4c-0.75,2-0.2,4.51-0.09,6.79
			C283.89,254.87,286.38,256.1,292.73,252.48z"/>
		<path d="M434.3,300.55c-0.8-4.03-0.55-8.38-0.09-12.51c0.33-2.98,4.18,0.08,5.91-3.1c-9.74,2.67-4.45-5.25-6.93-8.74
			c-1.56,3.82-1.74,8.17-6.46,9.86c3.2,0.2,3.8,1.71,3.64,4.14c-0.21,3.03-0.05,6.09-0.05,9.13c0,2.58,0.19,5.24,3.47,5.6
			c2.83,0.31,5.59-0.09,6.87-4.26C438.03,301.63,435.08,304.49,434.3,300.55z"/>
		<path d="M392.26,253.6c-6.53-3.03-3.73-8.53-2.65-11.91c1.09-3.41-0.96-5.25-1.91-7.05c-0.75-1.44-4.29-0.47-6.99,0.58
			c5.16,2.25,5.82,14.43,1.39,18.38C385.62,253.6,388.94,253.6,392.26,253.6z"/>
		<path d="M450.76,297.85c0.02-2.66,0.07-5.31,0.06-7.97c-0.03-6.47-0.97-6.95-7.17-3.79c4.28,2.19,4.49,14.29,0.06,17.9
			c3.39,0,6.52,0,9.65,0C450.16,302.77,450.73,300.19,450.76,297.85z"/>
		<path d="M475.51,286.36c6.44,0.59,3.21,5.25,3.55,8.2c0.36,3.14,1.23,6.75-3.29,9.58c4.19-0.03,7.08,0.57,9.56-0.28
			c-3.96-5.47-2.09-10.96-0.86-16.41C481.88,285.24,479.38,282.56,475.51,286.36z"/>
		<path d="M484.54,287.53l-0.06-0.15c-0.01,0.03-0.01,0.06-0.02,0.08C484.49,287.49,484.52,287.51,484.54,287.53z"/>
		<path d="M276.67,242.85c-0.02-7.99-1.2-9.07-9.42-8.75c0,0,0,0,0,0c-2.38,0.17-4.43,1.03-5.65,3.16
			c-0.55,0.96-0.95,2.28-0.01,3.17c0.59,0.57,1.74,1.02,2.5,0.86c1.31-0.29,1.62-1.52,1.11-2.7c-0.97-2.25,1.17-2.32,2.14-3.21
			c0,0,0,0,0-0.01c0,0,0,0,0,0c2.13,1.02,5.47,0.08,5.68,4.11c0.21,3.89-3.85,1.4-4.66,3.5c-1.61,0.48-3.3,0.79-4.82,1.47
			c-2.43,1.08-3.93,2.95-3.58,5.77c0.3,2.36,1.83,3.87,4.06,4.13c2.6,0.31,5.63,0.96,6.74-2.71c-2.3,0.69-4.91,1.87-6.44-0.92
			c-1.26-2.27-0.24-4.28,2.14-5.48c0.58-0.29,1.13-0.63,1.68-0.96c0.08-0.06,0.17-0.1,0.25-0.15c1.45,0.63,3.45-1.74,4.38,0.4
			c1.01,2.36-0.18,4.66-1.49,6.74c2.89,0.99,5.4,5.61,9.07,1C276.68,250.93,276.68,250.93,276.67,242.85z"/>
		<path d="M348.89,242.26c-2.07,0.78-4.24,1.37-6.18,2.4c-2.58,1.37-4,3.62-2.92,6.6c1.07,2.96,3.62,3.7,6.48,3.33
			c1.84-0.24,3.79-0.46,4.92-2.3c2.88-0.39,6.05,5.05,8.77-0.39c-6.34-0.46-3.53-5.2-3.6-8.07c-0.24-9.31-1.54-10.65-10.83-9.5
			c0,0,0,0-0.01,0c-2.21,0.72-4.37,1.5-4.86,4.19c-0.28,1.54,0.34,2.77,1.88,2.94c1.31,0.14,3.37-0.59,2.63-2.03
			c-2.08-4.04,1.82-2.98,3.11-4.11c0,0-0.01,0-0.01,0c0,0,0.01,0,0.01,0c1.47,1.46,4.7,1.06,4.24,4.63
			C352.16,242.59,350.2,241.68,348.89,242.26z M351.14,251.01c-0.2-0.13-0.4-0.21-0.63-0.25c-0.01,0.05-0.01,0.1-0.01,0.15
			c0.02,0.13,0.06,0.25,0.09,0.37c-2.43,1.16-5.22,2.53-6.7-0.82c-1.83-4.12,1.8-5.12,4.62-6.32c0.03,0.08,0.07,0.15,0.12,0.23
			c0.03,0.02,0.07,0.03,0.1,0.06c0.07-0.14,0.12-0.3,0.16-0.46C357.12,243.93,350.89,248.5,351.14,251.01z"/>
		<path d="M362.41,253.59c3.88,0.25,7.29,0.89,11.17-0.55c-7.42-2.27-4.54-7.9-3.4-11.27c1.12-3.31-0.46-5.36-1.59-6.9
			c-1.5-2.05-4.33-0.46-7.06,0.26C366.94,237.7,367.47,249.81,362.41,253.59z"/>
		<path d="M339.66,295.86c-0.02-1.9,0.06-3.8,0.06-5.7c-0.02-6.74-0.28-6.89-7.9-3.89c4.09,0.08,4.45,2.19,4.25,4.85
			c-0.17,2.27-0.11,4.56-0.02,6.84c0.25,6.82,4.47,8.79,11.42,4.44C340.42,302.71,339.71,302.03,339.66,295.86z"/>
		<path d="M439.32,242.4c1.5-6.58-0.93-8.94-7.35-7.13c3.18,1.79,3.2,1.79,3.2,11.3c0,2.65,0.93,5.83-2.87,7.23
			c1.68,0,3.37,0.09,5.05-0.02c1.72-0.12,3.62,0.81,5.25-0.72C438.51,251.28,437.82,248.96,439.32,242.4z"/>
		<path d="M423.68,300.51c0.26-0.64-0.06-1.5-0.06-2.26c-0.01-2.66,0.2-5.34-0.03-7.99c-0.35-3.9-2.3-6.09-6.98-5.34
			c1.8,2.57,5.86,4.58,1.27,7.62c-2.51,0.09-4.86,0.89-7.06,1.98c-2.95,1.46-5.29,3.53-3.75,7.17c1.46,3.47,4.58,3.74,7.77,2.96
			c1.64-0.4,3.34-0.93,4.38-2.5c2.13,1.34,4.29,4.33,6.87,1.62C429.49,300.19,422.62,303.1,423.68,300.51z M419.02,300.41
			c-0.29-0.22-0.61-0.3-0.96-0.31c0.01,0.32,0.06,0.64,0.15,0.97c0.01,0.02,0.01,0.05,0.03,0.06c-1.66,1.4-3.56,2.06-5.85,1.22
			c-1.52-0.56-1.68-1.93-1.52-3.29c0.38-3.32,2.84-4.09,5.61-4.51c0.4-0.07,0.77-0.36,1.14-0.62c0.09,0.14,0.17,0.26,0.25,0.4
			c0.05-0.17,0.07-0.38,0.05-0.59C421.95,295.36,419.08,298.12,419.02,300.41z"/>
		<path d="M378.74,297.6c0.24-2.63,0.15-5.31,0-7.95c-0.15-2.55-1.73-4.31-4.11-4.87c-2.39-0.57-5.01-0.89-6.32,2.13l0,0
			c-0.74,0.07-2.06,0.38-2.14,0.19c-1.79-4.44-4.66-2.31-8.06-1.16c6.85,0.89,3.33,5.58,3.78,8.55c0.47,3.18,1.24,6.86-3.54,9.66
			c4.3,0,7.21,0.5,10.27-0.46c-3.66-3.62-3.67-10.73-0.25-16.7c2.52,0.06,5.33-0.65,6.66,2.55c1.37,3.31-0.24,12.43-2.7,14.37
			c3.31,0,6.47,0,9.63,0C379.05,302.6,378.49,300.43,378.74,297.6z"/>
		<path d="M352.56,298.64c0.06-2.67,0.07-5.34,0.08-8.01c0.02-6.57,0.02-6.57-7.35-4.84c2.87,0.64,4.07,2.14,3.67,5.02
			c-0.31,2.25,0.07,4.59-0.23,6.85c-0.95,7.07,0.26,8.11,9.02,5.12C352.65,303.19,352.5,301.01,352.56,298.64z"/>
		<path d="M400.85,253.59c3.49,0,6.64,0,10.06,0c-2.98-2.63-2.99-2.63-3.01-6.51c-0.01-2.27,0.01-4.54,0.02-6.81
			c0.01-6.71,0.01-6.71-7.7-5.12C405.52,237.74,405.7,250.06,400.85,253.59z"/>
		<path d="M213.98,301.58c-2.02,0.02-1.68-2.1-2.18-3.43c-1.15-3.04-0.89-6.78-4.65-8.61c-0.74-0.37,1.26-0.9,1.61-1.68
			c4.01-0.54,5.45-3.33,5.37-6.82c-0.08-3.7-2.48-6.21-5.99-6.64c-6.28-0.78-12.61-0.6-19.14,0.46c2.35,1.24,5.3,1.6,4.49,5.25
			c-1.74,7.81,3.53,16.83-3.53,23.88c3.77,0.23,8.14,0.55,13.59-0.37c-5.65-1.76-7.46-5.73-5.62-11.87
			c1.31-4.38,4.59-1.21,7.04-1.15c1.99,2.77,1.93,6.06,2.3,9.22c0.41,3.53,2.03,5.92,5.91,5.07c3.6-0.81,4.24-3.48,3.32-7.15
			C215.06,299.06,215.86,301.56,213.98,301.58z M206.02,287.67l-0.5-0.2l-0.17,0.2l-0.18,0.2c-2.86-0.96-8.58,2.36-7.31-4.7
			c0.44-2.43-2.22-6.3,2.16-7.06c2.96-0.52,6.7-1.19,8.7,2.37c2.14,3.8,0.43,6.69-2.6,9.11c0,0.03,0.01,0.07,0.03,0.09
			C206.11,287.68,206.07,287.67,206.02,287.67z"/>
		<path d="M466.06,285.47c5.86,5.43,5.16,14.92-1.34,18.31c3.22,2.48,5.39-0.05,7.05-2c2.88-3.4,3.21-7.51,1.54-11.66
			C472.01,286.88,470,284.66,466.06,285.47z"/>
		<path d="M462.85,285.46c-5.56,0.64-7.97,4.25-7.25,10.92c0.58,5.49,3.57,8.09,8.57,7.46
			C458.13,299.46,457.61,292.34,462.85,285.46z"/>
		<path d="M484.54,287.53c0.03-0.06,0.06-0.12,0.09-0.18c-0.05,0.01-0.1,0.02-0.15,0.03C484.48,287.38,484.55,287.53,484.54,287.53z
			"/>
		<path d="M232.06,234.17c-1.99,0.69-2.51,3.37-4.83,3.67c0,0,0,0,0,0c0.58-8.72-4.44-1.58-6.57-2.61
			c4.74,2.21,5.4,13.63,0.92,18.27c3.28,0,6.53,0,9.78,0c-3.21-0.82-3.76-2.93-3.52-5.65c0.2-2.28,0.28-4.56,0.41-6.84
			c1.6-1.07,1.73-5.47,4.27-3.31c1.57,1.34,2.28,2.78,4.23,1.57c1.26-0.79,1.16-2.39,0.36-3.59
			C235.89,233.84,234.04,233.48,232.06,234.17z"/>
		<path d="M376.55,239.91c1.6-0.03,2.36-0.94,2.42-2.87c-0.29-1.79-1.47-3.03-3.68-3.14c-1.43-0.07-2.56,0.5-3.25,1.8
			C374.49,236.1,373.7,239.96,376.55,239.91z"/>
		<path d="M395.99,239.91c1.95-0.1,2.68-1.26,2.36-2.98c-0.4-2.14-1.9-3.08-4.41-3.01c-1,0.18-2.14,0.67-2.7,2.04
			C394.09,235.76,393.16,240.06,395.99,239.91z"/>
		<path d="M414.63,284.38c-3.22,0.18-5.64,1.29-6.8,4.26c-0.56,1.43,0.09,2.57,1.73,2.99c1.66,0.42,3.32-0.67,2.57-1.78
			C409.81,286.4,414.4,286.72,414.63,284.38z"/>
		<path d="M446.5,239.87c1.59-0.21,2.2-1.25,2.37-2.96c-0.91-1.49-1.84-3.13-4.18-2.97c-1.4,0.09-2.55,0.64-3.33,1.84
			C444.55,235.31,443.36,240.3,446.5,239.87z"/>
		<path d="M448.17,274.09c-1.22,0.17-1.82,1.24-1.74,2.5c0.1,1.62,1.1,2.25,2.64,2.18c1.26-0.18,2.22-0.84,2.1-2.14
			C451.02,274.94,449.92,273.85,448.17,274.09z"/>
		<path d="M405.86,228.4c1.53,0,2.35-0.84,2.69-2.29c-0.36-1.32-0.97-2.47-2.56-2.4c-1.57,0.07-2.27,1.12-2.21,2.62
			C403.85,227.6,404.49,228.4,405.86,228.4z"/>
	</g>
	<path class="st43" d="M130.7,259.08c-0.05-1.48-0.09-2.96-0.14-4.45c1.7-1.25,3.61-2.02,5.69-2.36c0.23,1.66,3.35,2.17,1.78,4.58
		c-1.56,2.4-3.94,2.42-6.39,2.38C131.34,259.09,131.03,259.04,130.7,259.08z"/>
	<path class="st44" d="M32.77,280.84c-1.97,0-2.95,1.66-4.37,2.58c-0.54-0.31-0.87-0.77-0.98-1.39c1.14-6.15,3.26-11.96,7.59-16.55
		c2.24-2.38,1.77-6.75,5.85-7.63c1.54,1.6,1.39,3.71,1.72,5.68c-1.43,5.25-5.6,8.66-8.65,12.83
		C32.58,277.61,32.49,279.18,32.77,280.84z"/>
	<path class="st12" d="M33.92,276.36c1.14-5.13,5.51-8.24,7.9-12.59c-0.06-2.03,1.03-1.83,2.35-1.21c-0.36,3.9,0.5,8.05-2.26,11.48
		C39.24,274.81,36.58,275.59,33.92,276.36z"/>
	<path class="st45" d="M31.58,266.02c-0.82-1.13-1.64-2.25-2.46-3.38c-0.61-1.2-0.92-2.39,0.16-3.52
		c-0.01-4.88,0.17-9.76-0.06-14.63c-0.48-10.07,6.88-14.69,13.52-19.88c2.29-1.79,3.28,0.92,4.93,1.33
		c-0.24,5.93-4.28,10.35-6.36,15.56c-3.12,7.82-5.55,15.71-6.01,24.14C34.19,266.92,32.96,267.22,31.58,266.02z"/>
	<path class="st46" d="M34.7,264.9c-2.19-5.44,0.68-10.52,2.08-15.28c2.44-8.29,6.13-16.3,10.9-23.68c1.14,0.01,2.27,0.01,3.41,0.02
		c1.79,5.78-1.56,10.27-4.09,14.78c-1.97,3.5-3.9,6.96-5.06,10.81c-1.59,2.78-2.21,5.94-3.45,8.83
		C37.75,262.09,37.15,264.39,34.7,264.9z"/>
	<path class="st26" d="M29.28,259.12c-0.05,1.17-0.1,2.35-0.16,3.52c-6.88-8.68-5.56-18.04-2.31-27.55
		c3.36-3.17,4.29-9.09,10.41-9.14c-10.48,7.6-10.77,18.59-9.94,29.9C27.38,257.1,28.03,258.39,29.28,259.12z"/>
	<path class="st47" d="M40.73,251.15c0.73-4.15,2.72-7.72,5.08-11.15c2.92-4.24,4.17-9.12,5.28-14.05c0.64-1.5,1.78-2.28,3.43-2.34
		c1.07,0.82,1.31,2.01,1.45,3.24c0.11,1.47,0.05,2.94-0.23,4.4c-1.92,4.9-6.1,8.41-8.22,13.19c-1.62,1.75-2.65,3.9-3.95,5.87
		C42.76,251.06,41.95,251.79,40.73,251.15z"/>
	<path class="st48" d="M54.55,231.68c0.01-1.53,0.02-3.06,0.04-4.59c1.32-3.41,2.98-6.61,5.74-9.12c0.94-0.79,1.88-1.58,3.17-2.67
		c0.18,1.74,0.33,3.24,0.48,4.74c-0.37,0.9-0.74,1.8-1.11,2.7c-2.23,1.64-2.14,4.56-3.67,6.62C58,230.98,57.27,233.21,54.55,231.68z
		"/>
	<path class="st7" d="M60.33,217.97c-1.44,3.34-2.8,6.72-5.74,9.12c-0.02-1.16-0.05-2.32-0.07-3.47
		C54.89,220.14,57.75,219.2,60.33,217.97z"/>
	<path class="st49" d="M83.33,226.02c-0.01,1.12-0.02,2.25-0.02,3.37c-3.54,8.93-3.02,18.98-7.73,27.58
		c0.15-2.84-3.3-5.36,0.66-8.83c1.78-1.56,2.12-6.57,3-10.01c0.47-1.82-2.78-2.75-4.66-4.71c-0.72,6.26-3.05,5.76-6.54,2.09
		c-2.26-2.37-3.74-1.55-6.25,1.05c-4.55,4.72-4.42,12.52-10.98,15.61c-0.76-1.29-0.43-2.59,0.18-3.75c2.5-4.83,4.93-9.67,6.47-14.92
		c0.42-1.43,1.33-2.71,3.07-2.95c4.72-0.97,6.63-4.7,6.47-8.64c-0.17-4.17,2.46-6.38,4.65-8.56c3.78-3.76,6.74-0.55,9.39,2.3
		C84.32,218.55,84.26,222.19,83.33,226.02z"/>
	<path class="st3" d="M60.52,230.55c-3.24,7.21-6.48,14.42-9.72,21.63c-2.21,3.46-4.43,6.92-6.64,10.38
		c-0.78,0.4-1.56,0.8-2.35,1.21c-1.78-1.66-0.72-3.86-1.11-5.78c-1.9-2.52-0.21-4.3,1.27-6.12c2.69-1.85,2.58-5.32,4.44-7.65
		c1.54-4.93,5.36-8.39,8.13-12.53c4.38-0.65,3.9-5,5.73-7.58c0.71-1,0.64-2.88,2.58-1.35C63.32,225.72,60.76,227.79,60.52,230.55z"
		/>
	<path class="st50" d="M83.33,226.02c0.61-3.76-1.5-6.91-2.3-10.36c0.39-0.81,0.78-1.62,1.18-2.43
		C85.59,217.22,85,221.57,83.33,226.02z"/>
	<path class="st51" d="M22.39,289.01c-0.37,0.4-0.75,0.79-1.12,1.19c-5.59-3.72-8.44-8.7-7.7-15.61c0.25-2.36-0.37-4.8-0.39-7.21
		c-0.02-1.94-0.72-4.36,2.35-4.9c0.81,0.33,1.61,0.67,2.42,1.01c-2.56,4.08,0.1,7.86,0.67,11.76
		C18.03,280.34,20.87,284.49,22.39,289.01z"/>
	<path class="st52" d="M20.94,264.98c0.86,0.35,1.72,0.7,2.58,1.05c1.96,1.54,5.28,1.66,5.37,5.14c-0.2,0.74,0.15-0.17-0.04,0.56
		c-0.84,3.15-1.92,6.6-5.27,7.43c-3.9,0.97-4.23-3.51-6.27-5.44c-0.05-1.66-0.41-3.26-0.79-4.87
		C15.59,264.91,17.14,263.63,20.94,264.98z"/>
	<path class="st31" d="M43,252.23c-1.66,1.56-2.33,3.52-2.29,5.75c-4.06,8.09-9.97,15.21-12.71,23.99
		c-2.79-0.18-1.89-2.16-1.57-3.56c0.45-1.93,1.4-3.73,1.95-5.65c1.71-1.61-0.14-3.84,0.97-5.56c0.75-0.4,1.49-0.79,2.24-1.19
		c1.13-0.12,2.5,0.41,3.12-1.12c4-3.72,2.9-9.65,6.03-13.75c0.76-0.38,1.52-0.77,2.28-1.15C43.73,250.74,43.73,251.49,43,252.23z"/>
	<path class="st7" d="M20.94,264.98c-2.62,0.02-4.69,0.37-3.56,3.94c0.5,1.59,0.36,3.39,0.51,5.09c0.3,0.32,0.37,0.61,0.23,0.87
		c-0.14,0.25-0.26,0.38-0.38,0.38c-1.53-2.44-1.68-5.29-2.46-7.95c-0.78-2.65,0.53-3.42,2.67-3.82
		C19.07,263.74,20.45,263.48,20.94,264.98z"/>
	<path class="st7" d="M29.34,267.21c0.75,1.92,2.03,3.84-0.07,5.73c-0.94-0.5-0.5-1.64-1.07-2.31c-0.73-2.37-3.97-2.2-4.68-4.6
		C25.46,266.42,27.4,266.81,29.34,267.21z"/>
	<path class="st53" d="M28.2,270.62c0.87,0.54,1.03,1.39,1.07,2.31c0.18,3.1-3.47,5.66-1.28,9.04c0.13,0.48,0.27,0.97,0.4,1.45
		c-2,1.86-4,3.72-6,5.59c-4.64-3.55-4.96-8.54-4.65-13.75c0.05-0.42,0.1-0.83,0.15-1.25c2.91-0.03,2.88,5.78,6.13,3.67
		C26.07,276.33,26.85,273.04,28.2,270.62z"/>
	<path class="st44" d="M43,252.23c0-0.75,0.01-1.49,0.01-2.24c0.55-2.27,1.13-4.53,3.41-5.79C45.67,247.05,45.5,250.13,43,252.23z"
		/>
</g>
</svg>
