<?xml version="1.0" encoding="utf-8"?>
<!-- Generator: Adobe Illustrator 24.0.1, SVG Export Plug-In . SVG Version: 6.00 Build 0)  -->
<svg version="1.1" id="Camada_1" xmlns="http://www.w3.org/2000/svg" xmlns:xlink="http://www.w3.org/1999/xlink" x="0px" y="0px"
	 viewBox="0 0 500 500" style="enable-background:new 0 0 500 500;" xml:space="preserve">
<g>
	<path d="M141.06,215.54c17.45,10.01,36.29,12.16,55.81,8.67c16.73-2.99,30.86-10.96,42.2-23.74c1.7-1.91,2.4-3.2,0.13-5.4
		c-2.37-2.3-3.27-0.38-4.59,0.85c-7.25,6.76-15.23,12.45-24.63,15.82c-30.52,10.95-64.16,0.34-74.06-36.71
		c-1.43-5.36-1.83-10.87-3.09-16.23c0,0,0-0.01,0-0.01c0-6.25-0.01-12.5-0.01-18.76c0,0,0-0.01,0-0.01
		c1.2-7.2,1.97-14.44,4.06-21.51c8.87-29.94,40.79-45.27,68.63-32.69c14.58,6.58,22.5,18.71,26.76,33.51
		c0.83,2.88,2.17,3.44,4.63,3.12c2.95-0.39,1.37-2.66,1.34-3.88c-0.42-15.36-1.01-30.7-1.56-46.05h-4.99
		c-0.67,0.48-1.44,0.85-1.89,1.57c-2.8,4.43-6.92,5.21-11.55,3.85c-8.95-2.63-17.92-5.07-27.32-5.42h-18.29
		c-0.27,0.88-1.03,0.69-1.68,0.79c-25.48,3.99-44.81,16.81-56.38,40.15c-7.81,15.76-9.11,32.64-6.76,49.82
		C110.9,185.73,120.9,203.96,141.06,215.54z"/>
	<path d="M31.31,392.27c-13.68-5-25.59-0.12-30.81,12.75v8.31c0.75,4.94,2.8,9.03,7.2,11.83c2.52,1.6,5.35,1.59,8.06,2.18
		c0.17,0.04,0.36,0.08,0.54,0.12h9.15c7-2.57,7-2.57,7.22-5.23c-1.15,0.5-2.25,1.04-3.41,1.46c-7.2,2.59-15.26,0.65-19.64-4.69
		c-4.25-5.19-4.78-14.32-1.16-20.22c2.95-4.8,8.56-6.86,15.26-5.99c4.53,0.57,6.97,2.75,7.13,7.38c0,0.05,0.47,0.08,0.92,0.17
		c0.37-1.85,0.64-3.72,1.13-5.53C33.32,393.24,32.8,392.81,31.31,392.27z"/>
	<path d="M50.56,397.84c-8.2,0.29-13.73,5.12-14.72,12.87c-1.04,8.1,2.5,13.38,11.23,16.76h6.66c0.46-1.4,1.86-0.88,2.78-1.28
		c7.06-3.08,10.66-10.16,8.98-18.04C64.04,401.44,58.42,397.56,50.56,397.84z M50.24,425.28c-5.94-0.48-9.53-5.07-10.17-13.01
		c-0.58-7.14,2.84-11.82,9.05-12.43c6.78-0.66,11.4,3.3,12.2,10.47c0.09,0.82,0.13,1.65,0.16,1.93
		C61.51,421.27,57.39,425.86,50.24,425.28z"/>
	<path d="M319.4,402.25c-0.15,6-0.05,12-0.05,19.05c-5.74-7.01-10.91-13.26-16-19.56c-3.06-3.79-4.85-4.34-11.03-2.35
		c4.27-0.06,4.66,1.97,4.58,4.61c-0.15,5.11-0.06,10.23-0.1,15.35c-0.02,2.83,0.67,6.05-3.7,6.89c3.27,0.35,6.22,0.86,9.46-0.12
		c-1.35-1.38-3.71-0.56-3.64-3.17c0.18-6.41,0.06-12.82,0.06-20.19c6.12,7.49,11.63,14.17,17.04,20.92c1.31,1.63,2.73,3,4.67,3.79
		c0.28,0,0.55,0,0.83,0c-0.02-7.61-0.02-15.21-0.06-22.82c-0.01-2.57-0.46-5.32,3.17-6.08c-2.84,0-5.68,0-9.84,0
		C317.31,399.86,319.46,399.76,319.4,402.25z"/>
	<path d="M497.76,421.45c-0.16,2.51-1.89,2.97-3.98,3.21c-8.3,0.96-9.18,0.19-8.89-8.11c0.02-0.55,0.08-1.11,0.07-1.66
		c-0.01-1.12,0.42-1.64,1.63-1.91c3.96-0.88,7.09,0.34,8.74,3.64c0.88-3.57,0.75-6.84-0.46-9.13c-0.48,1.77-0.5,3.39-3.09,3.58
		c-6.72,0.48-6.8,0.59-6.57-6.3c0.03-0.97,0.02-1.94,0.02-2.9c0-0.68-0.04-1.35,0.72-1.76c3.05-1.63,10.25,0.88,11.75,4.12
		c1.6-4.56,1.52-5.86-0.51-5.9c-6.65-0.14-13.3-0.05-19.95-0.05c3.83,2.17,3.85,2.17,3.87,6.79c0.02,4.98-0.09,9.96,0.04,14.93
		c0.07,2.82-0.09,5.31-3.41,6.64c7.25,0,14.49,0,21.74,0c0-2.22,0-4.43,0-6.65C498.08,419.48,497.83,420.36,497.76,421.45z"/>
	<path d="M252.88,80.16c12.3,1.72,15.27,5.12,15.34,17.65v1.25c0,33.23,0.01,66.46-0.02,99.69c0,2.35-0.31,4.69-0.44,7.04
		c-0.26,4.62-2.31,8.14-6.39,10.41c0,0,0,0,0,0c-3.25,0.59-6.49,1.34-9.77,1.71c-1.76,0.2-2.38,0.74-2.39,2.51
		c-0.01,1.83,0.94,1.97,2.35,1.97c18.98-0.02,37.96-0.02,56.95-0.01c1.32,0,2.46,0.12,2.41-1.84c-0.04-1.62-0.23-2.69-2.21-2.57
		c-1.1,0.07-2.22-0.06-3.31-0.23c-11.79-1.89-13.5-4.97-14.58-14.7c-0.04-15.77-0.09-31.54-0.13-47.31c0,0,0-0.01,0-0.01
		c1.95-2.25,4.65-0.96,6.96-1.46c3.93-0.87,6.43,0.67,8.91,3.95c10.24,13.56,20.62,27.03,31.37,40.18
		c14.65,17.89,31.32,33.58,52.51,43.62c20.32,9.63,41.14,11.97,62.48,3.26c0,0,0,0,0,0c8.78-3.31,16.43-8.41,23.26-14.8
		c2.64-2.03,4.98-4.32,6.33-7.51c-2.4,2.23-4.79,4.45-7.19,6.68c0,0,0,0,0,0c0,0,0,0,0,0c-12.51,9.85-26.65,13.39-42.34,10.99
		c0,0,0,0,0,0c0,0,0,0,0,0c-18.29-3.51-33.73-12.72-48.11-24.03c-10.82-8.51-20.31-18.3-28.82-29.15
		c-9.37-11.95-19.15-23.57-28.98-35.6c5.62-1.46,10.87-2.5,15.87-4.41c15.73-6.01,24.02-17.19,24.18-32.67
		c0.17-15.84-7.86-27.5-23.35-33.77c-7.75-3.14-15.89-4.81-24.22-5.12c-22.15-0.84-44.33-0.21-66.49-0.32
		c-1.5-0.01-3.78-1.09-3.89,2.1C249.1,80.71,251.29,79.93,252.88,80.16z M299,84.09c9.85-0.54,19.63-0.35,28.78,4.15
		c8.63,4.25,13.54,11.15,14.5,20.67c2.04,20.42-7.89,32.72-29,35.8c-6.14,0.9-12.37,1.15-18.57,1.59c-1.32,0.1-2.79,0.48-3.95-0.65
		c-0.01-17.99-0.02-35.98-0.04-53.98C291.84,85.54,292.91,84.43,299,84.09z"/>
	<path d="M37.18,256.28c12-2.18,24-4.36,36-6.54c6.32-0.55,12.64-1.23,18.97-1.64c38.07-2.48,75.69,0.83,113,8.54
		c16.24,3.36,32.15,7.99,48.11,12.39c0,0,0,0,0,0c15.92,5.1,32.12,9.11,48.46,12.54c35.23,7.39,70.69,12.21,106.79,7.92
		c15.43-1.84,30.51-5.12,44.47-12.37c9.06-3.72,16.86-9.35,24.02-15.93l0,0c2.13-1.38,3.72-3.25,4.55-5.88
		c-1.78,1.7-3.56,3.4-5.35,5.11l0,0c0,0,0,0,0,0c-8.53,6.98-18.45,11.27-28.73,14.85c0,0,0,0,0,0c0,0,0,0,0,0
		c-25.37,6.69-50.99,5.87-76.64,2.27c-29.07-4.08-57.45-11.29-85.59-19.5c-30.41-8.87-61.18-16.11-92.66-19.93
		c-34.78-4.22-69.57-4.9-104.32,0.6c-18.73,2.97-37.1,7.32-54.67,14.63c-7.73,2.51-14.82,6.42-21.86,10.66
		C20.22,261.42,28.7,258.85,37.18,256.28C37.18,256.28,37.18,256.28,37.18,256.28z"/>
	<path d="M400.72,218.06c-1.9,0.1-3.61-0.07-3.43,2.75c0.18,2.94,2.25,1.86,3.64,1.86c19.53,0.05,39.06,0.05,58.59-0.01
		c1.64-0.01,4.14,1.16,4.11-2.3c-0.03-3.12-2.3-2.18-3.86-2.25c-13.78-0.61-17.54-4.37-18-18.17c-0.01-0.41-0.01-0.83-0.01-1.25
		c0-33.09-0.12-66.17,0.07-99.26c0.07-12.68,1.52-17.14,14.59-19.33c0.97-0.02,1.95,0.06,2.9-0.08c1.5-0.22,3.68,1,3.67-2.26
		c-0.01-3.46-2.38-2.01-3.73-2.02c-13.3-0.1-26.6-0.06-39.89-0.06c-6.1,0-12.19-0.07-18.28,0.02c-1.51,0.02-3.82-1.05-3.77,2.18
		c0.04,2.83,2.02,2.01,3.51,2.15c0.96,0.09,1.93,0.04,2.9,0.06l0,0c0.38,0.16,0.74,0.41,1.14,0.47c11.4,1.98,13.89,4.6,13.93,16.05
		c0.12,34.19,0.17,68.39,0.05,102.58C418.78,214.3,415.73,217.28,400.72,218.06z"/>
	<path d="M45.45,216.99c-3.09,0.81-6.26,1.21-9.46,1.08c-1.99-0.08-2.7,0.67-2.65,2.64c0.05,2.11,1.36,2.03,2.81,2.02
		c3.32-0.03,6.65-0.01,9.97-0.01c16.76-0.01,33.51,0,50.27-0.06c1.07,0,2.74,0.76,3.01-1.17c0.15-1.02,0.61-2.48-0.57-3.02
		c-1.05-0.48-2.41-0.36-3.64-0.41c-13.19-0.5-17.19-4.53-17.49-17.67c-0.01-0.42-0.01-0.83-0.01-1.25
		c0-33.36-0.05-66.71,0.01-100.07c0.02-12.74,2.3-16.99,14.49-18.94c1.24-0.04,2.49-0.13,3.73-0.1c1.97,0.05,3.69-0.08,3.51-2.76
		c-0.18-2.68-2.23-1.53-3.44-1.54c-9.55-0.09-19.09-0.05-28.64-0.05c-10.52,0-21.03,0.02-31.55-0.02c-1.38,0-2.44,0.01-2.46,1.84
		c-0.01,1.62,0.28,2.66,2.25,2.54c1.51-0.09,3.03,0.08,4.54,0.13c0,0,0,0,0,0c0,0,0,0,0,0c0.52,0.18,1.02,0.43,1.55,0.52
		c9.73,1.54,12.48,4.61,12.91,14.44c0.07,1.52,0.07,3.04,0.07,4.57c0,31,0.01,62.01-0.01,93.01c0,4.15,0.03,8.31-0.17,12.45
		C54.18,211.73,51.31,215.46,45.45,216.99z"/>
	<path d="M178.71,408.8c3.1-0.71,5.36-1.71,7.15-3.54c4.44-4.55,2.94-12.21-2.9-13.3c-7.43-1.39-14.96,0.03-22.85,0.17
		c6.76,0.69,5,5.5,5.06,9.26c0.09,5.95-0.17,11.92,0.06,17.86c0.14,3.56-0.27,6.23-4.61,6.3c-0.06,0-0.1,0.47-0.18,0.83
		c4.86,0,9.69,0,14.52,0c-1.72-1.86-5-0.62-4.83-4.74c0.34-8.29,0.1-16.61,0.14-24.92c0-1.02-0.36-2.34,1.13-2.77
		c3.17-0.92,6.33-1.08,9.17,0.87c2.67,1.84,2.76,4.6,2.12,7.45c-0.75,3.3-3.2,4.69-6.26,5.2c-1.39,0.23-2.83,0.2-4.55,0.31
		c3.95,5.36,7.57,10.22,11.12,15.13c3.08,4.26,4.4,4.7,9.6,3.12C187.17,421.15,183.53,414.77,178.71,408.8z"/>
	<path d="M193.67,341.9c-0.8-3.25-3.2-4.34-6.2-4.38c-5.34-0.07-10.68-0.02-16.02-0.02c4,0.83,3.89,3.66,3.81,6.67
		c-0.13,4.83-0.06,9.67-0.04,14.51c0.01,2.88,0.65,6.07-3.68,6.64c3.76,0,7.52,0,11.28,0c0.41-0.44,0.81-0.88,1.22-1.32
		c-5.41,1.29-4.77-1.72-4.77-4.18c-0.02-5.8,0.01-11.61,0.07-17.41c0.01-1.02-0.55-2.55,0.8-2.91c2.55-0.67,5.23-0.94,7.59,0.69
		c1.97,1.36,2.16,3.41,1.71,5.57c-0.56,2.63-2.4,3.92-4.88,4.38c-1.07,0.2-2.2,0.14-4.1,0.24c3.23,4.33,6.38,7.97,8.85,12.02
		c2.14,3.51,4.82,3.63,8.4,2.98c-4.83-4.11-7.57-9.34-11.39-13.72c1.7-0.87,3.13-1.41,4.34-2.25
		C193.25,347.6,194.46,345.12,193.67,341.9z"/>
	<path d="M87.59,337.75c3.89,2,3.92,2,3.9,6.44c-0.02,4.98-0.15,9.97-0.15,14.95c0,2.64,0.3,5.35-3.2,6.34c2.88,0,5.76,0,9.48,0
		c-1.67-1.71-4.04-0.62-4.03-3.04c0.03-6.53,0.01-13.06,0.01-20.32c2.04,2.44,3.55,4.2,5.02,5.99c4.39,5.34,8.79,10.69,13.15,16.06
		c0.92,1.13,1.97,2.25,3.45,1.79c1.63-0.52,0.74-2.16,0.75-3.24c0.08-6.23,0.08-12.47-0.04-18.7c-0.05-2.74-0.05-5.26,4.65-6.17
		c-4.31,0-7.17,0-10.72,0c1.75,1.2,3.81,0.71,3.79,2.94c-0.06,6.12-0.02,12.24-0.02,19.4c-5.53-6.79-10.8-12.49-15.12-18.82
		C95.57,337.01,92.08,337.27,87.59,337.75z"/>
	<path d="M82.65,412.72c1.88-0.93,3.37-1.42,4.56-2.31c2.1-1.56,3.35-3.73,3.01-6.44c-0.29-2.34-1.41-4.23-3.86-4.87
		c-6.15-1.59-12.3-0.09-18.93-0.07c4.93,0.14,4.04,3.49,4.09,6.06c0.1,5.12,0.03,10.25,0.01,15.37c-0.01,2.57,0.19,5.31-3.49,5.92
		c3.74,0,7.48,0,11.23,0c-4.03-0.6-3.94-3.46-3.9-6.41c0.08-5.4,0.02-10.8,0.1-16.2c0.02-1.15-0.47-2.69,1.09-3.26
		c2.45-0.88,4.93-0.75,7.2,0.58c1.87,1.09,2.52,2.91,2.22,4.99c-0.36,2.55-1.7,4.36-4.35,4.91c-1.46,0.3-2.93,0.54-4.6,0.84
		c2.85,3.83,5.87,7.42,8.35,11.35c2.08,3.29,4.6,4.19,8.4,3.04C89.23,422.24,86.29,417.27,82.65,412.72z"/>
	<path d="M315.16,336.77c-9.15-0.07-15.32,5.8-15.37,14.67c-0.05,9.21,5.15,14.62,14.08,14.66c9.29,0.04,15.89-6.24,15.99-15.22
		C329.97,342.13,324.45,336.85,315.16,336.77z M316.51,364.26c-6.04,0.6-10.56-3.12-12.16-10c-2.2-9.43,3.14-16.75,11.44-15.66
		c6.13,0.81,9.8,5.79,9.79,13.28C325.56,359.01,322.13,363.7,316.51,364.26z"/>
	<path d="M331.75,365c3.16,0.79,6.06,0.84,10.18,0.08c-2.75-1.01-4.77-0.98-4.66-3.78c0.26-6.17,0.08-12.37,0.08-19.49
		c1.98,2.41,3.3,4.01,4.62,5.61c4.47,5.45,8.93,10.91,13.42,16.35c0.96,1.16,2.03,2.74,3.68,2.15c1.67-0.6,0.7-2.42,0.72-3.66
		c0.08-6.36,0.06-12.73-0.02-19.09c-0.03-2.46,0.03-4.69,3.13-5.42c-2.76,0-5.51,0-8.54,0c3.66,2.09,5.19,14.75,2.72,21.84
		c-5.1-6.23-10.46-12.04-14.91-18.49c-2.98-4.31-6.37-3.66-10.43-2.96c3.13,0.39,3.81,2.17,3.72,4.94
		c-0.19,5.53-0.1,11.07-0.06,16.6C335.44,362.23,335.35,364.62,331.75,365z"/>
	<path d="M225.9,365.98c1.7-0.48,0.79-2.11,0.8-3.19c0.07-6.36,0.1-12.72-0.05-19.08c-0.06-2.7,0.11-5.01,3.15-6
		c-2.81,0-5.61,0-8.42,0c3.8,0.44,3.26,3.36,3.3,5.75c0.09,5.2,0.03,10.41,0.03,17c-5.65-6.91-10.95-12.59-15.26-18.94
		c-3.01-4.43-6.53-4.22-11.04-3.35c3.82,0.1,3.98,2.43,3.92,5.15c-0.12,5.25-0.07,10.51-0.04,15.76c0.01,2.65,0.27,5.38-3.23,6.32
		c2.83,0,5.67,0,8.85,0c-1.08-1.71-3.68-0.67-3.64-3.15c0.1-6.52,0.03-13.05,0.03-20.3c4.52,5.46,8.48,10.22,12.42,15
		c2.02,2.45,4.01,4.93,6.02,7.39C223.57,365.34,224.61,366.34,225.9,365.98z"/>
	<path d="M146.8,365.31c5.5,0.48,10.66,0.49,15.82,0.48c6.49-0.01,6.84-0.46,5.43-7.1c-1.95,1.07-0.31,4.37-3.53,4.89
		c-8.78,1.41-10.4,0.1-10.22-8.71c0.05-2.43,0.81-3.01,3.12-2.97c3.22,0.06,6.61-0.66,7.09,4.5c0.94-5.38,0.87-6.85-0.12-9.39
		c-1.22,2.93-4.95,4.75-8.63,2.95c-3.16-1.54-0.71-5.34-1.27-8.07c-0.31-1.49,0.18-2.45,2.15-2.66c6.85-0.7,8.86,0.03,10.17,4.71
		c1.43-1.7,0.55-3.35,1.14-4.68c0.78-1.75-0.43-1.83-1.58-1.83c-6.46-0.02-12.93-0.01-19.39-0.01c3.63,1.13,3.43,3.89,3.4,6.64
		c-0.06,5.12-0.05,10.25,0,15.37C150.41,362.02,150.69,364.66,146.8,365.31z"/>
	<path d="M384.35,365.43h10.89c-2.89-1.33-3.58-4.06-4.62-6.46c-2.84-6.58-5.59-13.19-8.42-19.78c-0.36-0.83-0.49-2.12-1.67-2.1
		c-1.18,0.02-1.2,1.36-1.56,2.15c-2.03,4.53-3.73,9.23-5.99,13.63c-2.2,4.29-2.74,9.61-7.55,12.5c3.18-0.06,6.22,0.84,9.38-0.18
		c-0.97-1.61-4.45-0.41-3.19-3.07c1.02-2.17,0.41-5.94,4.48-5.92c2.5,0.01,5.01-0.21,7.48,0.05c3.7,0.4,3.19,4.1,4.13,6.35
		C388.76,365.04,385.44,363.44,384.35,365.43z M374.77,354.27c1.51-3.63,2.97-7.1,4.59-10.99c2.41,3.34,3.05,7.11,5.22,10.99H374.77
		z"/>
	<path d="M239.2,359.89c0.94-3.33,2.99-4.18,6.13-3.74c1.36,0.19,2.76,0.11,4.13,0.01c4.65-0.35,4.02,3.89,5.11,6.26
		c1.26,2.74-2.58,0.88-3.12,2.95h10.62c-2.58-0.69-3.04-3.05-3.89-5c-2.9-6.69-5.72-13.41-8.65-20.07
		c-0.52-1.18-0.59-3.15-2.17-3.14c-1.28,0.02-1.3,1.88-1.78,2.95c-2.72,6.01-5.41,12.03-8.06,18.07c-1.2,2.73-1.93,5.75-5.19,7.19
		c3.18-0.02,6.19,0.78,10.16-0.71C236.7,365.02,238.48,362.42,239.2,359.89z M246.44,342.91c0.74,1.61,1.15,2.45,1.51,3.32
		c3.64,8.59,3.64,8.59-6.26,7.94C243.21,350.57,244.69,347.06,246.44,342.91z"/>
	<path d="M405.43,420.55c-2.85-6.59-5.62-13.22-8.54-19.78c-0.45-1.01-0.4-2.8-2.03-2.74c-1.34,0.05-1.25,1.67-1.68,2.6
		c-1.61,3.5-2.85,7.2-4.63,10.59c-2.7,5.14-3.43,11.42-9.5,15.67c3.84-0.62,6.86,0.37,10.21-1.09c-4.33-0.36-3.53-2.35-2.55-5.01
		c1.03-2.81,2.55-3.89,5.47-3.5c1.63,0.22,3.33,0.12,4.98,0.01c4.43-0.33,3.89,3.64,4.88,5.95c1.25,2.87-2.52,1.01-3.17,3.24
		c3.73,0.25,7.25,0.39,11.09-0.57C406.71,425.34,406.37,422.71,405.43,420.55z M392.3,407.68c0.52-1.2,0.63-2.71,2.05-3.44
		c1.45,3.53,2.89,7.05,4.47,10.91C388.55,416.29,388.51,416.28,392.3,407.68z"/>
	<path d="M239.69,421.32c-1.09,3.07-9.9,5.25-12.29,3c-0.34-0.32-0.52-0.96-0.53-1.46c-0.05-2.63-0.02-5.26-0.03-7.88
		c0-0.92,0.28-1.47,1.29-1.77c3.55-1.04,7.54,0.39,9.3,3.86c0-3.33,0-6.17,0-9.01c-1.59,4.89-5.64,3.38-8.69,3.1
		c-3.61-0.34-1.29-3.45-1.65-5.3c-0.21-1.07-0.05-2.21-0.02-3.31c0.03-0.99,0.19-1.83,1.36-2.27c4.15-1.57,9.62,0.61,11.32,4.95
		c0.35-1.93,0.65-3.5,0.92-5.08c0.15-0.84,0.25-1.71-1.02-1.71c-6.78-0.01-13.56,0-20.35,0c-0.18,0.34-0.37,0.68-0.55,1.03
		c4.75,0.21,4.35,3.37,4.35,6.28c0.01,4.84,0.04,9.68,0,14.52c-0.02,2.54,0.21,5.3-3.32,6.43c5.44,0,10.89-0.01,16.33,0
		c5.1,0.01,6.18-1.64,4.25-6.96C240.09,420.39,239.86,420.84,239.69,421.32z"/>
	<path d="M214.98,420.63c-0.41,2.82-1.81,4.44-4.86,4.27c-2.48-0.14-4.97-0.18-7.45-0.4c-0.29-0.02-0.7-0.85-0.72-1.32
		c-0.07-2.77-0.04-5.53-0.05-8.3c0-0.97,0.41-1.71,1.43-1.6c3.27,0.37,7.62-2.08,9.07,3.32c0-2.84,0-5.68,0-8.77
		c-1.27,0.94-0.64,2.58-1.85,2.98c-2.55,0.84-5.36,1.1-7.73,0.13c-1.89-0.78-0.68-3.2-0.75-4.89c-0.05-1.24,0.04-2.49,0.07-3.73
		c0.03-1.04,0.33-1.74,1.52-2.09c4.4-1.3,9.13,0.58,11.26,4.89c0.15-1.11,0.11-1.96,0.38-2.71c1.19-3.29,0.01-4.36-3.34-4.08
		c-3.03,0.25-6.09-0.01-9.13,0.15c-2.85,0.15-5.8-0.64-8.83,0.86c4.25,0.07,4.17,2.97,4.2,5.69c0.05,5.12,0.03,10.24,0.01,15.36
		c-0.01,2.57-0.13,5.12-3.62,5.93c5.5,0.35,10.71,0.33,15.92,0.36c6.14,0.03,6.14,0.05,5.33-6.65
		C215.29,419.83,215.04,420.28,214.98,420.63z"/>
	<path d="M286.55,418.03c-0.04-5.81-0.04-11.61-0.01-17.42c0.02-3.58-1.38-8.01,4.59-8.64c-4.77,0-9.53,0-14.3,0
		c5.98,0.18,4.72,4.51,4.74,7.95c0.04,5.67,0.07,11.34-0.02,17.01c-0.06,3.77,1.65,8.59-4.75,9.34c4.81,0,9.63,0,14.44,0
		C285.28,425.89,286.58,421.54,286.55,418.03z"/>
	<path d="M120.84,421.83c-2.96-6.98-5.94-13.95-9.02-20.88c-0.39-0.89-0.3-2.42-1.66-2.53c-1.75-0.13-1.65,1.65-2.1,2.65
		c-2.9,6.39-5.72,12.81-8.48,19.27c-1.05,2.45-2,4.9-5.01,5.88c3.19,0.37,6.18,0.75,9.7-0.34c-4.67-0.47-3.22-2.71-2.45-5.15
		c0.87-2.73,2.3-3.74,5.09-3.32c1.49,0.22,3.07,0.22,4.56-0.01c4.65-0.76,4.28,3.28,5.46,5.69c1.55,3.17-2.8,1.11-2.86,3.29h10.25
		C122.41,425.24,121.59,423.61,120.84,421.83z M107.52,407.35c0.42-1,0.9-1.98,1.52-3.37c1.64,3.98,3.13,7.58,4.77,11.56
		C103.92,415.84,103.92,415.84,107.52,407.35z"/>
	<path d="M85.28,330.68c-4.72,0-9.44,0-14.16,0c-0.43,0.41-0.86,0.82-1.3,1.24c7.38-0.98,5.86,3.6,5.97,6.9
		c0.19,5.39,0.18,10.8,0,16.19c-0.13,3.92,1.84,8.96-4.52,10.3c4.71,0,9.41,0,14.12,0c-5.02-0.68-4.76-4.3-4.76-7.75
		c0-5.4-0.25-10.81,0.09-16.19C80.97,337.43,78.56,332.02,85.28,330.68z"/>
	<path d="M259.25,398.37c-4.42,0.01-8.84,0.02-13.26,0.08c-0.69,0.01-1.78-0.46-1.79,0.94c3.51,1.16,3.56,1.16,3.6,5.01
		c0.05,4.42,0.08,8.84,0,13.26c-0.06,3.32,1.44,7.32-4.55,8.67c4.84,0,8.55,0,12.27,0c-6.5-1.61-3.03-6.73-3.75-10.19
		c-0.2-0.98-0.73-2.83,1.31-2.81c3.45,0.03,7.81-1.73,8.72,4.36c0.46-3.53,0.81-6.62,0.03-10.42c-1.76,3.84-5.21,5.7-8.66,4.04
		c-3.32-1.59-0.84-5.32-1.38-8.05c-0.43-2.14,0.72-2.85,2.79-3.02c5.48-0.45,7.37,0.4,8.67,4.93
		C265.23,398.37,265.23,398.36,259.25,398.37z"/>
	<path d="M468.88,404.6c-1.98,5.37-4.11,10.68-6.45,16.73c-2.46-6.22-4.58-11.73-6.82-17.19c-1.05-2.56-1.74-4.82,2.05-5.6
		c-3.45,0-6.89,0-10.34,0c2.5,1.28,3.21,3.54,4.09,5.8c2.63,6.8,5.43,13.53,8.12,20.31c0.41,1.03,0.54,2.24,2.03,2.17
		c1.32-0.06,1.26-1.25,1.6-2.1c2.72-6.77,5.4-13.54,8.16-20.29c0.88-2.16,1.47-4.58,3.85-5.81c-2.83,0-5.66,0-9.29,0
		C470.3,400.46,470.39,400.49,468.88,404.6z"/>
	<path d="M360.16,398.25c-4.8,0.38-9.66,0.12-14.49,0.09c-5.48-0.04-6.28,1.33-3.6,6.94c0.2-0.95,0.37-1.59,0.46-2.23
		c0.6-4.12,3.86-2.62,6.19-2.83c2.97-0.27,1.86,2.15,1.9,3.51c0.13,4.55,0.13,9.12,0.03,13.67c-0.08,3.46,1.47,7.69-3.73,8.99
		c3.73,0,7.45,0,11.18,0c-4.57-0.38-3.33-3.79-3.4-6.33c-0.13-5.11-0.17-10.22-0.13-15.33c0.04-4.8,0.42-4.7,5.22-4.52
		c3.68,0.14,1.93,3.35,3.5,4.84c1.07-0.9,0.63-1.78,0.8-2.54C364.78,399.24,363.8,397.96,360.16,398.25z"/>
	<path d="M137.42,339.49c1.91,0.46,5.03-1.77,5.48,2.3c0.09,0.8-0.25,2.04,1.42,2.09c0.09-0.82,0.1-1.65,0.29-2.44
		c0.82-3.34-0.51-4.16-3.77-3.95c-4.82,0.31-9.67,0.12-14.51,0.06c-5.19-0.06-6.04,1.34-3.59,6.39c0.24-0.61,0.59-1.09,0.61-1.59
		c0.2-4.58,3.68-2.55,5.87-2.84c3-0.39,1.93,2.15,1.96,3.45c0.12,5.38-0.06,10.77,0,16.16c0.03,2.82,0.4,5.68-3.56,6.27
		c3.78,0,7.56,0,11.34,0c-3.74-0.68-3.88-3.19-3.81-6.11c0.13-5.66,0.03-11.33,0.04-16.99
		C135.17,340.75,135.03,338.91,137.42,339.49z"/>
	<path d="M408.59,337.73c-3.74,0-7.47,0-11.21,0c3.21,0.62,3.44,2.8,3.37,5.32c-0.21,7.54,1.46,15.2-1.73,22.74
		c5.07,0,10.05,0,15.03,0c5.16,0,6.54-2.06,4.34-8.7c-0.04,7.42-4.49,6.5-8.38,6.56c-0.69,0.01-1.39-0.09-2.08-0.01
		c-2.44,0.29-3.35-0.47-3.23-3.17c0.26-5.53,0.09-11.07,0.02-16.61C404.7,340.99,404.45,338.09,408.59,337.73z"/>
	<path d="M138.54,424.91c-0.55,0.02-1.11-0.06-1.66,0.01c-1.97,0.24-2.64-0.58-2.6-2.56c0.12-4.83-0.1-9.67,0.08-14.49
		c0.12-3.34-1.82-7.62,3.43-9.07c-3.79,0-7.58,0-12.21,0c4.64,2.02,4.64,2.02,4.65,6.84c0,4.69-0.04,9.39,0.02,14.08
		c0.03,2.45,0.26,4.9-2.79,6.96c6.86,0,12.78,0.02,18.71-0.03c0.84-0.01,2.26,0.46,2.26-1c0-2.07,1.06-4.13-0.17-6.82
		C147.74,425.98,142.75,424.75,138.54,424.91z"/>
	<path d="M429.81,398.5c-6.3-0.66-12.72-0.12-19.09-0.21c-1.63-0.02-2.29,0.35-1.98,2.07c0.27,1.48-0.37,3.11,0.4,4.59
		c1.18-0.42,1.16-1.21,1.19-1.82c0.23-4.52,3.74-2.56,5.93-2.92c2.9-0.48,2.07,2,2.1,3.37c0.11,5.39,0.03,10.79,0.01,16.19
		c-0.01,2.78,0.72,5.98-3.55,6.58c3.74,0,7.48,0,11.22,0c-4.19-0.59-3.94-3.52-3.88-6.51c0.1-4.98,0.02-9.97,0.03-14.95
		c0.01-5.1,0.35-5.1,5.42-4.65c3.4,0.31,2.11,3.26,3.64,4.65C430.65,402.69,434.93,399.04,429.81,398.5z"/>
	<path d="M266.9,365.44c3.78,0,7.57,0,11.35,0c-3.91-0.88-3.73-3.81-3.73-6.64c0-4.84-0.03-9.68,0-14.52
		c0.03-5.19,0.27-5.07,5.4-4.9c3.69,0.12,1.62,3.58,3.94,5.07c0.11-1.26,0.12-2.05,0.26-2.82c0.64-3.38-0.51-4.45-4.08-4.15
		c-4.81,0.41-9.67,0.13-14.52,0.08c-5.21-0.05-6.03,1.45-3.4,6.66c0.19-0.64,0.46-1.15,0.49-1.67c0.28-4.61,3.79-2.92,6.18-3.03
		c3.22-0.15,1.85,2.54,1.9,3.95c0.18,4.97,0.03,9.95,0.05,14.93C270.77,361.42,271.43,364.77,266.9,365.44z"/>
	<path d="M441.74,420.68c0.03-4.7-0.03-9.4,0.03-14.1c0.04-3.14-1.16-6.87,3.45-8.19c-3.71,0-7.41,0-11.12,0
		c3.87,0.82,3.76,3.6,3.72,6.44c-0.06,4.28,0.17,8.58-0.03,12.85c-0.16,3.29,1.63,7.6-3.71,8.56c3.75,0,7.5,0,11.26,0
		C441.68,425.78,441.73,423.25,441.74,420.68z"/>
	<path d="M297.53,337.69c-3.77,0-7.55,0-11.32,0c4.01,0.69,3.83,3.51,3.74,6.52c-0.15,4.83-0.11,9.67-0.02,14.5
		c0.06,2.95,0.52,5.99-3.65,6.55c3.82,0,7.65,0,11.47,0c-3.81-0.25-3.81-2.74-3.78-5.42c0.07-5.52,0.08-11.05,0.02-16.57
		C293.97,340.64,293.86,338.11,297.53,337.69z"/>
	<path d="M373.96,419.14c0.01-4.56-0.02-9.13,0.01-13.69c0.02-2.91-0.84-6.35,3.77-6.94c-3.73,0-7.46,0-11.19,0
		c3.21,0.75,3.41,2.88,3.37,5.42c-0.1,5.39-0.05,10.78-0.01,16.16c0.02,2.68,0.51,5.56-3.39,6.29c3.76,0,7.52,0,11.28,0
		C373.08,425.67,373.96,422.17,373.96,419.14z"/>
	<path d="M335.03,419.75c0.13-4.55,0.01-9.1,0.04-13.65c0.02-3.1-0.94-6.71,3.71-7.59c-3.75,0-7.5,0-11.69,0
		c3.9,2.02,4,2.02,4.11,6.61c0.11,4.68,0.03,9.37-0.04,14.06c-0.04,2.93,0.85,6.4-3.97,7.05c4.13,0.47,7.89,0.69,11.92-0.23
		C334.73,425.59,334.95,422.73,335.03,419.75z"/>
	<path d="M483.09,288.91c-2.3,2.12-4.6,4.25-6.91,6.37c0,0,0,0,0,0c-3.57,3.27-8,5.28-11.84,8.16c0,0,0,0,0,0
		c-4.22,1.72-8.37,3.65-12.67,5.12c-24.48,8.34-49.6,7.62-74.77,4.68c-27.53-3.22-54.45-9.62-81.03-17.27
		c-38.46-11.08-77.16-20.79-117.19-24.36c-34.39-3.07-68.58-2.57-102.52,4.17c-16.28,3.23-32.3,7.49-47.41,14.63
		c-5.28,1.49-10,4.22-14.84,6.69c-2.28,0.82-4.44,1.85-6.1,3.94c2.57-1.03,5.15-2.06,7.72-3.1c0,0,0,0,0,0
		c4.41-1.43,8.81-2.87,13.22-4.3v0c2.53-0.6,5.07-1.16,7.59-1.79c36.34-9.05,73.18-11.1,110.43-8.38
		c30.34,2.21,60.14,7.41,89.3,15.87c38.95,11.29,77.98,21.96,118.59,25.49c23.56,2.05,47.02,1.98,70.25-3.03
		c14.85-3.21,28.94-8.32,41.41-17.26c4.11-2.12,7.38-5.29,10.71-8.4C479.54,294.15,481.96,292.11,483.09,288.91z"/>
</g>
</svg>
